<?xml version="1.0" encoding="utf-8"?>
<!-- Generator: Adobe Illustrator 22.1.0, SVG Export Plug-In . SVG Version: 6.00 Build 0)  -->
<svg version="1.0" id="Ebene_1" xmlns="http://www.w3.org/2000/svg" xmlns:xlink="http://www.w3.org/1999/xlink" x="0px" y="0px"
	 viewBox="0 0 500 500" style="enable-background:new 0 0 500 500;" xml:space="preserve">
<style type="text/css">
	.st0{fill:#7F7F7F;}
</style>
<path class="st0" d="M3.4,421.8l182.2-147.2l35.2,29c8.1,6.7,18.7,10.3,29.9,10.3c11.1,0,21.7-3.7,29.8-10.4l34-28L496.8,422
	L3.4,421.8z M342.2,252.7l154.6-127.6v251.8L342.2,252.7z M3.2,124.2L158,251.8L3.2,376.8V124.2z M250.6,278.8
	c-2.9,0-5.7-0.9-7.5-2.3L3.2,78l493.6,1.6L268,268.4l-9.3,7.7c-0.1,0.1-1.1,0.7-1.1,0.7c-1.9,1.3-4.3,2-6.8,2H250.6z"/>
</svg>
