<?xml version="1.0" encoding="utf-8"?>
<!-- Generator: Adobe Illustrator 22.1.0, SVG Export Plug-In . SVG Version: 6.00 Build 0)  -->
<svg version="1.0" id="Ebene_1" xmlns="http://www.w3.org/2000/svg" xmlns:xlink="http://www.w3.org/1999/xlink" x="0px" y="0px"
	 viewBox="0 0 900 500" style="enable-background:new 0 0 900 500;" xml:space="preserve">
<style type="text/css">
	.st0{fill:none;stroke:#FFFFFF;stroke-width:18;stroke-linecap:round;stroke-linejoin:round;stroke-miterlimit:10;}
	.st1{fill:#434343;}
	.st2{fill:#7F7F7F;}
	.st3{fill:none;stroke:#000000;stroke-width:24;stroke-linecap:round;stroke-linejoin:round;stroke-miterlimit:10;}
	.st4{fill:none;stroke:#000000;stroke-width:24;stroke-linecap:round;stroke-miterlimit:10;}
	.st5{fill:#FFFFFF;stroke:#000000;stroke-width:15;stroke-linecap:round;stroke-linejoin:round;stroke-miterlimit:10;}
	.st6{stroke:#000000;stroke-width:24;stroke-linecap:round;stroke-linejoin:round;stroke-miterlimit:10;}
	.st7{fill:#FFFFFF;stroke:#000000;stroke-width:24;stroke-linecap:round;stroke-linejoin:round;stroke-miterlimit:10;}
	.st8{fill:none;stroke:#000000;stroke-width:15;stroke-linecap:round;stroke-linejoin:round;stroke-miterlimit:10;}
	.st9{fill:none;stroke:#000000;stroke-width:18;stroke-linecap:round;stroke-linejoin:round;stroke-miterlimit:10;}
	.st10{stroke:#000000;stroke-width:18;stroke-linecap:round;stroke-linejoin:round;stroke-miterlimit:10;}
	.st11{clip-path:url(#SVGID_2_);fill:#DBDBDB;}
	.st12{clip-path:url(#SVGID_2_);fill:#7F7F7F;}
	.st13{clip-path:url(#SVGID_4_);}
	.st14{opacity:0.8;clip-path:url(#SVGID_6_);}
	.st15{clip-path:url(#SVGID_8_);fill:#00448D;}
	.st16{clip-path:url(#SVGID_4_);fill:#2E2E2E;}
	.st17{filter:url(#Adobe_OpacityMaskFilter);}
	.st18{clip-path:url(#SVGID_10_);}
	.st19{clip-path:url(#SVGID_10_);mask:url(#SVGID_11_);}
	.st20{opacity:0.75;clip-path:url(#SVGID_15_);fill:#1D1D1B;}
	.st21{clip-path:url(#SVGID_4_);fill:#434343;}
	.st22{filter:url(#Adobe_OpacityMaskFilter_1_);}
	.st23{clip-path:url(#SVGID_17_);}
	.st24{clip-path:url(#SVGID_17_);mask:url(#SVGID_18_);}
	.st25{opacity:0.75;clip-path:url(#SVGID_22_);fill:#1D1D1B;}
	.st26{filter:url(#Adobe_OpacityMaskFilter_2_);}
	.st27{clip-path:url(#SVGID_17_);fill:url(#SVGID_24_);}
	.st28{clip-path:url(#SVGID_17_);mask:url(#SVGID_23_);}
	.st29{clip-path:url(#SVGID_26_);fill:#9C9B9B;}
	.st30{clip-path:url(#SVGID_28_);}
	.st31{opacity:0.8;clip-path:url(#SVGID_30_);}
	.st32{clip-path:url(#SVGID_32_);fill:#00448D;}
	.st33{clip-path:url(#SVGID_28_);fill:#2E2E2E;}
	.st34{filter:url(#Adobe_OpacityMaskFilter_3_);}
	.st35{clip-path:url(#SVGID_34_);}
	.st36{clip-path:url(#SVGID_34_);mask:url(#SVGID_35_);}
	.st37{opacity:0.75;clip-path:url(#SVGID_39_);fill:#1D1D1B;}
	.st38{clip-path:url(#SVGID_28_);fill:#434343;}
	.st39{filter:url(#Adobe_OpacityMaskFilter_4_);}
	.st40{clip-path:url(#SVGID_41_);}
	.st41{clip-path:url(#SVGID_41_);mask:url(#SVGID_42_);}
	.st42{opacity:0.75;clip-path:url(#SVGID_46_);fill:#1D1D1B;}
	.st43{filter:url(#Adobe_OpacityMaskFilter_5_);}
	.st44{clip-path:url(#SVGID_41_);fill:url(#SVGID_48_);}
	.st45{clip-path:url(#SVGID_41_);mask:url(#SVGID_47_);}
	.st46{clip-path:url(#SVGID_50_);fill:#9C9B9B;}
	.st47{fill:#FFFFFF;}
	.st48{fill:#1D1D1B;}
	.st49{fill-rule:evenodd;clip-rule:evenodd;}
	.st50{fill-rule:evenodd;clip-rule:evenodd;fill:#FFFFFF;}
</style>
<g>
	<g>
		<path class="st48" d="M132.3,312.3h14.3l0,2.4h-11.7v6h10.8v2.3h-10.8l0,6.7h11.9v2.4h-14.5L132.3,312.3z"/>
		<path class="st48" d="M153.3,312.3l0,12.2c0,1.4,0.3,2.6,0.8,3.6c0.8,1.4,2.2,2.2,4.1,2.2c2.3,0,3.8-0.8,4.7-2.3
			c0.4-0.8,0.7-2,0.7-3.4l0-12.2h2.7l0,11.1c0,2.4-0.3,4.3-1,5.6c-1.2,2.4-3.5,3.6-6.8,3.6c-3.3,0-5.6-1.2-6.8-3.6
			c-0.7-1.3-1-3.2-1-5.6l0-11.1H153.3z"/>
		<path class="st48" d="M170.6,312.3h9c1.5,0,2.7,0.2,3.7,0.7c1.8,0.8,2.7,2.4,2.7,4.7c0,1.2-0.2,2.2-0.7,2.9
			c-0.5,0.8-1.2,1.4-2,1.8c0.8,0.3,1.4,0.7,1.7,1.2c0.4,0.5,0.6,1.3,0.7,2.5l0.1,2.6c0,0.8,0.1,1.3,0.2,1.7c0.2,0.6,0.4,1,0.9,1.2
			v0.4h-3.3c-0.1-0.2-0.2-0.4-0.2-0.7c-0.1-0.3-0.1-0.8-0.1-1.6l-0.2-3.3c-0.1-1.3-0.5-2.2-1.4-2.6c-0.5-0.2-1.3-0.4-2.3-0.4h-5.9
			l0,8.5h-2.7L170.6,312.3z M179.3,321.3c1.2,0,2.2-0.3,2.9-0.8c0.7-0.5,1.1-1.4,1.1-2.7c0-1.4-0.5-2.4-1.5-2.9
			c-0.5-0.3-1.2-0.4-2.1-0.4h-6.4l0,6.7H179.3z"/>
		<path class="st48" d="M206.4,315.1c1.3,1.7,2,4,2,6.7c0,2.9-0.7,5.4-2.2,7.4c-1.8,2.3-4.3,3.4-7.5,3.4c-3,0-5.4-1-7.2-3
			c-1.5-1.9-2.3-4.4-2.3-7.3c0-2.7,0.7-5,2-6.9c1.7-2.4,4.2-3.7,7.6-3.7C202.1,311.7,204.7,312.9,206.4,315.1z M204,327.7
			c1.1-1.7,1.6-3.6,1.6-5.8c0-2.3-0.6-4.2-1.8-5.6c-1.2-1.4-2.9-2.1-5-2.1c-2,0-3.7,0.7-5,2.1s-1.9,3.5-1.9,6.2c0,2.2,0.6,4,1.7,5.5
			c1.1,1.5,2.9,2.3,5.4,2.3C201.3,330.2,203,329.4,204,327.7z"/>
		<path class="st48" d="M211.8,312.3h8.8c1.7,0,3.2,0.5,4.2,1.5c1.1,1,1.6,2.4,1.6,4.2c0,1.5-0.5,2.9-1.4,4c-1,1.1-2.4,1.7-4.4,1.7
			h-6.2l0,8.3h-2.7L211.8,312.3z M222.2,315c-0.6-0.3-1.4-0.4-2.4-0.4h-5.3l0,6.8h5.3c1.2,0,2.2-0.3,2.9-0.8
			c0.7-0.5,1.1-1.4,1.1-2.7C223.8,316.5,223.2,315.5,222.2,315z"/>
		<path class="st48" d="M230.2,312.3h14.3l0,2.4h-11.7l0,6h10.8v2.3h-10.8l0,6.7h11.9v2.4h-14.5L230.2,312.3z"/>
		<path class="st48" d="M254,312.3h3l7.2,19.7h-2.9l-2.1-5.9h-7.7l-2.1,5.9h-2.7L254,312.3z M258.4,323.9l-3-8.7l-3.2,8.7H258.4z"/>
		<path class="st48" d="M266.6,312.3h3.2l9.8,15.9l0-15.9h2.6l0,19.7h-3l-10-15.9l0,15.9h-2.6L266.6,312.3z"/>
		<path class="st48" d="M295.4,312.3l3.7,16l4.5-16h2.9l4.5,16.1l3.7-16.1h2.9l-5.2,19.7h-2.8l-4.6-16.4l-4.6,16.4h-2.8l-5.2-19.7
			H295.4z"/>
		<path class="st48" d="M320.7,312.3h2.7l0,19.7h-2.7L320.7,312.3z"/>
		<path class="st48" d="M327.8,312.3h3.2l9.8,15.9l0-15.9h2.6l0,19.7h-3l-10-15.9l0,15.9h-2.6L327.8,312.3z"/>
		<path class="st48" d="M347.7,312.3h7.9c2.7,0,4.8,1,6.2,2.9c1.3,1.7,2,4,2,6.7c0,2.1-0.4,4-1.2,5.7c-1.4,3-3.7,4.5-7.1,4.5h-7.9
			L347.7,312.3z M355.1,329.7c0.9,0,1.6-0.1,2.2-0.3c1-0.3,1.8-1,2.5-2c0.5-0.8,0.9-1.8,1.1-3.1c0.1-0.7,0.2-1.4,0.2-2.1
			c0-2.4-0.5-4.3-1.4-5.7c-1-1.4-2.5-2-4.6-2h-4.6l0,15.2H355.1z"/>
		<path class="st48" d="M383.8,315.1c1.3,1.7,2,4,2,6.7c0,2.9-0.7,5.4-2.2,7.4c-1.8,2.3-4.3,3.4-7.5,3.4c-3,0-5.4-1-7.2-3
			c-1.5-1.9-2.3-4.4-2.3-7.3c0-2.7,0.7-5,2-6.9c1.7-2.4,4.2-3.7,7.6-3.7C379.5,311.7,382.1,312.9,383.8,315.1z M381.4,327.7
			c1.1-1.7,1.6-3.6,1.6-5.8c0-2.3-0.6-4.2-1.8-5.6c-1.2-1.4-2.9-2.1-5-2.1c-2,0-3.7,0.7-5,2.1s-1.9,3.5-1.9,6.2c0,2.2,0.6,4,1.7,5.5
			c1.1,1.5,2.9,2.3,5.4,2.3C378.6,330.2,380.3,329.4,381.4,327.7z"/>
		<path class="st48" d="M390.2,312.3l3.7,16l4.5-16h2.9l4.5,16.1l3.7-16.1h2.9l-5.2,19.7h-2.8l-4.6-16.4l-4.6,16.4h-2.8l-5.2-19.7
			H390.2z"/>
		<path class="st48" d="M422.8,312.3h13.7l0,2.4h-11v6h9.7v2.4h-9.7l0,9h-2.7L422.8,312.3z"/>
		<path class="st48" d="M439.9,312.3h2.7l0,19.7h-2.7L439.9,312.3z"/>
		<path class="st48" d="M447,312.3h2.7l0,17.4h9.9v2.4H447L447,312.3z"/>
		<path class="st48" d="M462.2,312.3h3.8l5.7,16.7l5.6-16.7h3.8l0,19.7h-2.6v-11.7c0-0.4,0-1.1,0-2c0-0.9,0-1.9,0-3L473,332h-2.6
			l-5.7-16.6v0.6c0,0.5,0,1.2,0,2.2c0,1,0,1.7,0,2.2l0,11.7h-2.6L462.2,312.3z"/>
		<path class="st48" d="M497.1,312.3h3l7.2,19.7h-2.9l-2.1-5.9h-7.7l-2.1,5.9h-2.7L497.1,312.3z M501.6,323.9l-3-8.7l-3.2,8.7H501.6
			z"/>
		<path class="st48" d="M511.5,325.7c0.1,1.1,0.3,2,0.8,2.7c0.9,1.3,2.4,2,4.5,2c1,0,1.8-0.1,2.6-0.4c1.5-0.6,2.3-1.5,2.3-3
			c0-1.1-0.3-1.8-1-2.3c-0.7-0.4-1.7-0.8-3.1-1.2l-2.6-0.6c-1.7-0.4-2.9-0.8-3.6-1.3c-1.2-0.8-1.8-2.1-1.8-3.7
			c0-1.8,0.6-3.2,1.8-4.4c1.2-1.1,2.9-1.7,5.1-1.7c2,0,3.7,0.5,5.1,1.5c1.4,1,2.1,2.6,2.1,4.8h-2.5c-0.1-1.1-0.4-1.9-0.8-2.4
			c-0.8-1-2.1-1.5-4-1.5c-1.5,0-2.6,0.3-3.3,1c-0.7,0.7-1,1.4-1,2.3c0,1,0.4,1.7,1.2,2.1c0.5,0.3,1.7,0.6,3.5,1.1l2.7,0.6
			c1.3,0.3,2.3,0.7,3,1.3c1.2,0.9,1.8,2.3,1.8,4c0,2.2-0.8,3.7-2.3,4.7s-3.4,1.4-5.4,1.4c-2.4,0-4.3-0.6-5.6-1.9
			c-1.4-1.2-2-2.9-2-5.1H511.5z"/>
		<path class="st48" d="M529.8,325.7c0.1,1.1,0.3,2,0.8,2.7c0.9,1.3,2.4,2,4.5,2c1,0,1.8-0.1,2.6-0.4c1.5-0.6,2.3-1.5,2.3-3
			c0-1.1-0.3-1.8-1-2.3c-0.7-0.4-1.7-0.8-3.1-1.2l-2.6-0.6c-1.7-0.4-2.9-0.8-3.6-1.3c-1.2-0.8-1.8-2.1-1.8-3.7
			c0-1.8,0.6-3.2,1.8-4.4c1.2-1.1,2.9-1.7,5.1-1.7c2,0,3.7,0.5,5.1,1.5c1.4,1,2.1,2.6,2.1,4.8h-2.5c-0.1-1.1-0.4-1.9-0.8-2.4
			c-0.8-1-2.1-1.5-4-1.5c-1.5,0-2.6,0.3-3.3,1c-0.7,0.7-1,1.4-1,2.3c0,1,0.4,1.7,1.2,2.1c0.5,0.3,1.7,0.6,3.5,1.1l2.7,0.6
			c1.3,0.3,2.3,0.7,3,1.3c1.2,0.9,1.8,2.3,1.8,4c0,2.2-0.8,3.7-2.3,4.7s-3.4,1.4-5.4,1.4c-2.4,0-4.3-0.6-5.6-1.9
			c-1.4-1.2-2-2.9-2-5.1H529.8z"/>
		<path class="st48" d="M562.7,315.1c1.3,1.7,2,4,2,6.7c0,2.9-0.7,5.4-2.2,7.4c-1.8,2.3-4.3,3.4-7.5,3.4c-3,0-5.4-1-7.2-3
			c-1.5-1.9-2.3-4.4-2.3-7.3c0-2.7,0.7-5,2-6.9c1.7-2.4,4.2-3.7,7.6-3.7C558.4,311.7,561,312.9,562.7,315.1z M560.3,327.7
			c1.1-1.7,1.6-3.6,1.6-5.8c0-2.3-0.6-4.2-1.8-5.6c-1.2-1.4-2.9-2.1-5-2.1c-2,0-3.7,0.7-5,2.1s-1.9,3.5-1.9,6.2c0,2.2,0.6,4,1.7,5.5
			c1.1,1.5,2.9,2.3,5.4,2.3C557.6,330.2,559.3,329.4,560.3,327.7z"/>
		<path class="st48" d="M581.8,313.7c1.4,1.3,2.1,2.8,2.3,4.5h-2.6c-0.3-1.3-0.9-2.3-1.7-3s-2.1-1.1-3.6-1.1c-1.9,0-3.5,0.7-4.6,2.1
			c-1.2,1.4-1.8,3.5-1.8,6.3c0,2.3,0.5,4.2,1.6,5.6c1.1,1.4,2.6,2.2,4.7,2.2c1.9,0,3.4-0.8,4.4-2.3c0.5-0.8,0.9-1.8,1.2-3.1h2.6
			c-0.2,2.1-1,3.8-2.3,5.2c-1.5,1.7-3.6,2.5-6.3,2.5c-2.3,0-4.2-0.7-5.7-2.1c-2-1.8-3-4.7-3-8.5c0-2.9,0.8-5.3,2.3-7.2
			c1.6-2,3.9-3,6.8-3C578.5,311.7,580.4,312.4,581.8,313.7z"/>
		<path class="st48" d="M588.3,312.3h2.7V332h-2.7L588.3,312.3z"/>
		<path class="st48" d="M601.1,312.3h3l7.2,19.7h-2.9l-2.1-5.9h-7.7l-2.1,5.9h-2.7L601.1,312.3z M605.5,323.9l-3-8.7l-3.2,8.7H605.5
			z"/>
		<path class="st48" d="M626,312.3v2.4h-6.7V332h-2.7l0-17.4H610v-2.4H626z"/>
		<path class="st48" d="M629.1,312.3h2.7l0,19.7h-2.7V312.3z"/>
		<path class="st48" d="M652.4,315.1c1.3,1.7,2,4,2,6.7c0,2.9-0.7,5.4-2.2,7.4c-1.8,2.3-4.3,3.4-7.5,3.4c-3,0-5.4-1-7.2-3
			c-1.5-1.9-2.3-4.4-2.3-7.3c0-2.7,0.7-5,2-6.9c1.7-2.4,4.2-3.7,7.6-3.7C648.1,311.7,650.7,312.9,652.4,315.1z M650,327.7
			c1.1-1.7,1.6-3.6,1.6-5.8c0-2.3-0.6-4.2-1.8-5.6c-1.2-1.4-2.9-2.1-5-2.1c-2,0-3.7,0.7-5,2.1c-1.3,1.4-1.9,3.5-1.9,6.2
			c0,2.2,0.6,4,1.7,5.5c1.1,1.5,2.9,2.3,5.4,2.3C647.3,330.2,649,329.4,650,327.7z"/>
		<path class="st48" d="M657.5,312.3h3.2l9.8,15.9l0-15.9h2.6l0,19.7h-3l-10-15.9V332h-2.6L657.5,312.3z"/>
	</g>
	<path d="M743.9,275.9c-1.9-5.8-3.1-10.4-5-14.7c-0.7-1.6-3.1-3.3-4.8-3.4c-4.9-0.5-9.8-0.2-16.3-0.2c4.3-3.1,7.2-5.5,10.4-7.4
		c4.6-2.7,6.5-5.9,3.8-11.2c-1.6-3.2-2.3-6.8-3.9-11.9c4.9,3.5,8.8,6.1,12.3,9c2.5,2,4.5,2,7.1,0c3.5-2.8,7.3-5.3,12.3-8.8
		c-1.7,5.4-2.7,9.2-4.2,12.8c-1.7,4-1.1,6.8,2.8,9.1c3.6,2.1,6.8,4.9,11.6,8.4c-6.2,0-10.7,0.2-15.2-0.1c-3.8-0.3-5.6,1.3-6.5,4.8
		C747.2,266.4,745.7,270.5,743.9,275.9z"/>
	<path d="M740.9,150.1c-1.3,4-2.3,8-3.8,11.8c-1.4,3.3-0.4,5.3,2.4,7.2c3.8,2.5,7.4,5.4,12.3,8.9c-6.1,0-11-0.4-15.8,0.2
		c-1.9,0.2-4.4,2-5.2,3.7c-2,4.3-3.1,9-4.9,14.6c-1.6-5-3.2-8.9-4.2-13c-1-4.2-3.1-6.1-7.6-5.7c-4.1,0.4-8.3,0.1-14.1,0.1
		c5-3.7,8.5-6.5,12.3-8.9c2.9-1.9,3.5-4,2.3-7.3c-1.7-4.2-2.8-8.6-4.6-14.1c4.1,3,7.5,4.9,10.2,7.5c4.1,3.8,7.5,3.4,11.4-0.1
		c2.5-2.3,5.5-4,8.3-5.9C740.1,149.5,740.5,149.8,740.9,150.1z"/>
	<path d="M565.1,106.8c5.3-4.5,11.9-7.5,13.6-12.2c1.5-4.4-2.3-10.6-4.2-17.5c4.6,3.4,8.3,5.8,11.6,8.5c2.6,2.1,4.8,2.4,7.6,0.1
		c3.3-2.7,6.9-5.1,11.4-6.7c-1.3,4.1-2.2,8.4-3.9,12.3c-1.3,3.2-0.4,5,2.2,6.7c3.6,2.5,7.1,5.1,12.3,8.9c-4.9,0-8.2,0.4-11.4-0.1
		c-6.4-0.9-9.5,1.8-10.7,7.9c-0.7,3.3-2,6.5-3.5,10.8c-1.8-5.4-3.4-9.7-4.7-14.1c-0.9-3.3-2.7-4.7-6.2-4.5
		C574.8,106.9,570.4,106.8,565.1,106.8z"/>
	<path d="M655.2,355.6c3.4,2.4,6.9,4.7,10.1,7.4c3.1,2.6,5.5,2.4,8.5-0.1c3.3-2.8,7-5.2,11.6-8.5c-1.7,5.4-2.8,9.8-4.6,14
		c-1.5,3.6-0.5,5.7,2.5,7.6c3.5,2.3,6.8,4.9,11.6,8.4c-5.1,0-8.7,0.4-12.2-0.1c-5.8-0.8-8.4,1.8-9.6,7.1c-0.8,3.5-2.1,6.9-3.6,11.8
		c-1.9-5.6-3-10.3-5.1-14.5c-0.9-1.9-3.6-3.8-5.6-4.1c-4.3-0.6-8.8-0.2-14.9-0.2c4.7-3.4,8-6.1,11.6-8.4c3.1-2,4-4.2,2.6-7.7
		c-1.6-3.9-2.6-7.9-3.9-11.9C654.5,356.1,654.8,355.9,655.2,355.6z"/>
	<path d="M725.8,350.4c-1.9-5.8-3-10.5-5.1-14.8c-0.9-1.9-3.6-3.8-5.7-4.1c-4.3-0.6-8.7-0.2-14.6-0.2c4.6-3.3,7.8-5.9,11.2-8.1
		c3.2-2.1,4.3-4.3,2.7-8.1c-1.6-3.8-2.6-7.8-4.4-13.4c5,3.5,8.6,5.8,12,8.5c2.7,2.2,4.7,2.4,7.5,0.1c3.3-2.8,7-5.1,12-8.6
		c-1.7,5.7-2.7,10-4.3,13.9c-1.4,3.4-0.4,5.3,2.3,7.2c3.5,2.4,6.8,4.9,11.7,8.5c-5.2,0-8.8,0.4-12.3-0.1c-5.6-0.8-8,1.8-9.2,6.8
		C728.7,341.8,727.4,345.4,725.8,350.4z"/>
	<path d="M540.2,384.3c-5.2,0-9.3,0.2-13.4-0.1c-4-0.3-5.9,1.5-6.9,5.2c-1.1,4-2.5,8-4.3,13.5c-1.9-5.7-3-10.2-5.1-14.3
		c-0.9-1.9-3.5-3.8-5.6-4.1c-4.4-0.6-9-0.2-15.1-0.2c4.9-3.5,8.4-6.4,12.2-8.8c2.8-1.8,3.2-3.9,2.2-6.8c-1.5-4.3-2.8-8.6-4.7-14.3
		c5,3.6,8.8,6.1,12.3,8.9c2.5,2,4.4,2.2,7,0c3.6-3,7.6-5.5,11.8-8.5c-1.7,6.2-5.7,12.6-4.2,17.3
		C527.9,376.8,534.7,379.8,540.2,384.3z"/>
	<path d="M513.7,145.4c-1.8-5.6-3.4-9.9-4.6-14.3c-0.9-3.4-2.9-4.6-6.3-4.5c-4.2,0.1-8.4,0-14.5,0c4.6-3.4,7.8-5.9,11.1-8.1
		c3.4-2.2,4.6-4.6,2.8-8.6c-1.6-3.6-2.5-7.5-4.2-13.1c5,3.5,8.7,5.9,12.2,8.6c2.6,2,4.6,2,7.1,0c3.4-2.7,7-5.1,11.7-7
		c-1.2,3.7-2,7.5-3.6,11c-1.9,4.4-0.8,7.1,3.2,9.5c3.2,1.9,6.2,4.4,10.7,7.7c-6,0-10.3,0.1-14.6,0c-3.3-0.1-5.3,1.1-6.3,4.5
		C517.2,135.5,515.6,139.8,513.7,145.4z"/>
	<path d="M691,123.1c-3.6,0-7.2,0.2-10.8-0.1c-4.6-0.4-7.2,1.3-8.2,5.9c-1,4-2.5,7.9-4.2,13c-1.7-5-3.4-8.8-4.3-12.8
		c-1-5-3.9-6.5-8.6-6.1c-3.6,0.3-7.1,0.1-11.1-1c3.2-2.3,6.2-4.8,9.6-6.9c3.4-2.2,4.6-4.6,2.9-8.6c-1.6-3.8-2.7-7.9-4.5-13.3
		c5,3.6,8.6,6.6,12.7,8.8c1.7,0.9,4.7,0.9,6.4,0c4-2.2,7.5-5.2,12.7-8.9c-1.9,5.8-3,9.9-4.6,13.9c-1.3,3.4-0.7,5.7,2.5,7.7
		c3.4,2.1,6.5,4.7,9.7,7C691.2,122.2,691.1,122.7,691,123.1z"/>
	<path d="M593.2,423c-1.8-5.4-3.4-9.3-4.3-13.3c-1-4.5-3.6-5.8-7.8-5.5c-3.8,0.2-7.6,0-13.2,0c4.2-3.1,7-5.6,10.2-7.4
		c4.6-2.6,5.3-5.8,3.3-10.4c-1.4-3.3-2.3-6.7-2.5-10.9c3.3,2.4,6.9,4.5,9.9,7.1c3.2,2.8,5.9,2.6,9-0.1c3-2.6,6.4-4.7,10.7-6.4
		c-1.2,4-2.2,8.2-3.8,12.1c-1.5,3.6-0.5,5.7,2.5,7.6c3.5,2.3,6.7,4.9,11.5,8.4c-6,0-10.3,0.1-14.6,0c-3.4-0.1-5.3,1.3-6.2,4.6
		C596.7,413.1,595.1,417.4,593.2,423z"/>
	<path d="M673.5,293c-15.2-41.1-30.4-82.3-45.5-123.5c-1.3-3.5-3.2-4.5-6.8-4.5c-47.2,0.1-94.4,0.1-141.7,0.1
		c-1.7,0-3.5,0.4-5.2,0.5c-0.2,0.5-0.4,1.1-0.5,1.6c5.2,4.1,10.5,8.1,15.7,12.2c-0.2,0.5-0.4,1-0.5,1.5c-4.7,0-9.4,0.2-14-0.1
		c-4.1-0.2-6.4,1-7.4,5.2c-1.1,4.5-2.8,8.7-4.3,13.1c-0.6-0.1-1.1-0.2-1.7-0.3c-1.4-4.3-3.1-8.6-4.3-12.9c-1-3.7-3-5.4-7-5.1
		c-4.8,0.3-9.6,0.1-14.5,0.1c-0.1-0.5-0.2-1-0.3-1.5c5.2-4.1,10.4-8.2,15.6-12.3c-0.3-0.5-0.5-1.1-0.8-1.6c-1.8-0.1-3.6-0.3-5.4-0.4
		c-7.7,0-15.4,0.3-23-0.1c-5.1-0.3-7,1.8-8.5,6.2c-9.1,25.8-18.4,51.6-27.7,77.3c-0.7,1.9-1.6,3.7-2.4,5.6c-0.5-0.1-1.1-0.1-1.6-0.2
		c-1.6-10-3.2-19.9-4.7-29.9c-2.8-17.9-5.5-35.9-8.3-53.9c-0.5-3.4-1.9-5.4-6-5.2c-7.5,0.4-15,0.3-22.4,0c-4.1-0.2-6.1,1.2-7.6,5.1
		c-10.2,26-20.6,52-31,78c-0.9,2.2-1.9,4.3-3.4,7.8c-0.9-2.9-1.6-4.3-1.8-5.7c-3.6-26.7-7.1-53.5-10.5-80.2
		c-0.4-3.5-1.8-5.1-5.5-4.9c-5.7,0.2-11.5,0.1-17.3,0.1c-37.4,0-74.9,0-112.3-0.1c-3.7,0-6.4,0.4-6.8,4.8
		c-0.7,7.6-1.5,15.2-2.4,22.8c-2.1,18.1-4.2,36.1-6.3,54.1c-1.7,14.6-3.4,29.3-5.2,43.9c-0.5,4.4,0.6,6.4,5.5,6
		c5.7-0.4,11.5-0.1,17.3-0.1c27.3,0,54.5,0,81.8,0c2.7,0,5.8,0.4,6.2-3.4c0.8-6.8,1.3-13.6,2-21.1c-2.6,0-4.6,0-6.7,0
		c-19.6,0-39.2,0-58.7,0c-2.7,0-5.7,0.3-5.2-4c0.8-6.6,1.7-13.3,2.3-20c0.5-5,2.4-7.1,7.9-6.9c16.3,0.4,32.6,0.3,48.9,0
		c2,0,5.3-1.7,5.6-3.1c1.2-6.9,1.6-13.9,2.3-21.4c-20.5,0-40.2,0-60.9,0c0.9-7.6,2.3-14.5,2.5-21.5c0.1-5.6,2.6-6.7,7.5-6.7
		c17.1,0.2,34.2,0.1,51.3,0c4.1,0,8.2-0.3,13-0.6c1.7,9.5,3.5,19.4,5.3,29.3c4.3,24.5,8.7,48.9,12.9,73.4c0.7,4.2,2.3,6.2,7.1,5.9
		c8.2-0.5,16.5-0.4,24.7,0c4.9,0.3,7-1.5,8.9-5.9c10.7-26,21.8-52,32.8-77.9c0.8-1.9,2-3.5,3.9-6.7c1.2,7.8,2.2,13.6,3,19.4
		c3.2,22,6.3,43.9,9.4,65.9c0.5,3.5,1.9,5.4,5.9,5.2c8.2-0.3,16.5-0.4,24.8,0c4.7,0.2,7.1-1.4,9.1-5.7c14-30.5,28.3-60.8,42.6-91.1
		c1.1-2.3,2.4-4.5,3.7-6.7c1.1,2,1.2,3.7,1,5.4c-3.7,31-7.4,61.9-11.1,92.8c-0.5,4,0.9,5.5,5,5.3c8.4-0.3,16.9-0.4,25.3,0
		c4.6,0.2,6.2-1.7,6.7-5.7c1.6-14.1,3.3-28.1,4.6-42.2c0.4-4.6,1.9-6.4,6.6-6.3c13.6,0.2,27.3,0,40.9,0.1c3.6,0,5.9-0.5,5.9-4.8
		c0-3.6,0.7-7.2,1.3-10.8c1.3-8.1,1.4-8.1-6.8-8.1c-12.9,0-25.7,0-38.6,0c-2.9,0-6,0.1-5.3-4.5c0.9-6.2,1.5-12.5,2.1-18.8
		c0.5-5,2.5-7.1,8-7c25.5,0.3,51.1,0.1,76.6,0.2c2,0,4,0.3,7.4,0.6c-22.3,36.1-44,71.2-66.3,107.3c7.4,0,13.5,0.1,19.6,0
		c7.3-0.1,15.6,1.8,21.5-1.1c5.4-2.7,8.4-10.6,12.1-16.4c2-3.1,4.3-4.4,8-4.3c11.5,0.2,23,0.1,34.5,0.1c15.4,0,15.4,0,21.2,14.6
		c0.4,0.9,0.9,1.7,1.1,2.7c0.9,3.6,3.1,4.7,6.7,4.6c10.4-0.2,20.7-0.1,31.1-0.1c2.8,0,5.5,0,8.7,0
		C673.9,294.8,673.8,293.9,673.5,293z M576,252.4c8.4-17.5,16.5-34.4,24.5-51.2c0.6,0.1,1.2,0.1,1.7,0.2l3.3,10.8c0.3,1,0.6,2,0.9,3
		l2.6,8.5c0.9,2.8,1.8,5.7,2.6,8.5l2.4,7.8c1.3,4.1,2.5,8.2,3.8,12.3C603.8,252.4,590.6,252.4,576,252.4z"/>
</g>
</svg>
