<?xml version="1.0" encoding="utf-8"?>
<!-- Generator: Adobe Illustrator 22.1.0, SVG Export Plug-In . SVG Version: 6.00 Build 0)  -->
<svg version="1.0" id="Ebene_1" xmlns="http://www.w3.org/2000/svg" xmlns:xlink="http://www.w3.org/1999/xlink" x="0px" y="0px"
	 viewBox="0 0 500 500" style="enable-background:new 0 0 500 500;" xml:space="preserve">
<style type="text/css">
	.st0{fill:none;stroke:#FFFFFF;stroke-width:18;stroke-linecap:round;stroke-linejoin:round;stroke-miterlimit:10;}
	.st1{fill:#434343;}
	.st2{fill:#7F7F7F;}
	.st3{fill:none;stroke:#000000;stroke-width:24;stroke-linecap:round;stroke-linejoin:round;stroke-miterlimit:10;}
	.st4{fill:none;stroke:#000000;stroke-width:24;stroke-linecap:round;stroke-miterlimit:10;}
	.st5{fill:#FFFFFF;stroke:#000000;stroke-width:15;stroke-linecap:round;stroke-linejoin:round;stroke-miterlimit:10;}
	.st6{stroke:#000000;stroke-width:24;stroke-linecap:round;stroke-linejoin:round;stroke-miterlimit:10;}
	.st7{fill:#FFFFFF;stroke:#000000;stroke-width:24;stroke-linecap:round;stroke-linejoin:round;stroke-miterlimit:10;}
	.st8{fill:none;stroke:#000000;stroke-width:15;stroke-linecap:round;stroke-linejoin:round;stroke-miterlimit:10;}
	.st9{fill:none;stroke:#000000;stroke-width:18;stroke-linecap:round;stroke-linejoin:round;stroke-miterlimit:10;}
	.st10{stroke:#000000;stroke-width:18;stroke-linecap:round;stroke-linejoin:round;stroke-miterlimit:10;}
	.st11{clip-path:url(#SVGID_2_);fill:#DBDBDB;}
	.st12{clip-path:url(#SVGID_2_);fill:#7F7F7F;}
	.st13{clip-path:url(#SVGID_4_);}
	.st14{opacity:0.8;clip-path:url(#SVGID_6_);}
	.st15{clip-path:url(#SVGID_8_);fill:#00448D;}
	.st16{clip-path:url(#SVGID_4_);fill:#2E2E2E;}
	.st17{filter:url(#Adobe_OpacityMaskFilter);}
	.st18{clip-path:url(#SVGID_10_);}
	.st19{clip-path:url(#SVGID_10_);mask:url(#SVGID_11_);}
	.st20{opacity:0.75;clip-path:url(#SVGID_15_);fill:#1D1D1B;}
	.st21{clip-path:url(#SVGID_4_);fill:#434343;}
	.st22{filter:url(#Adobe_OpacityMaskFilter_1_);}
	.st23{clip-path:url(#SVGID_17_);}
	.st24{clip-path:url(#SVGID_17_);mask:url(#SVGID_18_);}
	.st25{opacity:0.75;clip-path:url(#SVGID_22_);fill:#1D1D1B;}
	.st26{filter:url(#Adobe_OpacityMaskFilter_2_);}
	.st27{clip-path:url(#SVGID_17_);fill:url(#SVGID_24_);}
	.st28{clip-path:url(#SVGID_17_);mask:url(#SVGID_23_);}
	.st29{clip-path:url(#SVGID_26_);fill:#9C9B9B;}
	.st30{clip-path:url(#SVGID_28_);}
	.st31{opacity:0.8;clip-path:url(#SVGID_30_);}
	.st32{clip-path:url(#SVGID_32_);fill:#00448D;}
	.st33{clip-path:url(#SVGID_28_);fill:#2E2E2E;}
	.st34{filter:url(#Adobe_OpacityMaskFilter_3_);}
	.st35{clip-path:url(#SVGID_34_);}
	.st36{clip-path:url(#SVGID_34_);mask:url(#SVGID_35_);}
	.st37{opacity:0.75;clip-path:url(#SVGID_39_);fill:#1D1D1B;}
	.st38{clip-path:url(#SVGID_28_);fill:#434343;}
	.st39{filter:url(#Adobe_OpacityMaskFilter_4_);}
	.st40{clip-path:url(#SVGID_41_);}
	.st41{clip-path:url(#SVGID_41_);mask:url(#SVGID_42_);}
	.st42{opacity:0.75;clip-path:url(#SVGID_46_);fill:#1D1D1B;}
	.st43{filter:url(#Adobe_OpacityMaskFilter_5_);}
	.st44{clip-path:url(#SVGID_41_);fill:url(#SVGID_48_);}
	.st45{clip-path:url(#SVGID_41_);mask:url(#SVGID_47_);}
	.st46{clip-path:url(#SVGID_50_);fill:#9C9B9B;}
	.st47{fill:#FFFFFF;}
	.st48{fill:#1D1D1B;}
	.st49{fill-rule:evenodd;clip-rule:evenodd;}
	.st50{fill-rule:evenodd;clip-rule:evenodd;fill:#FFFFFF;}
</style>
<g>
	<circle class="st47" cx="250" cy="250" r="250"/>
	<g>
		<path class="st48" d="M62.2,151.2l29.7,5.3L73,132.9l3.1-5.3l28.9,17.1l-2.2,3.6l-24.1-14.2l0,0.1l18.7,23.3l-1.9,3.3l-29.4-5.2
			l0,0.1l24.1,14.2l-2.2,3.6l-28.9-17.1L62.2,151.2z"/>
		<path class="st48" d="M122.7,124.4c-0.1,0.8-0.6,1.6-1.4,2.6c-0.7,0.8-1.4,1.2-2.3,1.3c-0.8,0.1-1.8-0.3-2.8-1.2
			c0.3,1.7,0.2,3.3-0.3,4.8c-0.5,1.5-1.3,2.9-2.4,4.2c-0.7,0.8-1.5,1.5-2.3,2.1c-0.8,0.6-1.7,1-2.6,1.2c-0.9,0.2-1.8,0.2-2.7-0.1
			c-0.9-0.2-1.9-0.8-2.8-1.6c-1-0.9-1.7-1.8-2.1-2.7c-0.4-0.9-0.5-1.9-0.4-2.8c0.1-0.9,0.3-1.9,0.8-2.8s0.9-1.9,1.4-2.8
			c0.6-1,1.1-1.9,1.7-2.7c0.6-0.8,1-1.6,1.3-2.3c0.3-0.7,0.5-1.3,0.5-1.9c0-0.6-0.3-1.1-0.9-1.6c-0.7-0.6-1.3-0.9-1.9-1
			c-0.6-0.1-1.2,0-1.8,0.2c-0.6,0.2-1.1,0.5-1.6,1c-0.5,0.4-0.9,0.9-1.4,1.4c-1.1,1.3-1.8,2.6-2,3.8c-0.2,1.3,0.3,2.5,1.6,3.8
			l-2.6,3c-1.1-1-1.9-2.1-2.3-3.2c-0.4-1.1-0.6-2.2-0.4-3.4c0.1-1.1,0.5-2.2,1.1-3.3c0.6-1.1,1.3-2.2,2.2-3.2
			c0.7-0.8,1.5-1.6,2.3-2.3c0.8-0.7,1.7-1.3,2.6-1.6c0.9-0.3,1.9-0.4,2.9-0.3c1,0.2,2.1,0.7,3.1,1.6l9.5,8.2c0.7,0.6,1.3,1,1.7,1.2
			c0.4,0.2,0.8,0.1,1.2-0.4c0.2-0.3,0.4-0.6,0.7-1L122.7,124.4z M109,121.1c0,0.6-0.3,1.3-0.7,2c-0.4,0.7-0.9,1.5-1.4,2.2
			c-0.5,0.7-1,1.5-1.5,2.3c-0.5,0.8-0.8,1.5-1.1,2.3c-0.2,0.8-0.3,1.5-0.1,2.2s0.6,1.4,1.3,2.1c0.5,0.4,1,0.7,1.5,0.8
			c0.5,0.1,1,0.1,1.5-0.1c0.5-0.1,1-0.4,1.4-0.7c0.5-0.3,0.9-0.8,1.3-1.2c0.9-1,1.5-2,1.8-2.9c0.3-0.9,0.5-1.8,0.5-2.6
			c0-0.8-0.2-1.5-0.5-2.2c-0.3-0.6-0.7-1.1-1.1-1.5L109,121.1z"/>
		<path class="st48" d="M116,97.8l2.4,2.6l-3.5,3.3l10.3,11c0.3,0.3,0.6,0.6,0.9,0.7c0.3,0.2,0.5,0.2,0.8,0.2c0.3,0,0.6-0.2,0.9-0.4
			c0.3-0.2,0.7-0.6,1.2-1l1.3-1.3l2.4,2.6l-2.2,2.1c-0.8,0.7-1.5,1.3-2.1,1.7c-0.6,0.4-1.2,0.6-1.8,0.7c-0.6,0-1.2-0.1-1.8-0.5
			c-0.6-0.4-1.3-0.9-2.1-1.8l-10.6-11.3l-3,2.8l-2.4-2.6l3-2.8l-5-5.3l2.9-2.7l5,5.3L116,97.8z"/>
		<path class="st48" d="M148,101.5c-0.6,2.2-2,4.1-4.2,5.8c-1.6,1.2-3.1,1.9-4.6,2.3c-1.5,0.4-3,0.4-4.5,0.1c-1.5-0.3-2.8-1-4.2-1.9
			c-1.3-1-2.6-2.2-3.7-3.6c-1.1-1.5-1.9-3-2.4-4.6c-0.5-1.6-0.6-3.1-0.5-4.6c0.1-1.5,0.6-2.9,1.3-4.3c0.7-1.3,1.8-2.5,3.1-3.5
			c1.7-1.3,3.4-2,5.1-2.2c1.7-0.1,3.3,0.1,4.8,0.7c1.5,0.6,2.9,1.4,4.1,2.5c1.2,1.1,2.3,2.3,3.1,3.5l-14.6,10.9
			c0.6,0.9,1.3,1.6,2.1,2.2c0.8,0.6,1.7,1,2.6,1.2c0.9,0.2,1.9,0.2,3,0c1-0.2,2.1-0.7,3.1-1.5c1.4-1,2.2-2.2,2.6-3.4
			c0.4-1.3,0.2-2.7-0.4-4.1l3.2-2.4C148.4,97,148.7,99.3,148,101.5z M137.9,89.6c-0.8-0.5-1.6-0.8-2.5-0.9c-0.9-0.1-1.7-0.1-2.6,0.1
			c-0.9,0.2-1.7,0.6-2.5,1.2c-0.8,0.6-1.5,1.3-1.9,2.1c-0.4,0.8-0.7,1.6-0.8,2.5c-0.1,0.9,0,1.7,0.2,2.6c0.2,0.9,0.6,1.7,1.1,2.5
			l11.2-8.4C139.4,90.6,138.7,90.1,137.9,89.6z"/>
		<path class="st48" d="M145.7,76.1l2.6,4.4l0.1,0c-0.2-2.2,0.1-4.1,0.9-5.6c0.7-1.5,2.1-2.8,3.9-3.9l2.2,3.6
			c-1.4,0.8-2.4,1.7-3.2,2.7c-0.7,1-1.2,2-1.4,3c-0.2,1.1-0.1,2.2,0.3,3.4c0.3,1.2,0.9,2.5,1.7,3.8l5.5,9.3l-3.4,2L142.5,78
			L145.7,76.1z"/>
		<path class="st48" d="M155.5,65.7l-2.2-4.4l3.6-1.8l2.2,4.4L155.5,65.7z M161.1,67.8l10.9,21.8l-3.6,1.8l-10.9-21.8L161.1,67.8z"
			/>
		<path class="st48" d="M196.9,79.2c-0.5,0.6-1.3,1.2-2.5,1.6c-1,0.4-1.8,0.4-2.6,0.1c-0.8-0.3-1.4-1.1-1.9-2.3
			c-0.6,1.6-1.4,3-2.6,4c-1.2,1.1-2.5,1.9-4.1,2.5c-1,0.4-2,0.7-3.1,0.8c-1,0.1-2,0.1-2.8-0.2c-0.9-0.2-1.7-0.7-2.4-1.3
			c-0.7-0.7-1.3-1.6-1.7-2.7c-0.5-1.3-0.7-2.4-0.6-3.4c0.1-1,0.4-1.9,1-2.7c0.5-0.8,1.2-1.5,2-2.1c0.8-0.6,1.7-1.2,2.6-1.7
			c0.9-0.6,1.9-1.1,2.7-1.6c0.9-0.5,1.6-0.9,2.3-1.4c0.6-0.5,1.1-1,1.3-1.5c0.3-0.5,0.3-1.1,0-1.8c-0.3-0.8-0.7-1.4-1.2-1.8
			c-0.5-0.4-1-0.6-1.6-0.7c-0.6-0.1-1.2,0-1.8,0.1c-0.6,0.1-1.2,0.3-1.8,0.6c-1.6,0.6-2.8,1.4-3.6,2.4c-0.8,1-1,2.4-0.4,4.1
			l-3.7,1.4c-0.5-1.4-0.6-2.7-0.5-3.9c0.2-1.2,0.6-2.2,1.2-3.2c0.6-0.9,1.5-1.8,2.5-2.5c1-0.7,2.2-1.3,3.5-1.8c1-0.4,2.1-0.7,3.1-1
			c1.1-0.2,2.1-0.3,3.1-0.2c1,0.1,1.9,0.5,2.7,1.1c0.8,0.6,1.5,1.6,2,2.9l4.5,11.7c0.3,0.9,0.6,1.5,0.9,1.9c0.3,0.4,0.7,0.4,1.3,0.2
			c0.3-0.1,0.7-0.3,1.1-0.6L196.9,79.2z M186.3,69.9c-0.3,0.5-0.9,1-1.5,1.5c-0.7,0.5-1.4,0.9-2.2,1.3c-0.8,0.4-1.6,0.9-2.4,1.3
			c-0.8,0.5-1.5,1-2,1.5c-0.6,0.5-1,1.2-1.2,1.9c-0.2,0.7-0.1,1.5,0.2,2.5c0.2,0.6,0.6,1.1,1,1.4s0.9,0.5,1.4,0.7
			c0.5,0.1,1,0.1,1.6,0c0.6-0.1,1.1-0.2,1.7-0.5c1.2-0.5,2.2-1,3-1.7c0.7-0.7,1.3-1.4,1.7-2.1c0.4-0.7,0.6-1.4,0.6-2.1
			c0-0.7,0-1.3-0.3-1.8L186.3,69.9z"/>
		<path class="st48" d="M194.9,45.3l9,32.4l-3.9,1.1l-9-32.4L194.9,45.3z"/>
		<path class="st48" d="M209,51.4l0.6,3.2l0.1,0c0.4-1.4,1.3-2.6,2.6-3.4c1.3-0.8,2.8-1.4,4.4-1.7c1.9-0.3,3.5-0.3,5,0.2
			c1.5,0.4,2.8,1.2,3.9,2.2c1.1,1,2,2.2,2.8,3.7c0.7,1.4,1.2,3,1.5,4.7c0.3,1.7,0.3,3.3,0.2,4.9c-0.2,1.6-0.6,3-1.4,4.3
			c-0.7,1.3-1.7,2.4-3,3.3c-1.3,0.9-2.8,1.5-4.6,1.8c-0.6,0.1-1.3,0.2-2,0.2c-0.7,0-1.5-0.1-2.3-0.2c-0.8-0.2-1.5-0.4-2.2-0.8
			c-0.7-0.4-1.4-0.9-1.9-1.5l-0.1,0l2.1,12.3l-3.9,0.7L205.1,52L209,51.4z M224.7,57.4c-0.5-1-1.1-1.9-1.8-2.6
			c-0.7-0.7-1.6-1.3-2.7-1.6c-1-0.3-2.2-0.4-3.4-0.2c-1.3,0.2-2.4,0.7-3.2,1.4c-0.8,0.7-1.5,1.5-1.9,2.5c-0.4,1-0.7,2-0.8,3.1
			c-0.1,1.1,0,2.2,0.2,3.4c0.2,1.2,0.5,2.3,1,3.3c0.5,1,1.1,1.9,1.8,2.7c0.7,0.7,1.6,1.3,2.7,1.6c1,0.3,2.2,0.4,3.6,0.2
			c1.4-0.2,2.5-0.7,3.3-1.4c0.8-0.7,1.4-1.5,1.8-2.5c0.4-1,0.6-2,0.7-3.2c0.1-1.2,0-2.3-0.2-3.5C225.5,59.5,225.2,58.4,224.7,57.4z"
			/>
		<path class="st48" d="M238.1,47.6l0.3,5.1l0.1,0c0.9-2,2-3.5,3.3-4.6c1.4-1,3.1-1.6,5.3-1.6l0.2,4.2c-1.6,0.1-2.9,0.4-4.1,0.9
			c-1.1,0.5-2,1.2-2.6,2.1c-0.6,0.9-1.1,1.9-1.3,3.2c-0.2,1.2-0.3,2.6-0.2,4.2l0.6,10.8l-4,0.2l-1.3-24.3L238.1,47.6z"/>
		<path class="st48" d="M266.9,72.3l0.2-3.9l-0.1,0c-0.9,1.5-2.1,2.5-3.4,3.1c-1.4,0.6-2.9,0.9-4.7,0.8c-1.6-0.1-2.9-0.4-4-0.9
			c-1-0.5-1.9-1.1-2.5-2c-0.6-0.8-1-1.8-1.2-2.9c-0.2-1.1-0.3-2.3-0.2-3.6l0.9-16l4,0.2l-1,16.4c-0.1,1.5,0.3,2.7,1.1,3.6
			c0.8,0.9,2,1.4,3.5,1.5c1.2,0.1,2.3-0.1,3.2-0.4c0.9-0.3,1.7-0.8,2.3-1.5c0.6-0.7,1.1-1.4,1.5-2.3c0.4-0.9,0.6-1.9,0.6-3l0.8-13.7
			l4,0.2l-1.4,24.3L266.9,72.3z M260.2,39.1l-0.3,4.9l-4.2-0.2l0.3-4.9L260.2,39.1z M269,39.6l-0.3,4.9l-4.2-0.2l0.3-4.9L269,39.6z"
			/>
		<path class="st48" d="M276.8,52.5l0.6-3.5l4,0.7l0.6-3.6c0.3-1.9,1.1-3.3,2.4-4.1c1.3-0.8,3-1,5.2-0.7c0.4,0.1,0.8,0.2,1.3,0.3
			c0.5,0.1,0.9,0.3,1.2,0.5l-0.6,3.4c-0.3-0.2-0.7-0.3-1.1-0.4c-0.4-0.1-0.8-0.2-1.1-0.3c-1-0.2-1.7-0.1-2.3,0.2
			c-0.6,0.3-1,0.9-1.1,2l-0.6,3.3l4.6,0.8l-0.6,3.5l-4.6-0.8l-3.5,20.5l-3.9-0.7l3.5-20.5L276.8,52.5z"/>
		<path class="st48" d="M304.4,80l1-3.7l-0.1,0c-1.2,1.2-2.6,2-4,2.3c-1.5,0.3-3.1,0.2-4.8-0.2c-1.5-0.4-2.8-1-3.7-1.7
			c-0.9-0.7-1.6-1.5-2-2.4c-0.4-0.9-0.6-2-0.6-3.1c0-1.1,0.2-2.3,0.6-3.6l4.3-15.4l3.8,1.1L294.6,69c-0.4,1.4-0.3,2.7,0.3,3.8
			c0.6,1.1,1.6,1.8,3.1,2.3c1.2,0.3,2.2,0.4,3.2,0.3c1-0.1,1.8-0.4,2.6-0.9c0.8-0.5,1.4-1.2,1.9-2c0.5-0.8,1-1.7,1.3-2.8l3.7-13.2
			l3.8,1.1L308,81L304.4,80z"/>
		<path class="st48" d="M325.9,61.9l-1.6,3.5l0.1,0c2.7-2,5.7-2.3,9-0.9c1.5,0.6,2.6,1.4,3.4,2.2c0.8,0.8,1.3,1.7,1.6,2.7
			c0.3,1,0.3,2,0.1,3.1c-0.2,1.1-0.6,2.2-1.1,3.5l-6.5,14.6l-3.7-1.6l6.6-15.1c0.6-1.4,0.7-2.6,0.2-3.8c-0.5-1.2-1.4-2-2.8-2.7
			c-1.1-0.5-2.2-0.7-3.1-0.8c-1,0-1.9,0.2-2.7,0.6s-1.6,0.9-2.2,1.7c-0.6,0.7-1.2,1.6-1.6,2.6l-5.5,12.6l-3.7-1.6l9.8-22.3
			L325.9,61.9z"/>
		<path class="st48" d="M347.3,108.5c-2.6,0.7-5.5,0-8.8-2c-1-0.6-1.9-1.3-2.7-2.1c-0.9-0.8-1.6-1.7-2.1-2.7c-0.5-1-0.8-2-0.8-3.1
			c-0.1-1.1,0.2-2.2,0.9-3.4l3.4,2.1c-0.4,0.6-0.5,1.3-0.4,1.9c0.1,0.6,0.3,1.3,0.7,1.9c0.4,0.6,0.8,1.1,1.3,1.6
			c0.5,0.5,1.1,0.9,1.6,1.3c1.1,0.7,2.2,1.1,3.2,1.2c1,0.1,2,0,2.9-0.4c0.9-0.4,1.8-1,2.6-1.8c0.8-0.8,1.6-1.8,2.3-2.9l0.8-1.4
			l-0.1,0c-1.4,0.9-2.9,1.3-4.4,1.2c-1.6-0.1-3-0.6-4.3-1.5c-1.5-1-2.7-2.1-3.5-3.4c-0.8-1.3-1.3-2.6-1.5-4
			c-0.2-1.4-0.1-2.9,0.3-4.4c0.4-1.5,1-3,1.9-4.4c0.8-1.2,1.7-2.4,2.8-3.5c1.1-1.1,2.4-1.9,3.8-2.5c1.4-0.6,2.9-0.8,4.6-0.8
			c1.6,0.1,3.4,0.7,5.1,1.8c1.3,0.8,2.3,1.8,3.1,3.1c0.7,1.3,1.1,2.6,1,4.2l0,0l1.8-3l3.2,2l-11.8,18.9
			C352.2,105.8,349.9,107.8,347.3,108.5z M348.7,96.5c1.1,0,2.1-0.2,3-0.7s1.8-1.1,2.7-1.9c0.8-0.8,1.5-1.7,2.1-2.7
			c0.6-0.9,1-1.9,1.3-2.9c0.3-1,0.5-2,0.5-3c0-1-0.3-1.9-0.8-2.8c-0.5-0.9-1.3-1.7-2.3-2.3c-1.1-0.7-2.2-1.1-3.2-1.1
			c-1-0.1-2,0.1-2.9,0.5c-0.9,0.4-1.8,1-2.6,1.7c-0.8,0.8-1.5,1.6-2.1,2.6c-0.6,0.9-1.1,1.9-1.5,3c-0.4,1-0.6,2.1-0.6,3.1
			c0,1,0.2,2,0.7,3c0.5,0.9,1.2,1.7,2.4,2.4C346.5,96.2,347.6,96.5,348.7,96.5z"/>
		<path class="st48" d="M363,104.9c-0.1,0.7,0,1.4,0.2,2.1c0.2,0.7,0.6,1.3,1.1,1.9c0.5,0.6,1.1,1.2,1.7,1.7c0.5,0.4,1,0.8,1.6,1.2
			c0.6,0.4,1.2,0.6,1.8,0.8c0.6,0.2,1.2,0.2,1.8,0.1c0.6-0.1,1.1-0.5,1.6-1.1c0.7-0.8,0.9-1.7,0.6-2.6c-0.3-0.9-0.7-1.9-1.4-2.9
			c-0.7-1-1.5-2-2.4-3.1c-0.9-1.1-1.6-2.2-2.2-3.3c-0.6-1.1-0.9-2.3-1-3.5c0-1.2,0.4-2.4,1.4-3.6c0.8-0.9,1.7-1.6,2.6-1.9
			c1-0.3,2-0.4,3-0.3c1,0.1,2,0.4,3,0.9c1,0.5,1.9,1.1,2.7,1.7c1.1,0.9,2,1.8,2.7,2.7c0.7,0.9,1.3,1.9,1.6,2.9
			c0.3,1,0.4,2.1,0.1,3.2c-0.2,1.1-0.8,2.2-1.6,3.4l-3.1-2.6c0.5-0.6,0.7-1.3,0.8-1.9c0.1-0.6,0-1.2-0.2-1.8
			c-0.2-0.6-0.5-1.1-0.9-1.7c-0.4-0.5-0.9-1-1.4-1.4c-0.5-0.4-1-0.7-1.5-1c-0.5-0.3-1.1-0.5-1.6-0.7c-0.5-0.1-1.1-0.2-1.5-0.1
			c-0.5,0.1-0.9,0.4-1.3,0.9c-0.4,0.5-0.6,1.1-0.5,1.8c0.1,0.7,0.3,1.3,0.7,2.1c0.4,0.7,0.9,1.4,1.5,2.2c0.6,0.8,1.2,1.5,1.8,2.3
			c0.6,0.8,1.2,1.6,1.8,2.5c0.5,0.9,0.9,1.7,1.2,2.6c0.2,0.9,0.3,1.7,0.1,2.6c-0.2,0.9-0.6,1.8-1.3,2.7c-0.9,1.1-2,1.9-3,2.2
			c-1.1,0.4-2.2,0.5-3.3,0.3c-1.1-0.2-2.3-0.6-3.4-1.2c-1.1-0.6-2.1-1.3-3.1-2.1c-1-0.9-1.9-1.8-2.7-2.8c-0.8-1-1.3-2-1.6-3.1
			c-0.3-1.1-0.4-2.2-0.1-3.4c0.2-1.2,0.8-2.4,1.7-3.6l3.1,2.6C363.4,103.5,363.1,104.2,363,104.9z"/>
		<path class="st48" d="M389.1,137.4c-0.8-0.2-1.6-0.8-2.4-1.7c-0.7-0.8-1.1-1.6-1-2.4c0-0.8,0.5-1.7,1.5-2.6
			c-1.7,0.1-3.3-0.2-4.7-0.9c-1.4-0.7-2.7-1.6-3.9-2.9c-0.7-0.8-1.4-1.7-1.9-2.5c-0.5-0.9-0.8-1.8-0.9-2.7c-0.1-0.9,0-1.8,0.4-2.7
			c0.3-0.9,1-1.8,1.9-2.6c1-0.9,2-1.5,3-1.8c1-0.3,1.9-0.3,2.8-0.1c0.9,0.2,1.8,0.6,2.7,1.1c0.9,0.5,1.7,1.1,2.6,1.7
			c0.9,0.7,1.7,1.3,2.5,2c0.8,0.6,1.5,1.2,2.1,1.6c0.7,0.4,1.3,0.6,1.9,0.7c0.6,0.1,1.2-0.2,1.7-0.7c0.6-0.6,1-1.2,1.2-1.8
			c0.2-0.6,0.2-1.2,0-1.8c-0.1-0.6-0.4-1.1-0.8-1.7c-0.4-0.5-0.8-1-1.2-1.5c-1.2-1.2-2.3-2.1-3.6-2.4c-1.2-0.4-2.5,0-3.9,1.1
			l-2.7-2.9c1.1-1,2.3-1.6,3.4-1.9c1.1-0.3,2.3-0.3,3.4-0.1c1.1,0.3,2.2,0.7,3.2,1.4c1,0.7,2,1.5,3,2.6c0.7,0.8,1.4,1.7,2.1,2.6
			c0.6,0.9,1.1,1.8,1.3,2.8c0.2,1,0.2,2-0.1,2.9c-0.3,1-0.9,2-2,2.9l-9.2,8.5c-0.7,0.6-1.2,1.1-1.4,1.5c-0.2,0.4-0.2,0.8,0.3,1.3
			c0.2,0.3,0.6,0.5,1,0.8L389.1,137.4z M393.8,124.2c-0.6-0.1-1.3-0.4-1.9-0.9c-0.7-0.5-1.4-1-2.1-1.6c-0.7-0.6-1.4-1.2-2.1-1.7
			c-0.7-0.6-1.4-1-2.2-1.3c-0.7-0.3-1.4-0.4-2.2-0.4c-0.7,0.1-1.5,0.4-2.2,1.1c-0.5,0.4-0.8,0.9-0.9,1.4c-0.2,0.5-0.2,1-0.1,1.5
			c0.1,0.5,0.3,1,0.6,1.5c0.3,0.5,0.7,1,1.1,1.4c0.9,1,1.8,1.7,2.7,2.1c0.9,0.4,1.8,0.7,2.6,0.8c0.8,0.1,1.5,0,2.2-0.2
			c0.7-0.2,1.2-0.5,1.6-0.9L393.8,124.2z"/>
		<path class="st48" d="M413.3,129.1l-3,1.9l0.1,0.1c3.3,0,5.9,1.5,7.7,4.4c0.8,1.3,1.3,2.6,1.4,4c0.1,1.4-0.3,2.7-1.3,3.9
			c1.5,0,3,0.3,4.3,1.1c1.3,0.7,2.4,1.8,3.3,3.1c0.7,1,1.1,2,1.5,3c0.3,1,0.4,1.9,0.3,2.8c-0.1,0.9-0.4,1.8-0.9,2.6
			c-0.5,0.8-1.3,1.6-2.4,2.2l-15,9.7l-2.2-3.4l13.4-8.6c0.6-0.4,1.2-0.8,1.7-1.3c0.5-0.5,0.8-1,1.1-1.5c0.2-0.6,0.3-1.2,0.2-1.8
			c-0.1-0.7-0.4-1.4-0.9-2.2c-1.1-1.7-2.4-2.7-3.9-3c-1.6-0.3-3.1,0-4.7,1l-12.7,8.2l-2.2-3.4l13.4-8.6c0.7-0.4,1.2-0.9,1.7-1.3
			c0.5-0.5,0.8-1,1-1.5c0.2-0.6,0.3-1.1,0.2-1.8c-0.1-0.6-0.4-1.3-0.9-2.1c-0.6-1-1.4-1.7-2.2-2.1c-0.8-0.4-1.7-0.7-2.5-0.8
			c-0.8-0.1-1.6,0-2.3,0.2c-0.7,0.2-1.3,0.4-1.7,0.7l-12.7,8.2l-2.2-3.4l20.5-13.2L413.3,129.1z"/>
		<path class="st48" d="M437.2,172l-3.2,1.4l-2-4.4l-13.8,6.2c-0.4,0.2-0.8,0.4-1,0.6c-0.2,0.2-0.4,0.4-0.4,0.7
			c-0.1,0.3,0,0.6,0.1,1c0.1,0.4,0.3,0.8,0.6,1.4l0.8,1.7L415,182l-1.3-2.8c-0.4-0.9-0.7-1.8-0.9-2.5c-0.2-0.7-0.2-1.4,0-1.9
			c0.2-0.6,0.5-1.1,1-1.6c0.5-0.5,1.3-1,2.4-1.4l14.1-6.4l-1.7-3.8l3.2-1.5l1.7,3.8l6.6-3l1.6,3.6l-6.6,3L437.2,172z"/>
	</g>
	<g>
		<path class="st48" d="M101,187c8-19,19.7-36.4,34.7-51.4c30.5-30.5,71.2-47.4,114.4-47.4s83.8,16.8,114.4,47.4
			c15,15,26.7,32.4,34.7,51.4h6.1c-8.3-20.5-20.7-39.3-36.8-55.3c-31.6-31.6-73.6-49-118.3-49s-86.7,17.4-118.3,49
			c-16.1,16.1-28.5,34.9-36.8,55.3H101z"/>
		<path class="st48" d="M401.3,307.4c-8,21.1-20.5,40.5-36.9,56.9c-30.5,30.5-71.2,47.4-114.4,47.4s-83.8-16.8-114.4-47.4
			c-16.4-16.4-28.9-35.8-36.9-56.9h-6c8.2,22.6,21.4,43.4,38.9,60.9c31.6,31.6,73.6,49,118.3,49s86.7-17.4,118.3-49
			c17.5-17.5,30.7-38.3,38.9-60.9H401.3z"/>
	</g>
	<g>
		<path class="st48" d="M77.6,222.3l4.5,42.5h0.2l22.6-42.5h18l-12.4,58.8H98.4l10.7-46.7H109l-24.9,46.7h-9.9l-5.7-46.7h-0.2
			l-8.8,46.7H47.4l12.3-58.8H77.6z"/>
		<path class="st48" d="M157.8,222.3c3,0,5.7,0.3,8.2,0.9c2.5,0.6,4.6,1.5,6.5,2.8c1.8,1.3,3.2,3.1,4.2,5.3c1,2.2,1.5,4.9,1.5,8.1
			c0,3.2-0.6,6.1-1.9,8.7c-1.2,2.6-2.9,4.7-5,6.5c-2.1,1.8-4.5,3.1-7.3,4c-2.7,0.9-5.7,1.4-8.7,1.4h-16l-4.4,21.1H122l12.2-58.8
			H157.8z M154.6,249.9c3.3,0,5.9-0.8,7.8-2.5c1.9-1.7,2.8-4.3,2.8-7.8c0-1.5-0.3-2.7-0.8-3.7c-0.5-1-1.2-1.7-2.1-2.2
			c-0.9-0.5-1.9-0.9-2.9-1.1c-1.1-0.2-2.2-0.3-3.3-0.3h-11l-3.6,17.6H154.6z"/>
		<path class="st48" d="M212.7,222.3l9.8,58.8h-12.8l-1.9-13.1h-22l-7.4,13.1h-13.6l34.6-58.8H212.7z M206.6,258.3l-2.9-23.4h-0.2
			l-12.7,23.4H206.6z"/>
		<path class="st48" d="M275.8,222.3l16,41.8h0.2l8.4-41.8h11.9l-12.4,58.8h-12.9l-16.1-41.2h-0.2l-8.4,41.2h-12l12.3-58.8H275.8z"
			/>
		<path class="st48" d="M351.4,222.3c2.6-0.1,5,0.2,7.2,0.7c2.2,0.5,4,1.4,5.6,2.6c1.5,1.2,2.7,2.8,3.5,4.8c0.8,2,1.2,4.4,1.2,7.2
			c0,2-0.3,3.9-1,5.7c-0.7,1.8-1.6,3.4-2.8,4.8c-1.2,1.4-2.6,2.6-4.3,3.5c-1.6,0.9-3.5,1.5-5.4,1.8v0.2c2.4,0.8,4,2.1,4.9,4
			c0.8,1.9,1.2,4,1.2,6.4c0,1.3-0.1,2.9-0.2,4.7c-0.1,1.8-0.2,3.7-0.2,5.5c0,1.3,0.1,2.6,0.2,3.7c0.1,1.2,0.3,2.2,0.7,3.1h-12.6
			c-0.2-0.7-0.3-1.4-0.4-2c-0.1-0.6-0.2-1.3-0.2-1.9c0-2,0.1-4,0.3-6c0.2-2,0.3-4,0.3-6c0-1.4-0.2-2.6-0.6-3.5
			c-0.4-0.9-1-1.6-1.7-2.2c-0.7-0.5-1.6-0.9-2.7-1.1c-1-0.2-2.2-0.3-3.5-0.3h-12.2l-4.9,23h-12.8l12.3-58.8H351.4z M342.7,248.9
			c1.8,0,3.4-0.2,5-0.5c1.6-0.4,3-0.9,4.2-1.6c1.2-0.7,2.2-1.7,3-2.9c0.7-1.2,1.1-2.6,1.1-4.2c0-1.6-0.3-2.9-0.8-3.8
			c-0.5-1-1.2-1.7-2.1-2.2c-0.9-0.5-1.9-0.8-3-1c-1.2-0.2-2.4-0.2-3.6-0.2h-12.3l-3.5,16.5H342.7z"/>
		<path class="st48" d="M412.2,281.1l-1.5-42h-0.2l-18.3,42h-13l-4-58.8h12.9l0.8,43h0.2l18.6-43h12.3l1.5,42.9h0.2l17.9-42.9h12.9
			L425,281.1H412.2z"/>
	</g>
	<g>
		<g>
			<path class="st48" d="M87.3,325.1c-2.5,9-4.4,18.1-6,27.3c0,0,0,0.1,0.1,0.1c5-3.3,10-6.6,15.1-9.8c0.9,1.6,1.4,2.4,2.4,3.9
				c-6.1,4.2-12.2,8.5-18.3,12.7c-1.2-2.1-1.8-3.1-3-5.2c1.5-9.3,3.4-18.4,5.8-27.5c0,0,0-0.1,0-0.1c-5.2,2.5-10.4,5.1-15.7,7.6
				c-0.9-2-1.3-3-2.1-5.1c6.6-3,13.1-5.9,19.7-8.9C86,322.2,86.4,323.2,87.3,325.1z"/>
			<path class="st48" d="M93.5,358.7c1.1-0.1,2.3,0,3.6,0.5c1.2,0.5,2.5,1.2,3.8,2.3c1.3,1,2.5,2.4,3.8,4c1.3,1.7,2.2,3.3,2.9,4.8
				c0.7,1.5,1,3,1.2,4.4c0.1,1.4,0,2.7-0.4,3.8c-0.4,1.2-1,2.2-1.9,3.1c-0.9,0.9-1.9,1.5-3,1.8c-1.1,0.3-2.3,0.3-3.6-0.1
				c-1.3-0.4-2.6-1.1-4-2.1c-1.4-1.1-2.8-2.5-4.1-4.4c-1.3-1.8-2.4-3.6-3-5.4c-0.7-1.7-1-3.3-1.1-4.8c-0.1-1.5,0.2-2.8,0.7-3.9
				c0.5-1.1,1.2-2,2.2-2.7C91.3,359.2,92.3,358.8,93.5,358.7z M91.3,366.2c-0.3,0.9-0.5,1.8-0.4,2.8c0.1,1,0.3,2,0.7,3.1
				c0.4,1.1,1,2.1,1.7,3.1c0.7,1,1.5,1.8,2.4,2.5c0.9,0.7,1.7,1.1,2.6,1.4c0.9,0.3,1.7,0.3,2.6,0.1c0.8-0.2,1.6-0.6,2.4-1.3
				c0.7-0.7,1.2-1.5,1.5-2.4c0.3-0.9,0.4-1.8,0.3-2.8c-0.1-1-0.3-1.9-0.7-2.9c-0.4-1-1-1.9-1.6-2.8c-0.7-0.9-1.4-1.7-2.2-2.3
				c-0.8-0.7-1.6-1.1-2.5-1.4c-0.9-0.3-1.7-0.4-2.6-0.3c-0.9,0.1-1.7,0.5-2.4,1.1C92.3,364.6,91.7,365.4,91.3,366.2z"/>
			<path class="st48" d="M118.2,382.1c-1,1.1-1.4,1.6-2.4,2.7c0,0,0,0,0.1,0.1c1.6-0.3,3.2-0.1,4.7,0.4c1.5,0.6,3,1.6,4.6,3.2
				c-0.7,0.9-1.1,1.4-1.9,2.3c-1.2-1.2-2.4-2.1-3.4-2.7c-1-0.6-2-1-2.9-1.1c-0.9-0.1-1.8,0.1-2.5,0.4c-0.8,0.4-1.6,1-2.3,1.8
				c-2,2.2-3,3.4-5,5.6c-1.3-1.4-1.9-2-3.1-3.4c3.8-4.1,7.7-8.2,11.5-12.3C116.5,380.4,117.1,380.9,118.2,382.1z"/>
			<path class="st48" d="M131.1,416.8c0.5-0.8,0.8-1.2,1.3-2c0,0,0,0-0.1-0.1c-1.1,0.4-2.4,0.3-3.9-0.4c-1.5-0.6-2.9-1.6-4.4-2.8
				c-1.6-1.4-2.9-2.8-3.8-4.2c-0.9-1.4-1.5-2.9-1.7-4.2c-0.3-1.4-0.2-2.6,0.1-3.8c0.3-1.2,0.8-2.3,1.6-3.2c0.8-0.9,1.7-1.7,2.7-2.2
				c1-0.5,2.1-0.8,3.4-0.7c1.2,0,2.5,0.3,3.9,0.9c1.4,0.6,2.8,1.5,4.2,2.7c0.5,0.4,1,0.9,1.5,1.4c0.5,0.5,1,1.1,1.5,1.8
				c0.5,0.6,0.9,1.3,1.2,2c0.3,0.7,0.5,1.4,0.6,2.1c0,0,0,0,0.1,0.1c1.9-3,2.9-4.6,4.8-7.6c1.3,0.9,1.9,1.4,3.2,2.3
				c-4.2,6.9-8.3,13.8-12.5,20.8C133.2,418.4,132.5,417.9,131.1,416.8z M122.4,401.5c-0.2,0.8-0.3,1.7-0.1,2.6
				c0.1,0.9,0.5,1.9,1.1,2.9c0.6,1,1.4,1.9,2.5,2.9c1.2,1,2.2,1.6,3.3,1.9c1,0.3,2,0.4,2.8,0.3c0.8-0.1,1.6-0.4,2.3-0.9
				c0.7-0.5,1.2-1.1,1.6-1.8c0.5-0.7,0.8-1.5,1-2.4c0.2-0.9,0.2-1.7,0-2.6c-0.2-0.9-0.6-1.8-1.1-2.8c-0.6-0.9-1.4-1.9-2.5-2.8
				c-1.1-0.9-2.1-1.5-3.1-1.8c-1-0.3-1.9-0.5-2.7-0.4c-0.8,0.1-1.6,0.4-2.2,0.8c-0.7,0.5-1.3,1-1.8,1.7
				C123,400,122.6,400.7,122.4,401.5z"/>
			<path class="st48" d="M151.9,410c-0.7,1.3-1.1,2-1.8,3.3c0,0,0,0,0.1,0.1c1.5-0.7,3-1,4.6-0.9c1.5,0.1,3.2,0.8,5.1,1.9
				c-0.5,1.1-0.8,1.7-1.3,2.8c-1.4-0.8-2.7-1.4-3.8-1.7c-1.1-0.3-2.1-0.4-3-0.2c-0.9,0.2-1.7,0.6-2.4,1.2c-0.7,0.6-1.3,1.4-1.8,2.4
				c-1.5,2.8-2.2,4.2-3.7,7c-1.5-1-2.2-1.5-3.7-2.5c2.9-5.1,5.7-10.3,8.6-15.4C150,408.8,150.6,409.2,151.9,410z"/>
			<path class="st48" d="M168.5,411.7c-1.5,3.5-2.2,5.3-3.7,8.8c0,0,0.1,0,0.1,0c0.5-0.4,1.1-0.6,1.7-0.7c0.7-0.1,1.3-0.1,2.1,0
				c0.7,0.1,1.4,0.2,2.2,0.5c0.7,0.2,1.4,0.5,2.1,0.8c1.4,0.7,2.6,1.4,3.4,2.1c0.9,0.7,1.5,1.5,1.9,2.3c0.4,0.8,0.6,1.7,0.6,2.5
				c0,0.9-0.2,1.8-0.5,2.7c-1.5,4.6-2.2,6.9-3.7,11.4c-1.6-0.7-2.4-1-4-1.7c1.6-4.7,2.4-7,4.1-11.7c0.4-1.1,0.3-2.1-0.3-3.1
				c-0.6-1-1.6-1.8-3-2.4c-1.1-0.5-2.1-0.9-3-1c-0.9-0.1-1.7-0.1-2.5,0.1c-0.7,0.2-1.4,0.5-1.9,1c-0.5,0.5-1,1.1-1.3,1.9
				c-1.6,3.7-2.4,5.6-4,9.4c-1.5-0.8-2.3-1.2-3.8-2.1c3.4-7.5,6.8-15.1,10.2-22.6C166.5,410.6,167.1,411,168.5,411.7z"/>
			<path class="st48" d="M198.6,449.3c-2.1,0.5-4.6,0.3-7.4-0.6c-2-0.6-3.7-1.5-5-2.4c-1.3-1-2.4-2.1-3.1-3.2
				c-0.7-1.2-1.2-2.4-1.3-3.8c-0.1-1.3-0.1-2.7,0.3-4c0.4-1.3,1-2.5,1.9-3.4c0.9-0.9,1.9-1.6,3.1-2.1c1.2-0.5,2.5-0.7,3.9-0.7
				c1.4,0,2.9,0.2,4.5,0.7c2,0.6,3.6,1.5,4.9,2.5c1.2,1.1,2.1,2.2,2.8,3.5c0.6,1.3,1,2.6,1.1,3.9c0.1,1.3,0,2.5-0.2,3.6
				c-6.1-1.7-12-3.5-18-5.5c-0.2,0.8-0.3,1.6-0.2,2.4c0.1,0.8,0.4,1.6,0.9,2.3c0.5,0.8,1.2,1.5,2.1,2.1c0.9,0.7,2,1.2,3.4,1.6
				c1.7,0.5,3.2,0.7,4.4,0.4c1.2-0.3,2.1-1,2.7-2.1c1.6,0.4,2.4,0.7,4,1.1C202.2,447.5,200.7,448.8,198.6,449.3z M200,437.2
				c-0.2-0.7-0.6-1.4-1.1-2c-0.5-0.6-1.1-1.2-1.8-1.7c-0.7-0.5-1.6-0.9-2.5-1.2c-1-0.3-1.9-0.5-2.8-0.5c-0.9,0-1.6,0.1-2.3,0.4
				c-0.7,0.3-1.3,0.6-1.8,1.1c-0.5,0.5-0.9,1.1-1.1,1.7c5.4,1.9,8.1,2.8,13.6,4.3C200.3,438.7,200.2,438,200,437.2z"/>
			<path class="st48" d="M210.4,430.7c0.2-1.5,0.3-2.2,0.6-3.7c1.5,0.3,2.2,0.5,3.7,0.8c-0.2,1.5-0.3,2.3-0.5,3.8
				C212.6,431.2,211.9,431,210.4,430.7z M213.7,434.9c-0.8,6.2-1.6,12.5-2.5,18.7c-1.7-0.4-2.5-0.5-4.2-0.9
				c0.9-6.2,1.9-12.4,2.8-18.6C211.4,434.4,212.2,434.6,213.7,434.9z"/>
			<path class="st48" d="M223.3,436.5c-0.1,1.2-0.1,1.8-0.2,3c0,0,0.1,0,0.1,0c1.8-2.1,4.4-2.9,7.9-2.5c1.5,0.2,2.8,0.4,3.9,0.9
				c1,0.4,1.9,1,2.5,1.6c0.6,0.7,1.1,1.4,1.4,2.3c0.3,0.9,0.4,1.8,0.4,2.9c0,5.1,0,7.6,0,12.7c-1.7-0.1-2.6-0.2-4.3-0.3
				c0.1-5.2,0.1-7.8,0.2-13c0-1.2-0.4-2.2-1.3-2.9c-0.9-0.8-2-1.2-3.5-1.4c-1.2-0.1-2.2-0.1-3.1,0.1c-0.9,0.2-1.7,0.5-2.3,1
				c-0.6,0.5-1.1,1-1.5,1.7c-0.4,0.7-0.6,1.4-0.6,2.3c-0.3,4.3-0.5,6.4-0.8,10.7c-1.7-0.3-2.5-0.4-4.2-0.7
				c0.6-6.3,1.3-12.6,1.9-18.9C221.1,436.2,221.9,436.3,223.3,436.5z"/>
			<path class="st48" d="M258.4,445.8c0.1,1.2,0.2,1.8,0.3,3c-5.6,0.2-8.4,0.2-14,0c0-1.2-0.1-1.8-0.1-3
				C250.1,446,252.9,446,258.4,445.8z"/>
			<path class="st48" d="M293.4,453.8c-4.6-6.9-8.9-14-13.1-21.1c0,0-0.1,0-0.1,0c-0.9,8-2,15.9-3.3,23.8c-2,0.2-3,0.3-5,0.5
				c-4.4-8.7-8.4-17.4-12.3-26.3c1.7-0.1,2.6-0.2,4.3-0.3c3.2,7.4,6.5,14.6,9.9,21.8c0,0,0.1,0,0.1,0c1.3-7.8,2.3-15.6,3.2-23.4
				c1.8-0.3,2.7-0.4,4.5-0.8c4.1,7.1,8.4,14,12.9,20.9c0,0,0.1,0,0.1,0c0.2-8,0.3-15.9,0.1-23.8c1.6-0.4,2.4-0.7,4-1.1
				c0.2,9.7,0,19.3-0.5,28.9C296.3,453.2,295.4,453.4,293.4,453.8z"/>
			<path class="st48" d="M325.8,442.9c-1.4,1.8-3.5,3.2-6.3,4.2c-2,0.7-3.8,1-5.5,1c-1.7,0-3.1-0.3-4.4-0.9
				c-1.3-0.6-2.4-1.4-3.3-2.5c-0.9-1.1-1.7-2.4-2.2-3.8c-0.5-1.4-0.7-2.9-0.5-4.3c0.1-1.4,0.5-2.6,1.2-3.8c0.7-1.2,1.5-2.2,2.7-3.2
				c1.1-0.9,2.4-1.7,4-2.2c2-0.7,3.8-1,5.4-0.8c1.6,0.2,3.1,0.6,4.3,1.4c1.3,0.7,2.4,1.7,3.2,2.8c0.9,1.1,1.6,2.3,2,3.4
				c-5.9,2.4-11.7,4.5-17.8,6.5c0.3,0.8,0.7,1.6,1.2,2.3c0.6,0.7,1.2,1.2,2.1,1.6c0.8,0.4,1.8,0.6,2.9,0.6c1.1,0,2.3-0.2,3.7-0.7
				c1.7-0.6,3-1.4,3.8-2.4c0.8-1,1.1-2.2,0.9-3.6c1.6-0.6,2.3-0.9,3.9-1.6C327.6,439,327.1,441.1,325.8,442.9z M319.6,431.2
				c-0.6-0.5-1.3-0.9-2.1-1.2c-0.8-0.3-1.6-0.4-2.5-0.4c-0.9,0-1.8,0.2-2.7,0.5c-1,0.3-1.8,0.8-2.5,1.3c-0.7,0.5-1.2,1.2-1.6,1.8
				c-0.4,0.7-0.6,1.4-0.7,2.2c-0.1,0.8,0,1.5,0.2,2.3c5.5-1.7,8.2-2.6,13.5-4.8C320.7,432.3,320.2,431.7,319.6,431.2z"/>
			<path class="st48" d="M335.4,435.2c0.6,0.3,1.3,0.4,2,0.4c0.7,0,1.5-0.1,2.3-0.4c0.8-0.2,1.6-0.6,2.4-1c0.6-0.3,1.2-0.7,1.8-1.1
				c0.6-0.4,1.2-0.9,1.6-1.3c0.4-0.5,0.7-1,0.9-1.6c0.1-0.6,0.1-1.1-0.3-1.7c-0.4-0.8-1.1-1.1-2.1-1.1c-1,0-2.1,0.2-3.3,0.5
				c-1.2,0.3-2.6,0.7-4,1.2c-1.4,0.4-2.8,0.7-4.1,0.9c-1.3,0.2-2.5,0.1-3.5-0.3c-1.1-0.3-1.9-1.1-2.5-2.3c-0.4-0.9-0.6-1.8-0.4-2.7
				c0.2-0.9,0.6-1.7,1.1-2.5c0.6-0.8,1.3-1.5,2.1-2.2c0.9-0.7,1.8-1.2,2.7-1.7c1.2-0.6,2.4-1.1,3.5-1.5c1.1-0.4,2.2-0.6,3.2-0.6
				c1,0,2,0.2,2.9,0.7c0.9,0.5,1.7,1.2,2.5,2.2c-1.4,0.8-2.1,1.2-3.6,2c-0.4-0.5-0.8-0.9-1.4-1.1c-0.5-0.2-1.1-0.3-1.7-0.3
				c-0.6,0-1.2,0.1-1.9,0.3c-0.6,0.2-1.2,0.4-1.8,0.7c-0.5,0.3-1.1,0.6-1.6,0.9c-0.5,0.3-1,0.7-1.3,1.1c-0.4,0.4-0.6,0.8-0.7,1.2
				c-0.1,0.4-0.1,0.9,0.2,1.4c0.3,0.5,0.7,0.9,1.3,1c0.6,0.1,1.3,0.1,2.2,0c0.8-0.1,1.7-0.3,2.6-0.6c1-0.3,1.9-0.6,2.9-0.9
				c1-0.3,2-0.6,3-0.9c1-0.2,2-0.4,2.9-0.4c0.9,0,1.7,0.2,2.5,0.5c0.8,0.3,1.4,0.9,1.9,1.8c0.7,1.1,0.9,2.1,0.8,3.2
				c-0.1,1-0.6,2.1-1.3,3c-0.7,1-1.6,1.9-2.7,2.7c-1.1,0.8-2.3,1.5-3.5,2.1c-1.3,0.7-2.7,1.2-4,1.5c-1.3,0.4-2.6,0.5-3.7,0.4
				c-1.2-0.1-2.2-0.4-3.2-0.9c-0.9-0.6-1.7-1.4-2.3-2.5c1.6-0.7,2.3-1,3.9-1.7C334.3,434.5,334.8,434.9,335.4,435.2z"/>
			<path class="st48" d="M354.8,405.3c0.7,1,1.1,1.5,1.8,2.5c-1.6,1.1-2.4,1.7-4.1,2.8c2.9,4.3,4.4,6.5,7.3,10.8
				c0.2,0.3,0.4,0.6,0.7,0.7c0.2,0.2,0.5,0.2,0.7,0.2c0.3,0,0.6-0.1,1-0.3c0.4-0.2,0.9-0.5,1.4-0.9c0.7-0.5,1-0.7,1.7-1.1
				c0.7,1,1.1,1.5,1.8,2.5c-1.1,0.8-1.7,1.2-2.8,1.9c-1,0.6-1.8,1.1-2.6,1.5c-0.8,0.3-1.4,0.5-2,0.5c-0.6,0-1.2-0.2-1.7-0.6
				c-0.5-0.4-1.1-1-1.6-1.8c-2.9-4.5-4.4-6.7-7.3-11.2c-1.4,0.9-2.1,1.3-3.6,2.2c-0.6-1-1-1.5-1.6-2.6c1.4-0.9,2.1-1.3,3.5-2.2
				c-1.4-2.1-2-3.2-3.4-5.3c1.3-0.8,2-1.3,3.3-2.1c1.4,2.1,2.1,3.1,3.5,5.2C352.3,407,353.2,406.5,354.8,405.3z"/>
			<path class="st48" d="M358.2,406.6c-0.7-1-1.1-1.5-1.8-2.5c1.3-1,2-1.5,3.3-2.5c-0.8-1-1.1-1.5-1.9-2.5c-1-1.4-1.4-2.7-1-4.1
				c0.3-1.4,1.3-2.7,3-4.1c0.3-0.2,0.6-0.5,1-0.8c0.4-0.3,0.8-0.5,1.1-0.6c0.8,0.9,1.2,1.4,1.9,2.3c-0.3,0.1-0.7,0.3-1,0.6
				c-0.3,0.2-0.6,0.5-0.9,0.7c-0.7,0.6-1.2,1.2-1.4,1.8c-0.2,0.6,0,1.2,0.5,2c0.7,0.9,1.1,1.4,1.8,2.3c1.5-1.2,2.2-1.8,3.7-3
				c0.8,0.9,1.2,1.4,2,2.4c-1.5,1.3-2.3,1.9-3.8,3.1c3.7,4.7,7.5,9.4,11.2,14.1c-1.4,1.1-2.1,1.7-3.6,2.7
				c-3.6-4.8-7.3-9.6-10.9-14.3C360.2,405.1,359.5,405.6,358.2,406.6z"/>
			<path class="st48" d="M401,392.4c-0.3,0.8-0.9,1.8-1.9,2.8c-0.8,0.9-1.7,1.4-2.5,1.5c-0.9,0.2-1.7-0.2-2.5-1
				c-0.1,1.7-0.5,3.3-1.3,4.9c-0.8,1.5-2,3-3.4,4.3c-0.9,0.9-1.9,1.6-2.9,2.2c-1,0.6-1.9,1-2.9,1.2c-0.9,0.2-1.8,0.1-2.7-0.1
				c-0.9-0.3-1.6-0.8-2.3-1.6c-0.8-0.9-1.2-1.8-1.3-2.7c-0.1-0.9,0-1.8,0.3-2.7c0.3-0.9,0.8-1.8,1.4-2.7c0.6-0.9,1.3-1.8,2-2.7
				c0.7-0.9,1.5-1.8,2.2-2.7c0.7-0.8,1.3-1.6,1.7-2.3c0.5-0.7,0.7-1.4,0.8-1.9c0.1-0.6-0.1-1.1-0.6-1.6c-0.5-0.5-1.1-0.9-1.7-0.9
				c-0.6-0.1-1.1,0-1.7,0.2c-0.6,0.2-1.1,0.5-1.6,1c-0.5,0.4-1,0.9-1.5,1.3c-1.3,1.2-2.2,2.5-2.6,3.7c-0.5,1.2-0.3,2.4,0.7,3.7
				c-1.3,1.1-1.9,1.7-3.2,2.8c-0.8-1-1.3-2.1-1.4-3.2c-0.1-1.1,0-2.1,0.3-3.2c0.4-1.1,0.9-2.1,1.6-3.2c0.7-1,1.6-2.1,2.6-3.1
				c0.8-0.8,1.7-1.6,2.5-2.3c0.9-0.7,1.8-1.3,2.7-1.6c0.9-0.4,1.9-0.5,2.8-0.4c0.9,0.1,1.9,0.6,2.8,1.5c3.2,3,4.8,4.5,8,7.6
				c0.6,0.6,1.1,0.9,1.4,1.1c0.4,0.2,0.8,0,1.3-0.5c0.3-0.3,0.5-0.7,0.8-1.2C399.8,391.3,400.2,391.7,401,392.4z M388.1,390.2
				c-0.1,0.6-0.5,1.3-1,2.1c-0.5,0.7-1.1,1.5-1.7,2.3c-0.6,0.8-1.3,1.5-1.9,2.3c-0.6,0.8-1.2,1.5-1.6,2.3c-0.4,0.7-0.6,1.5-0.6,2.2
				c0,0.7,0.2,1.4,0.8,2c0.4,0.4,0.8,0.7,1.3,0.8c0.5,0.1,1,0.1,1.5-0.1c0.5-0.1,1-0.4,1.6-0.7c0.5-0.4,1.1-0.8,1.6-1.3
				c1.1-1,1.9-2,2.4-3c0.5-1,0.9-1.9,1-2.7c0.1-0.8,0.1-1.5-0.1-2.2c-0.2-0.6-0.4-1.1-0.8-1.5C389.6,391.7,389.1,391.2,388.1,390.2z
				"/>
			<path class="st48" d="M384.6,366.2c7.5,6.4,15.1,12.8,22.6,19.3c-1.2,1.5-1.8,2.2-3,3.6c-7.4-6.6-14.8-13.1-22.2-19.7
				C383,368.1,383.5,367.5,384.6,366.2z"/>
			<path class="st48" d="M422.5,361.8c-0.1,2.6-1.2,5.3-3.1,8.1c-1.3,2-2.7,3.5-4.2,4.5c-1.5,1.1-2.9,1.7-4.4,2
				c-1.5,0.3-2.9,0.2-4.4-0.2c-1.4-0.4-2.8-1.1-4.1-2.1c-1.3-1-2.2-2.2-2.9-3.6c-0.7-1.4-1.1-2.8-1.2-4.3c-0.1-1.5,0-3.1,0.5-4.6
				c0.4-1.6,1.2-3.1,2.2-4.6c1.3-2,2.7-3.4,4.2-4.3c1.5-0.9,3-1.5,4.6-1.6c1.5-0.2,3,0,4.5,0.4c1.4,0.4,2.7,1,3.8,1.8
				c-3.6,6.1-7.5,12-11.7,17.7c0.7,0.6,1.5,1,2.4,1.3c0.9,0.3,1.8,0.3,2.7,0.1c1-0.2,1.9-0.7,2.9-1.4s1.9-1.7,2.8-3
				c1.1-1.7,1.8-3.3,1.9-4.8c0.1-1.5-0.3-2.8-1.3-3.9c1-1.6,1.5-2.4,2.5-4C421.9,357,422.7,359.2,422.5,361.8z M410.3,355.1
				c-0.8-0.1-1.7,0-2.5,0.3c-0.8,0.3-1.6,0.7-2.4,1.3c-0.8,0.6-1.5,1.4-2.1,2.3c-0.6,1-1.1,1.9-1.4,2.9c-0.3,0.9-0.4,1.9-0.3,2.7
				c0.1,0.9,0.3,1.7,0.6,2.5c0.4,0.8,0.8,1.4,1.5,2c3.2-4.3,6.2-8.7,9-13.3C411.9,355.4,411.1,355.2,410.3,355.1z"/>
			<path class="st48" d="M412.1,339.1c1.2,0.7,1.8,1,3,1.7c0,0,0-0.1,0.1-0.1c-1.4-3-1.2-6.3,0.6-10.1c0.8-1.7,1.6-3,2.5-4
				c0.9-1,1.8-1.7,2.7-2.1s1.9-0.6,2.9-0.5c1,0.1,2.1,0.4,3.2,0.9c5.3,2.4,7.9,3.6,13.2,5.9c-0.8,1.9-1.2,2.9-2.1,4.8
				c-5.4-2.6-8.1-3.9-13.4-6.4c-1.2-0.6-2.4-0.6-3.6,0c-1.1,0.6-2.1,1.7-2.9,3.4c-0.6,1.3-1,2.5-1.2,3.6c-0.2,1.1-0.1,2.1,0.1,3
				c0.2,0.9,0.6,1.7,1.2,2.5c0.6,0.7,1.3,1.3,2.1,1.8c4.3,2.4,6.5,3.6,10.8,6.1c-1,1.8-1.4,2.7-2.4,4.4c-6.3-3.7-12.5-7.4-18.8-11.1
				C410.9,341.3,411.3,340.6,412.1,339.1z"/>
		</g>
	</g>
	<g>
		<path class="st48" d="M250,483c-31.4,0-62-6.2-90.7-18.3c-27.7-11.7-52.7-28.5-74-49.9s-38.2-46.3-49.9-74
			C23.2,312,17,281.4,17,250s6.2-62,18.3-90.7c11.7-27.7,28.5-52.7,49.9-74c21.4-21.4,46.3-38.2,74-49.9C188,23.2,218.6,17,250,17
			c31.4,0,62,6.2,90.7,18.3c27.7,11.7,52.7,28.5,74,49.9c21.4,21.4,38.2,46.3,49.9,74C476.8,188,483,218.6,483,250
			s-6.2,62-18.3,90.7c-11.7,27.7-28.5,52.7-49.9,74s-46.3,38.2-74,49.9C312,476.8,281.4,483,250,483z M250,22.6
			c-30.7,0-60.5,6-88.5,17.9C134.4,52,110.1,68.4,89.2,89.2c-20.9,20.9-37.3,45.2-48.7,72.3c-11.9,28-17.9,57.8-17.9,88.5
			s6,60.5,17.9,88.5c11.5,27.1,27.8,51.4,48.7,72.3s45.2,37.3,72.3,48.7c28,11.9,57.8,17.9,88.5,17.9s60.5-6,88.5-17.9
			c27.1-11.5,51.4-27.8,72.3-48.7s37.3-45.2,48.7-72.3c11.9-28,17.9-57.8,17.9-88.5s-6-60.5-17.9-88.5
			c-11.5-27.1-27.8-51.4-48.7-72.3c-20.9-20.9-45.2-37.3-72.3-48.7C310.5,28.7,280.7,22.6,250,22.6z"/>
	</g>
</g>
</svg>
