<?xml version="1.0" encoding="utf-8"?>
<!-- Generator: Adobe Illustrator 22.1.0, SVG Export Plug-In . SVG Version: 6.00 Build 0)  -->
<svg version="1.0" id="Ebene_1" xmlns="http://www.w3.org/2000/svg" xmlns:xlink="http://www.w3.org/1999/xlink" x="0px" y="0px"
	 viewBox="0 0 500 500" style="enable-background:new 0 0 500 500;" xml:space="preserve">
<style type="text/css">
	.st0{fill:#7F7F7F;}
</style>
<g>
	<path class="st0" d="M496,392.6c0,6.3-1.2,14.5-3.5,24.6s-4.8,18.1-7.3,23.9c-4.9,11.6-19.1,24-42.6,37
		c-21.9,11.9-43.6,17.8-65,17.8c-6.3,0-12.4-0.4-18.3-1.2c-5.9-0.8-12.6-2.3-20.1-4.4s-13-3.8-16.6-5.1c-3.6-1.3-10.1-3.7-19.4-7.2
		c-9.3-3.5-15-5.6-17.1-6.3c-22.8-8.2-43.2-17.8-61.2-29c-29.8-18.4-60.6-43.5-92.4-75.3S75.5,305,57.1,275.2
		c-11.2-17.9-20.8-38.3-29-61.2c-0.7-2.1-2.8-7.8-6.3-17.1s-5.9-15.8-7.2-19.4c-1.3-3.6-3-9.1-5.1-16.6c-2.1-7.5-3.6-14.2-4.4-20.1
		C4.4,134.9,4,128.7,4,122.5c0-21.4,5.9-43.1,17.8-65c13-23.5,25.4-37.7,37-42.6c5.8-2.6,13.8-5,23.9-7.3S101.1,4,107.4,4
		c3.3,0,5.7,0.3,7.3,1c4.2,1.4,10.4,10.2,18.5,26.6c2.6,4.4,6.1,10.7,10.5,18.9c4.4,8.2,8.5,15.5,12.2,22.2s7.3,12.9,10.8,18.7
		c0.7,0.9,2.7,3.8,6.1,8.7c3.4,4.9,5.9,9,7.5,12.4c1.6,3.4,2.4,6.7,2.4,10c0,4.7-3.3,10.5-10,17.5c-6.6,7-13.9,13.4-21.7,19.2
		c-7.8,5.8-15,12-21.7,18.5s-10,11.9-10,16.1c0,2.1,0.6,4.7,1.7,7.9c1.2,3.1,2.2,5.5,3,7.2c0.8,1.6,2.4,4.4,4.9,8.4
		c2.4,4,3.8,6.2,4,6.6c17.7,31.9,38,59.3,60.8,82.1c22.8,22.8,50.2,43.1,82.1,60.8c0.5,0.2,2.7,1.6,6.6,4c4,2.4,6.8,4.1,8.4,4.9
		c1.6,0.8,4,1.8,7.2,3c3.1,1.2,5.8,1.7,7.9,1.7c4.2,0,9.6-3.3,16.1-10c6.5-6.6,12.7-13.9,18.5-21.7c5.8-7.8,12.2-15,19.2-21.7
		c7-6.6,12.8-10,17.5-10c3.3,0,6.6,0.8,10,2.4c3.4,1.6,7.5,4.1,12.4,7.5s7.8,5.4,8.7,6.1c5.8,3.5,12.1,7.1,18.7,10.8
		c6.6,3.7,14,7.8,22.2,12.2c8.2,4.4,14.4,7.9,18.9,10.5c16.3,8.2,25.2,14.3,26.6,18.5C495.7,386.9,496,389.3,496,392.6z"/>
</g>
</svg>
