<?xml version="1.0" encoding="utf-8"?>
<!-- Generator: Adobe Illustrator 22.1.0, SVG Export Plug-In . SVG Version: 6.00 Build 0)  -->
<svg version="1.0" id="Ebene_1" xmlns="http://www.w3.org/2000/svg" xmlns:xlink="http://www.w3.org/1999/xlink" x="0px" y="0px"
	 viewBox="0 0 500 500" style="enable-background:new 0 0 500 500;" xml:space="preserve">
<style type="text/css">
	.st0{fill:none;stroke:#FFFFFF;stroke-width:18;stroke-linecap:round;stroke-linejoin:round;stroke-miterlimit:10;}
	.st1{fill:#434343;}
	.st2{fill:#7F7F7F;}
	.st3{fill:none;stroke:#000000;stroke-width:24;stroke-linecap:round;stroke-linejoin:round;stroke-miterlimit:10;}
	.st4{fill:none;stroke:#000000;stroke-width:24;stroke-linecap:round;stroke-miterlimit:10;}
	.st5{fill:#FFFFFF;stroke:#000000;stroke-width:15;stroke-linecap:round;stroke-linejoin:round;stroke-miterlimit:10;}
	.st6{stroke:#000000;stroke-width:24;stroke-linecap:round;stroke-linejoin:round;stroke-miterlimit:10;}
	.st7{fill:#FFFFFF;stroke:#000000;stroke-width:24;stroke-linecap:round;stroke-linejoin:round;stroke-miterlimit:10;}
	.st8{fill:none;stroke:#000000;stroke-width:15;stroke-linecap:round;stroke-linejoin:round;stroke-miterlimit:10;}
	.st9{fill:none;stroke:#000000;stroke-width:18;stroke-linecap:round;stroke-linejoin:round;stroke-miterlimit:10;}
	.st10{stroke:#000000;stroke-width:18;stroke-linecap:round;stroke-linejoin:round;stroke-miterlimit:10;}
	.st11{clip-path:url(#SVGID_2_);fill:#DBDBDB;}
	.st12{clip-path:url(#SVGID_2_);fill:#7F7F7F;}
	.st13{clip-path:url(#SVGID_4_);}
	.st14{opacity:0.8;clip-path:url(#SVGID_6_);}
	.st15{clip-path:url(#SVGID_8_);fill:#00448D;}
	.st16{clip-path:url(#SVGID_4_);fill:#2E2E2E;}
	.st17{filter:url(#Adobe_OpacityMaskFilter);}
	.st18{clip-path:url(#SVGID_10_);}
	.st19{clip-path:url(#SVGID_10_);mask:url(#SVGID_11_);}
	.st20{opacity:0.75;clip-path:url(#SVGID_15_);fill:#1D1D1B;}
	.st21{clip-path:url(#SVGID_4_);fill:#434343;}
	.st22{filter:url(#Adobe_OpacityMaskFilter_1_);}
	.st23{clip-path:url(#SVGID_17_);}
	.st24{clip-path:url(#SVGID_17_);mask:url(#SVGID_18_);}
	.st25{opacity:0.75;clip-path:url(#SVGID_22_);fill:#1D1D1B;}
	.st26{filter:url(#Adobe_OpacityMaskFilter_2_);}
	.st27{clip-path:url(#SVGID_17_);fill:url(#SVGID_24_);}
	.st28{clip-path:url(#SVGID_17_);mask:url(#SVGID_23_);}
	.st29{clip-path:url(#SVGID_26_);fill:#9C9B9B;}
	.st30{clip-path:url(#SVGID_28_);}
	.st31{opacity:0.8;clip-path:url(#SVGID_30_);}
	.st32{clip-path:url(#SVGID_32_);fill:#00448D;}
	.st33{clip-path:url(#SVGID_28_);fill:#2E2E2E;}
	.st34{filter:url(#Adobe_OpacityMaskFilter_3_);}
	.st35{clip-path:url(#SVGID_34_);}
	.st36{clip-path:url(#SVGID_34_);mask:url(#SVGID_35_);}
	.st37{opacity:0.75;clip-path:url(#SVGID_39_);fill:#1D1D1B;}
	.st38{clip-path:url(#SVGID_28_);fill:#434343;}
	.st39{filter:url(#Adobe_OpacityMaskFilter_4_);}
	.st40{clip-path:url(#SVGID_41_);}
	.st41{clip-path:url(#SVGID_41_);mask:url(#SVGID_42_);}
	.st42{opacity:0.75;clip-path:url(#SVGID_46_);fill:#1D1D1B;}
	.st43{filter:url(#Adobe_OpacityMaskFilter_5_);}
	.st44{clip-path:url(#SVGID_41_);fill:url(#SVGID_48_);}
	.st45{clip-path:url(#SVGID_41_);mask:url(#SVGID_47_);}
	.st46{clip-path:url(#SVGID_50_);fill:#9C9B9B;}
	.st47{fill:#FFFFFF;}
	.st48{fill:#1D1D1B;}
	.st49{fill-rule:evenodd;clip-rule:evenodd;}
	.st50{fill-rule:evenodd;clip-rule:evenodd;fill:#FFFFFF;}
</style>
<g>
	<g>
		<polygon class="st49" points="82,400.9 417.5,400.9 500,353.5 500,146.6 424.5,97.9 76.7,97.9 0,146.4 0,351.8 82,400.9 		"/>
		<path class="st50" d="M250.6,270.1c33.4-3.9,30.7-33.7,30.7-33.7v-45.6l28.9,77.6h19.3l33.4-89.4h-19.6l-23,69.8L297,179h-34.1
			v59.2c0,10.6-10.2,17.1-19.8,17.1c-9.6,0-19.8-6.5-19.8-17.1V179h-85.6v14.6h25.8v74.8h18.9v-74.8h22.6v42.8c0,0-1.6,30,30.6,33.8
			C240.5,270.7,245.7,270.8,250.6,270.1L250.6,270.1z M255.9,196.9V179c-3.5,0-7,0-10.5,0v17.9H255.9L255.9,196.9z M240.8,196.9V179
			c-3.5,0-7,0-10.5,0v17.9l0,0l0,0H240.8L240.8,196.9z"/>
		<polygon class="st50" points="364.4,286 364.4,283 135.6,283 135.6,286 364.4,286 364.4,286 		"/>
		<polygon class="st50" points="392.7,255.5 392.7,309.2 309.1,392.7 190.9,392.7 107.3,309.2 107.3,255.5 0,255.5 0,353.5 
			146.4,500 353.5,500 500,353.5 500,255.5 392.7,255.5 392.7,255.5 		"/>
		<polygon class="st50" points="107.3,244.5 107.3,190.9 190.9,107.3 309.1,107.3 392.7,190.9 392.7,244.5 500,244.5 500,146.4 
			353.5,0 146.4,0 0,146.4 0,244.5 107.3,244.5 107.3,244.5 		"/>
		<path class="st49" d="M220.9,70.5l17-18.5l-13.3,1.9l0,0c0-0.2-0.1-0.4-0.1-0.5c0-17.2,10.7-28.7,23.8-28.7c6.1,0,11.7,2.6,15.9,7
			l0,0l7.6-8.2l10.7,5.2l0,0c-7.7-10.6-20.1-17.4-34.1-17.4c-23.3,0-42.2,18.9-42.2,42.2c0,1.1,0,2,0,2.9l0,0L194.8,58L220.9,70.5
			L220.9,70.5L220.9,70.5z"/>
		<path class="st49" d="M290.5,53.4c0-2.9-0.3-5.7-0.9-8.4l0,0l11.8-1.7l-26-12.5l-17,18.5l13.2-1.7l0,0c0.3,1.8,0.5,3.8,0.5,5.9
			c0,5.2-0.9,9.9-2.7,13.9l0,0l-5-5h-19.6l15.8,15.9l0,0c-3.6,2.5-7.8,3.9-12.3,3.9c-7.4,0-14-3.7-18.4-10l0,0l-5.4,5.8l-14.6-7l0,0
			c6.7,14.6,21.3,24.7,38.4,24.7c8.4,0,16.2-2.4,22.8-6.8l0,0l6.8,6.7h19.7l-16.2-16l0,0C287,72.3,290.5,63.2,290.5,53.4L290.5,53.4
			L290.5,53.4L290.5,53.4z"/>
		<polygon class="st49" points="169.1,464.7 169.1,430.5 176.3,430.5 176.3,464.7 169.1,464.7 169.1,464.7 		"/>
		<path class="st49" d="M191.6,465.2c-8.9,0-10.6-5.2-10.2-11.2l0,0h7.1l0,0c0,3.3,0.1,6,4.1,6c2.3,0,3.6-1.6,3.6-3.9
			c0-6.2-14.3-6.5-14.3-16.7c0-5.3,2.5-9.6,11.2-9.6c7,0,10.5,3.1,9.9,10.2l0,0h-6.9l0,0c0-2.5-0.5-5.2-3.3-5.2
			c-2.3,0-3.6,1.3-3.6,3.7c0,6.4,14.3,5.9,14.3,16.6C203.5,464.2,197,465.2,191.6,465.2L191.6,465.2L191.6,465.2L191.6,465.2z"/>
		<path class="st49" d="M312.3,436.8c2.4-1.4,4.6-3,6.3-5.2l0,0h6.3v33.1h-7.1v-25.4l0,0c-1.7,1.5-3.6,2.7-5.5,3.7l0,0V436.8
			L312.3,436.8L312.3,436.8z"/>
		<path class="st49" d="M220.1,460.1c-4,0-4.5-3.8-4.5-12.5c0-8.8,0.5-12.6,4.5-12.6c4.1,0,4.6,3.8,4.6,12.6
			C224.7,456.3,224.1,460.1,220.1,460.1L220.1,460.1z M220.1,430c-11.8,0-11.8,8.6-11.8,17.6c0,8.9,0,17.6,11.8,17.6
			c11.8,0,11.8-8.7,11.8-17.6C231.9,438.6,231.9,430,220.1,430L220.1,430z M220.1,460.1L220.1,460.1L220.1,460.1L220.1,460.1
			L220.1,460.1z M220.1,465.2L220.1,465.2L220.1,465.2z"/>
		<path class="st49" d="M255.6,465.2c-0.1,0-0.2,0-0.3,0c-5.6,0-9-1.9-8.8-8.2l0,0h6.5l0,0c0,0.8,0.1,1.7,0.5,2.2
			c0.4,0.6,1,1.1,2,1.1h0.1c3.2-0.1,2.9-2.8,2.9-10.5c-0.9,0.8-1.9,1.5-2.9,1.7c-0.9,0.3-1.7,0.4-2.6,0.4c-5.1,0-7-4.5-7-8.9
			c0-6.6,2-11.8,9.4-11.8c0.1,0,0.1,0,0.2,0c9.6,0,9.5,7.8,9.5,17.1C265.1,456.4,265,465,255.6,465.2L255.6,465.2z M255.6,435.6
			c2.8,0.1,2.9,3.7,2.9,5.8c0,2.1-0.2,5.9-2.9,6c-0.1,0-0.1,0-0.1,0c-2.8,0-2.8-3.8-2.8-5.8l0,0l0,0l0,0
			C252.6,439.6,252.6,435.6,255.6,435.6L255.6,435.6L255.6,435.6z"/>
		<path class="st49" d="M277.5,460.3c-2.7,0-2.9-2.1-2.9-12.1c0-10.2,0.1-12.1,2.9-12.1c2.8,0,2.9,1.9,2.9,12.1
			C280.4,458.2,280.2,460.3,277.5,460.3L277.5,460.3z M277.5,431.2c-8.1,0-9.6,4.2-9.6,16.8c0,10.4,0.7,17.1,9.6,17.1
			c8.9,0,9.7-6.7,9.7-17.1C287.1,435.4,285.6,431.2,277.5,431.2L277.5,431.2z"/>
		<path class="st49" d="M299.5,460.3c-2.7,0-2.9-2.1-2.9-12.1c0-10.2,0.1-12.1,2.9-12.1c2.8,0,2.9,1.9,2.9,12.1
			C302.4,458.2,302.2,460.3,299.5,460.3L299.5,460.3z M299.5,431.2c-8.1,0-9.6,4.2-9.6,16.8c0,10.4,0.7,17.1,9.6,17.1
			c8.9,0,9.7-6.7,9.7-17.1C309.1,435.4,307.6,431.2,299.5,431.2L299.5,431.2z"/>
	</g>
	<g>
		<path class="st47" d="M204.3,347c0.5,1,1.1,1.9,1.8,2.5c0.8,0.6,1.7,1.1,2.7,1.4c1,0.3,2.1,0.5,3.2,0.5c0.7,0,1.5-0.1,2.4-0.2
			c0.9-0.1,1.7-0.4,2.4-0.8c0.7-0.4,1.4-1,1.9-1.7c0.5-0.7,0.7-1.6,0.7-2.8c0-1.2-0.3-2.2-1-2.9c-0.7-0.7-1.5-1.4-2.6-1.9
			c-1.1-0.5-2.3-0.9-3.6-1.3c-1.4-0.4-2.7-0.8-4.1-1.2c-1.4-0.4-2.8-0.9-4.2-1.5c-1.4-0.6-2.6-1.4-3.6-2.3c-1.1-0.9-1.9-2.1-2.6-3.6
			c-0.7-1.4-1-3.1-1-5.2c0-2.3,0.4-4.2,1.3-5.9c0.8-1.7,1.9-3.1,3.3-4.2c1.3-1.1,2.9-1.9,4.6-2.5s3.4-0.8,5.1-0.8
			c2,0,3.9,0.3,5.7,0.8s3.5,1.4,4.9,2.5c1.4,1.2,2.5,2.6,3.4,4.4c0.8,1.8,1.3,4,1.3,6.5h-8.1c-0.1-1.3-0.3-2.4-0.7-3.3
			c-0.4-0.9-1-1.5-1.6-2s-1.4-0.8-2.3-1.1c-0.9-0.2-1.8-0.3-2.9-0.3c-0.7,0-1.4,0.1-2,0.2c-0.7,0.2-1.3,0.5-1.8,0.9
			c-0.6,0.4-1,0.9-1.4,1.5c-0.4,0.6-0.5,1.4-0.5,2.4c0,0.9,0.1,1.6,0.4,2.1c0.3,0.5,0.8,1,1.7,1.5c0.8,0.5,2,0.9,3.5,1.4
			c1.5,0.5,3.4,1,5.8,1.7c0.7,0.2,1.7,0.5,3,0.9c1.3,0.4,2.5,1.1,3.8,2.1c1.2,0.9,2.3,2.2,3.2,3.8c0.9,1.6,1.4,3.6,1.4,6.1
			c0,2-0.3,3.9-1,5.6s-1.7,3.2-3,4.5s-3,2.2-5,2.9c-2,0.7-4.3,1.1-6.8,1.1c-2.1,0-4.1-0.3-6.1-0.9s-3.7-1.5-5.2-2.8
			c-1.5-1.3-2.7-2.9-3.6-4.9s-1.3-4.3-1.3-7.1h8.1C203.6,344.7,203.9,346,204.3,347z"/>
		<path class="st47" d="M260.5,354.6c-2.9,2.9-6.9,4.4-11.9,4.4c-5.2,0-9.1-1.4-12-4.3c-2.8-2.9-4.2-7.3-4.2-13.4v-27.5h8.4v27.5
			c0,1.2,0.1,2.4,0.3,3.5c0.2,1.2,0.6,2.2,1.1,3.1c0.6,0.9,1.4,1.6,2.4,2.2s2.4,0.8,4.1,0.8c3,0,5-0.8,6.2-2.3
			c1.1-1.5,1.7-4,1.7-7.3v-27.5h8.4v27.5C264.8,347.2,263.4,351.6,260.5,354.6z M246.7,301.6v7.2h-7.2v-7.2H246.7z M257.7,301.6v7.2
			h-7.2v-7.2H257.7z"/>
		<path class="st47" d="M288.4,313.8c2.5,0,4.7,0.5,6.8,1.4c2.1,0.9,3.9,2.3,5.5,4.1c1.5,1.8,2.8,4.1,3.6,6.8s1.3,5.9,1.3,9.6
			c0,3.2-0.4,6.2-1.1,8.9c-0.7,2.7-1.8,5.1-3.2,7.1c-1.4,2-3.2,3.5-5.4,4.7c-2.2,1.1-4.7,1.7-7.6,1.7H272v-44.2H288.4z M287.8,349.8
			c1.2,0,2.4-0.2,3.5-0.7c1.1-0.5,2.1-1.2,3-2.3s1.6-2.4,2.1-4.1c0.5-1.7,0.8-3.8,0.8-6.2c0-2.2-0.2-4.2-0.6-6s-1-3.3-1.8-4.6
			c-0.9-1.3-2-2.3-3.4-2.9c-1.4-0.7-3.1-1-5.2-1h-6v27.8H287.8z"/>
	</g>
</g>
</svg>
