<?xml version="1.0" encoding="utf-8"?>
<!-- Generator: Adobe Illustrator 22.1.0, SVG Export Plug-In . SVG Version: 6.00 Build 0)  -->
<svg version="1.0" id="Ebene_1" xmlns="http://www.w3.org/2000/svg" xmlns:xlink="http://www.w3.org/1999/xlink" x="0px" y="0px"
	 viewBox="0 0 394 500" style="enable-background:new 0 0 394 500;" xml:space="preserve">
<style type="text/css">
	.st0{fill:none;stroke:#FFFFFF;stroke-width:18;stroke-linecap:round;stroke-linejoin:round;stroke-miterlimit:10;}
	.st1{fill:#434343;}
	.st2{fill:#7F7F7F;}
	.st3{fill:none;stroke:#000000;stroke-width:24;stroke-linecap:round;stroke-linejoin:round;stroke-miterlimit:10;}
	.st4{fill:none;stroke:#000000;stroke-width:24;stroke-linecap:round;stroke-miterlimit:10;}
	.st5{fill:#FFFFFF;stroke:#000000;stroke-width:15;stroke-linecap:round;stroke-linejoin:round;stroke-miterlimit:10;}
	.st6{stroke:#000000;stroke-width:24;stroke-linecap:round;stroke-linejoin:round;stroke-miterlimit:10;}
	.st7{fill:#FFFFFF;stroke:#000000;stroke-width:24;stroke-linecap:round;stroke-linejoin:round;stroke-miterlimit:10;}
	.st8{fill:none;stroke:#000000;stroke-width:15;stroke-linecap:round;stroke-linejoin:round;stroke-miterlimit:10;}
	.st9{fill:none;stroke:#000000;stroke-width:18;stroke-linecap:round;stroke-linejoin:round;stroke-miterlimit:10;}
	.st10{stroke:#000000;stroke-width:18;stroke-linecap:round;stroke-linejoin:round;stroke-miterlimit:10;}
	.st11{clip-path:url(#SVGID_2_);fill:#DBDBDB;}
	.st12{clip-path:url(#SVGID_2_);fill:#7F7F7F;}
	.st13{clip-path:url(#SVGID_4_);}
	.st14{opacity:0.8;clip-path:url(#SVGID_6_);}
	.st15{clip-path:url(#SVGID_8_);fill:#00448D;}
	.st16{clip-path:url(#SVGID_4_);fill:#2E2E2E;}
	.st17{filter:url(#Adobe_OpacityMaskFilter);}
	.st18{clip-path:url(#SVGID_10_);}
	.st19{clip-path:url(#SVGID_10_);mask:url(#SVGID_11_);}
	.st20{opacity:0.75;clip-path:url(#SVGID_15_);fill:#1D1D1B;}
	.st21{clip-path:url(#SVGID_4_);fill:#434343;}
	.st22{filter:url(#Adobe_OpacityMaskFilter_1_);}
	.st23{clip-path:url(#SVGID_17_);}
	.st24{clip-path:url(#SVGID_17_);mask:url(#SVGID_18_);}
	.st25{opacity:0.75;clip-path:url(#SVGID_22_);fill:#1D1D1B;}
	.st26{filter:url(#Adobe_OpacityMaskFilter_2_);}
	.st27{clip-path:url(#SVGID_17_);fill:url(#SVGID_24_);}
	.st28{clip-path:url(#SVGID_17_);mask:url(#SVGID_23_);}
	.st29{clip-path:url(#SVGID_26_);fill:#9C9B9B;}
	.st30{clip-path:url(#SVGID_28_);}
	.st31{opacity:0.8;clip-path:url(#SVGID_30_);}
	.st32{clip-path:url(#SVGID_32_);fill:#00448D;}
	.st33{clip-path:url(#SVGID_28_);fill:#2E2E2E;}
	.st34{filter:url(#Adobe_OpacityMaskFilter_3_);}
	.st35{clip-path:url(#SVGID_34_);}
	.st36{clip-path:url(#SVGID_34_);mask:url(#SVGID_35_);}
	.st37{opacity:0.75;clip-path:url(#SVGID_39_);fill:#1D1D1B;}
	.st38{clip-path:url(#SVGID_28_);fill:#434343;}
	.st39{filter:url(#Adobe_OpacityMaskFilter_4_);}
	.st40{clip-path:url(#SVGID_41_);}
	.st41{clip-path:url(#SVGID_41_);mask:url(#SVGID_42_);}
	.st42{opacity:0.75;clip-path:url(#SVGID_46_);fill:#1D1D1B;}
	.st43{filter:url(#Adobe_OpacityMaskFilter_5_);}
	.st44{clip-path:url(#SVGID_41_);fill:url(#SVGID_48_);}
	.st45{clip-path:url(#SVGID_41_);mask:url(#SVGID_47_);}
	.st46{clip-path:url(#SVGID_50_);fill:#9C9B9B;}
	.st47{fill:#FFFFFF;}
	.st48{fill:#1D1D1B;}
	.st49{fill-rule:evenodd;clip-rule:evenodd;}
	.st50{fill-rule:evenodd;clip-rule:evenodd;fill:#FFFFFF;}
</style>
<g>
	<path class="st47" d="M394,500.1c-118.1,0-275.9,0-394,0C0,346.6,0,153.4,0-0.1c118.1,0,275.9,0,394,0
		C394,153.4,394,346.6,394,500.1z M356.3,355.3c0-72.6,0-145,0-217.4c-0.5-0.1-0.8-0.1-1.1-0.2c-9-0.7-17.7-2.3-26.3-5
		c-14.8-4.6-27.9-12-38.7-23.1c-13.6-14-21-31.1-24.6-50c-0.9-4.6-1.4-9.2-2-13.8c-75.2,0-150.3,0-225.4,0c0,103.2,0,206.3,0,309.5
		C144.2,355.3,250.2,355.3,356.3,355.3z M306.9,61.3c0,5.8,0,11.4,0,17c0,6.3,0,12.5,0,18.8c0,1.3-0.4,2-1.8,2
		c-1.7,0-1.6-1.2-1.6-2.4c0-11.1,0-22.2,0-33.3c0-0.7-0.1-1.4-0.1-2.1c-3.5,0-6.8,0-10.2,0c0,12.3,0,24.4,0,36.6
		c0,2.5,1.4,4.4,3.7,5.4c5.1,2.3,10.3,2.4,15.5,0.5c3.3-1.2,5-3.6,4.9-7.3c-0.1-11.1,0-22.3,0-33.4c0-0.6-0.1-1.1-0.1-1.8
		C313.7,61.3,310.4,61.3,306.9,61.3z M333,90.1c-0.1,0-0.2,0-0.3,0c-0.5-3.8-0.9-7.6-1.4-11.3c-0.6-5.3-1.2-10.6-1.9-16
		c-0.1-0.6-0.6-1.5-1-1.5c-3-0.1-6.1-0.1-9.1-0.1c0,0.7-0.1,1.2,0,1.7c2,13.5,4,27,5.9,40.5c0.2,1.1,0.6,1.3,1.6,1.3
		c3.8,0,7.5,0,11.3,0c0.6,0,1.3,0,1.9,0c2.1-14.6,4.2-29,6.4-43.4c-3.5,0-6.8,0-10.2,0C335.2,71,334.1,80.6,333,90.1z M178.1,386.4
		c-0.1,0-0.2,0-0.3,0c-0.2-0.5-0.4-1.1-0.5-1.6c-1.1-3.8-2.2-7.6-3.1-11.4c-0.3-1-0.7-1.5-1.8-1.4c-1.8,0.1-3.7,0.1-5.5,0
		c-1.4-0.1-1.9,0.3-1.9,1.9c0.1,10.4,0,20.8,0,31.1c0,0.6,0.1,1.2,0.1,1.9c2.2,0,4.2,0,6.4,0c0-5.7,0-11.4,0-17.1
		c0.4,0.1,0.5,0.3,0.5,0.5c1.4,5.1,2.8,10.2,4.3,15.3c0.1,0.5,0.7,1.3,1.1,1.3c2.3,0.1,4.7,0.1,7.1,0.1c0-11.7,0-23.2,0-34.8
		c-2.1,0-4.1,0-6.3,0C178.1,377,178.1,381.7,178.1,386.4z M191.7,372.3c0,11.5,0,23,0,34.6c3,0,5.9,0,8.8,0c0.5,0,1.1,0,1.6,0
		c4.6-0.4,7-3.1,7.1-7.6c0-6.7,0-13.3,0-20c0-3.9-2-6.5-5.8-6.9C199.6,372,195.7,372.3,191.7,372.3z M264.5,407c0.8,0,1.4,0,1.9,0
		c2.9,0,5.8,0.1,8.7-0.1c4.1-0.3,6.7-2.7,6.8-6.7c0.2-7.2,0.1-14.4,0-21.6c0-3.3-1.9-5.5-5-6c-4.1-0.6-8.3-0.6-12.5-0.8
		C264.5,383.8,264.5,395.2,264.5,407z M253.3,388c0.6-0.3,0.9-0.5,1.3-0.7c4-2.1,4.6-10.7,1-13.4c-0.5-0.4-1-0.7-1.5-0.9
		c-4.5-1.7-9.2-0.7-13.7-1c0,11.8,0,23.4,0,34.8c2.6,0,5,0,7.6,0c0-5.6,0-11,0-16.5c1.7-0.1,2.4,0.6,2.4,2.1c0,1.7-0.2,3.4-0.1,5.1
		c0.1,2.6,0.3,5.3,0.6,7.9c0.1,0.6,0.9,1.4,1.5,1.4c2.1,0.2,4.2,0.1,6.5,0.1c-1.6-4-1.2-8-1-12C257.9,391.6,257,389.1,253.3,388z
		 M56.7,372c-2.1,0-4,0.1-5.9,0c-1.5-0.1-1.9,0.4-1.9,1.9c0.1,8.5,0,17,0,25.5c0,0.6,0.1,1.3-0.1,1.9c-0.1,0.4-0.7,1-1.1,1
		c-0.4,0-1-0.5-1.2-0.9c-0.2-0.6-0.1-1.3-0.1-1.9c0-8.5,0-17,0-25.5c0-0.6-0.1-1.2-0.1-1.8c-2.6,0-5,0-7.3,0
		c-0.1,0.2-0.2,0.4-0.2,0.5c0,9.7,0,19.3,0,29c0,2,1.1,3.4,2.9,4.3c3.1,1.5,6.4,1.7,9.6,0.9c3.8-1,5.2-2.9,5.2-6.9
		c0-4.8,0-9.5,0-14.3C56.7,381.2,56.7,376.8,56.7,372z M340.9,389.5C340.9,389.5,340.9,389.5,340.9,389.5c0-3.8,0-7.5,0-11.3
		c0-3-1.5-4.9-4.3-5.8c-2.8-0.9-5.6-0.9-8.4-0.2c-3.5,0.8-5.1,2.8-5.1,6.4c-0.1,7.4,0,14.9,0,22.3c0,2.7,1.3,4.5,3.7,5.4
		c3.2,1.3,6.5,1.3,9.7,0.2c3.1-1.1,4.4-2.9,4.4-6.2C340.9,396.7,340.9,393.1,340.9,389.5z M312.9,388.1c2.5-1.3,3.4-3.3,3.5-5.7
		c0.1-1.6,0-3.2,0-4.8c0-2.1-1.1-3.7-3-4.6c-3.1-1.5-6.2-1.6-9.5-0.8c-3.2,0.8-4.5,2.6-4.6,5.8c0,1.2,0,2.5,0,3.7
		c0,2.7,0.7,5,3.6,6.4c-2.7,0.8-3.8,2.5-3.8,4.9c-0.1,2.6-0.1,5.3,0,8c0.2,3.2,1.8,5.3,5,5.8c2.4,0.4,5,0.4,7.4,0
		c3.5-0.5,5-2.7,5.2-6.3c0.1-2.2,0-4.4,0-6.5C316.8,391.3,315.9,389.2,312.9,388.1z M144.5,372c-1.9,11.7-3.8,23.2-5.8,34.8
		c2.7,0,5.1,0,7.6,0c0.5-3.1,0.9-6.1,1.3-9.1c3.2-0.5,3.3-0.5,3.7,2.5c0.3,2.2,0.6,4.4,0.9,6.6c2.6,0,5,0,7.6,0
		c-0.2-1.3-0.4-2.5-0.6-3.8c-1.6-9.9-3.3-19.8-5-29.8c-0.1-0.5-0.8-1.2-1.2-1.3C150.3,372,147.5,372,144.5,372z M235.3,407
		c0-0.4,0-0.7,0-0.9c-1.1-6.4-2.1-12.8-3.2-19.2c-0.7-4.4-1.4-8.8-2.2-13.2c-0.1-0.6-0.6-1.5-1-1.6c-3-0.1-6-0.1-9-0.1
		c-1.9,11.7-3.8,23.2-5.8,34.8c2.6,0,5.1,0,7.6,0c0.4-3.1,0.9-6.1,1.3-9.1c1.1,0,2.2,0,3.4,0c0.4,2.7,0.7,5.4,1.2,8
		c0.1,0.5,0.6,1.2,1,1.2C230.8,407,233.1,407,235.3,407z M72.5,394.7c-0.1,0-0.2,0-0.3-0.1c-0.1-0.5-0.2-0.9-0.3-1.4
		c-0.7-6.6-1.4-13.2-2.2-19.8c-0.1-0.5-0.6-1.3-0.9-1.3c-2.1-0.1-4.3-0.1-6.7-0.1c1.6,11.8,3.2,23.3,4.7,34.8c3.7,0,7.3,0,10.9,0
		c1.6-11.6,3.1-23.1,4.7-34.8c-2.1,0-4,0.1-5.9,0c-1.4-0.1-1.8,0.4-1.9,1.8C74,380.7,73.2,387.7,72.5,394.7z M99.3,393.1
		c0,3-0.1,5.9,0,8.7c0.1,2.5,1.6,4.1,4,4.8c2.9,0.9,5.8,0.9,8.7,0c2.7-0.8,4.4-2.5,4.5-5.4c0.1-2.1,0.3-4.1,0-6.2
		c-0.2-1.4-0.9-2.9-1.8-4.1c-1.7-2.1-3.7-4.1-5.7-6c-1.9-1.8-2.5-4.1-2.3-6.6c0.1-0.6,0.7-1.6,1.2-1.7c1.2-0.2,1.1,0.9,1.1,1.7
		c0,1.9,0,3.7,0,5.5c2.5,0,4.7,0,7,0c0-2.3,0.1-4.5,0-6.6c-0.2-2.6-1.7-4.3-4.3-5c-2.7-0.7-5.5-0.8-8.2,0.2
		c-1.2,0.5-2.5,1.4-3.3,2.5c-1.9,2.7-1.4,9.2,0.7,11.7c1.5,1.7,3,3.3,4.7,4.8c2.7,2.4,3.9,5.2,3.4,8.8c-0.1,0.9-0.1,1.8-1.4,1.8
		c-1.4,0-1.4-0.9-1.4-1.9c0-2.3,0-4.7,0-7.1C103.8,393.1,101.6,393.1,99.3,393.1z M124.8,376.6c0,10.2,0,20.1,0,30.2
		c2.6,0,5.1,0,7.7,0c0-10.1,0-20.1,0-30.3c1.5,0,2.8,0,4.1,0c0-1.6,0-3,0-4.4c-5.4,0-10.7,0-16,0c0,1.5,0,2.9,0,4.4
		C122.1,376.6,123.3,376.6,124.8,376.6z M356.6,406.9c0-11.7,0-23.2,0-34.9c-1.9,0-3.7-0.1-5.4,0c-0.4,0-0.9,0.5-1.1,0.8
		c-0.6,1.6-1.5,2.8-3.1,3.3c-0.3,0.1-0.7,0.5-0.7,0.8c-0.1,1.4,0,2.9,0,4.4c1.1,0.1,2,0.1,3,0.2c0,8.5,0,16.9,0,25.3
		C351.9,406.9,354.2,406.9,356.6,406.9z M248.8,447.6c0-3,0-5.8,0-8.7c0.9,0,1.6,0,2.6,0c0,2.9,0,5.8,0,8.6c1.6,0,3,0,4.5,0
		c0-6.7,0-13.4,0-20c-1.5,0-3,0-4.6,0c0,2.5,0,4.9,0,7.2c-0.9,0-1.6,0-2.5,0c0-2.5,0-4.9,0-7.2c-1.6,0-3.1,0-4.4,0
		c0,6.8,0,13.4,0,20C245.9,447.6,247.2,447.6,248.8,447.6z M132,437.7c0-1.8,0.1-3.5,0-5.3c-0.1-3.3-1.8-4.9-5.1-5
		c-3.7-0.1-5.5,1.3-5.6,4.8c-0.2,3.6-0.1,7.3,0,10.9c0.1,3.3,2.1,4.8,5.5,4.8c3.4-0.1,5.1-1.7,5.2-4.9
		C132.1,441.2,132,439.5,132,437.7z M203.3,437.6c0,0,0.1,0,0.1,0c0-1.9,0-3.8,0-5.6c0-0.3-0.1-0.6-0.2-0.9
		c-0.5-2.6-2.2-3.7-5.4-3.7c-3.1,0-4.9,1.2-5,3.8c-0.2,4.2-0.2,8.5,0,12.7c0.1,2.7,2,3.9,5.1,4c3.1,0,5-1.1,5.3-3.8
		C203.5,442,203.3,439.8,203.3,437.6z M112.9,437.9C113,437.9,113,437.9,112.9,437.9c0-1.9,0.1-3.8,0-5.6c-0.1-3.2-1.8-4.8-5.2-4.8
		c-3.6,0-5.4,1.5-5.5,4.7c-0.1,3.7-0.1,7.4,0,11.1c0.1,3,1.9,4.6,5.3,4.6c3.3,0,5.2-1.5,5.4-4.5C113,441.6,112.9,439.7,112.9,437.9z
		 M188.9,436.8c2.2-1.8,2.5-5.9,0.7-7.9c-1.6-1.9-6.1-2.1-8-0.4c-2,1.7-2,5.9,0,8.3c-2.2,2.4-2.3,8-0.2,9.9c2.1,1.8,6.7,1.5,8.3-0.5
		C191.6,444,191.2,438.5,188.9,436.8z M275,447.6c0-0.8,0-1.3,0-1.9c0-3.1,0-6.1,0.1-9.2c0-0.4,0.6-0.8,0.9-1.3
		c0.3,0.4,0.8,0.8,0.8,1.3c0.1,1.4,0,2.8,0,4.2c0,2.3,0,4.5,0,6.8c1.6,0,2.8,0,4.2,0c0-4.7,0.2-9.3-0.1-13.8
		c-0.1-2.5-2.7-3.4-4.7-1.9c-0.4,0.3-0.7,0.6-1.3,1.1c0-2,0-3.6,0-5.4c-1.5,0-2.8,0-4.2,0c0,6.8,0,13.4,0,20.1
		C272.1,447.6,273.4,447.6,275,447.6z M52,438.5c1.6-0.3,3.3,0.8,4.4-1.1c0-0.1,1.4,0.3,1.4,0.5c0.1,1.8,0.1,3.6,0.1,5.4
		c0,0.3-0.7,0.8-0.9,0.8c-0.4-0.1-0.9-0.6-1-1c-0.2-0.7-0.2-1.5-0.3-2.1c-1.5,0-2.9,0-4.4,0c0.1,1.2,0.2,2.2,0.4,3.2
		c0.6,2.4,2.3,3.6,5.2,3.5c3,0,5-1.2,5.3-3.6c0.3-2.4,0.4-4.9,0.1-7.4c-0.3-2.8-2.6-4.1-5.3-3.3c-0.4,0.1-0.8,0.3-1.3,0.5
		c0-0.9,0-1.7,0-2.7c2.1,0,4.1,0,6.3,0c0-1.3,0-2.5,0-3.6c-3.4,0-6.6,0-9.9,0C52,431.3,52,434.8,52,438.5z M155.3,436.8
		c2-1.9,2.5-5.6,1-7.6c-1.4-1.9-5.2-2.4-7.7-1.1c-1.9,1-2.8,3.4-2,5.5c1.3,0,2.5,0,3.9,0c0.1-0.6,0-1.1,0.2-1.5
		c0.2-0.4,0.7-0.8,1-1.2c0.3,0.4,0.8,0.8,0.9,1.3c0.3,2.1,0,2.5-2.5,3.4c0,0.9,0,1.8,0,2.7c2.5,0.9,3.3,2.2,2.6,4.7
		c-0.1,0.4-0.7,0.8-1.1,1.1c-0.4-0.4-0.9-0.7-1-1.2c-0.2-0.6-0.2-1.4-0.2-2.1c-1.4,0-2.8,0-4.1,0c-0.4,3.7,0.6,5.9,3.1,6.6
		c3,0.9,6.2-0.1,7.3-2.3C158.1,442.6,157.5,438.5,155.3,436.8z M349.4,447.6c0-3.3,0-6.4,0-9.5c0-0.6-0.1-1.3,0.1-1.9
		c0.1-0.4,0.7-0.6,1-1c0.2,0.3,0.7,0.7,0.7,1c0.1,1.9,0,3.8,0.1,5.7c0,1.9,0,3.7,0,5.6c1.6,0,2.9,0,4.2,0c0-4.6,0.2-9.1-0.1-13.5
		c-0.1-2.7-2.8-3.7-5-2.2c-0.4,0.3-0.7,0.6-1,0.8c-0.9-2.4-2.8-0.8-4.1-1.3c0,5.6,0,10.9,0,16.3
		C346.6,447.6,347.8,447.6,349.4,447.6z M299.9,447.6c0-0.7,0-1.2,0-1.7c0-3,0-6,0.1-9c0-0.5,0.6-1,1-1.6c0.3,0.5,0.8,1.1,0.9,1.6
		c0.1,1.8,0,3.6,0,5.5c0,1.7,0,3.5,0,5.2c1.6,0,2.9,0,4.3,0c0-2.3,0-4.4,0-6.6c0-2.2,0.2-4.4-0.1-6.5c-0.1-1.1-0.9-2.3-1.7-3
		c-1.1-0.9-2.5-0.3-3.6,0.5c-0.3,0.2-0.5,0.5-0.8,0.7c-0.5-1.5-1.7-1.7-4.3-1c0,5.3,0,10.5,0,15.9
		C297.1,447.6,298.4,447.6,299.9,447.6z M336.6,440.3c0-1.7,0.1-3.2,0-4.6c-0.2-3-2.1-4.6-5.4-4.5c-3.3,0-5.1,1.6-5.2,4.7
		c-0.1,2.5,0,4.9,0,7.4c0,1.9,0.6,3.5,2.5,4.3c2.2,0.9,4.6,1,6.5-0.6c1.6-1.3,1.8-3.2,1.4-5.1c-1.4,0-2.8,0-4.2,0
		c-0.1,0.7,0,1.4-0.2,2c-0.1,0.4-0.6,0.7-0.9,1.1c-0.3-0.3-0.8-0.6-0.8-1c-0.1-1.1,0-2.3,0-3.5c1.2,0,2.1,0,3,0
		C334.4,440.3,335.4,440.3,336.6,440.3z M293.6,440.3c0-2,0.2-3.7,0-5.4c-0.4-2.7-2.4-4-5.6-3.8c-3,0.2-4.6,1.6-4.8,4.4
		c-0.1,2.8-0.1,5.7,0.1,8.5c0.1,1,0.8,2.2,1.6,3c1.5,1.4,5,1.4,6.9,0.3c1.6-1,2.3-2.9,1.9-5.5c-1.4,0-2.7,0-4.2,0c0,0.8,0,1.4-0.1,2
		c-0.1,0.4-0.5,0.7-0.7,1c-0.3-0.3-0.9-0.6-1-1c-0.1-1.1,0-2.3,0-3.5c1.2,0,2.1,0,3.1,0C291.5,440.3,292.5,440.3,293.6,440.3z
		 M268.7,439.7C268.7,439.7,268.7,439.7,268.7,439.7c0-1,0-2,0-3c0-4.3-2.4-6.2-6.6-5.4c-2.4,0.4-3.8,1.7-3.9,3.9
		c-0.2,2.9-0.2,5.9,0,8.8c0.2,2.7,2.2,4.1,5.4,4.1c3.1-0.1,5-1.6,5.1-4.4C268.7,442.3,268.7,441,268.7,439.7z M165.7,431.4
		c-2.7,5.3-4.6,10.5-4.8,16.2c1.7,0,3.2,0,4.7,0c0-0.5,0.1-0.9,0.1-1.3c0.4-4.8,1.2-9.6,3.7-13.9c0.9-1.6,0.8-3.1,0.6-4.8
		c-2,0-3.8,0-5.7,0c-1.9,0-3.7,0-5.6,0c0,1.4,0,2.5,0,3.8C161,431.4,163.1,431.4,165.7,431.4z M317.4,436.2c0.2-2.4-0.5-3.9-2.2-4.7
		c-2-0.9-4.9-0.4-6.2,1.1c-1.2,1.4-1.5,3.6-0.4,5.3c0.9,1.3,2.2,2.4,3.4,3.6c0.5,0.6,1.2,1.1,1.4,1.7c0.1,0.4-0.4,1-0.6,1.6
		c-0.3-0.3-0.8-0.6-1-1c-0.2-0.4-0.2-0.9-0.3-1.3c-1.3,0-2.5,0-3.8,0c-0.1,2.1,0.3,3.8,2.1,4.8c1.8,1,4.6,0.8,6.2-0.4
		c1.6-1.3,2.1-3.1,1.4-4.9c-0.5-1.3-1.6-2.4-2.6-3.5c-0.8-0.9-1.9-1.6-2.7-2.5c-0.3-0.3-0.2-1-0.1-1.4c0-0.1,0.6-0.4,0.7-0.3
		c0.3,0.3,0.6,0.6,0.8,1c0.1,0.3,0.1,0.6,0.2,1C315,436.2,316.1,436.2,317.4,436.2z M79.1,447.6c0-6.7,0-13.2,0-19.7
		c-3.2-1.7-4.8,1.6-7.4,1.9c0,1,0,1.9,0,2.9c1,0,2,0,3.1,0c0,5,0,10,0,14.9C76.3,447.6,77.7,447.6,79.1,447.6z M217.8,432.7
		c0,5,0,9.9,0,14.8c1.5,0,2.9,0,4.3,0c0-6.7,0-13.3,0-19.6c-3.2-1.8-4.8,1.8-7.3,1.8C214.4,432.7,214.4,432.7,217.8,432.7z
		 M93.8,447.5c1.5,0,2.8,0,4.2,0c0-6.7,0-13.3,0-19.7c-3.2-1.5-4.7,1.8-7.2,1.9c0,1.1,0,2,0,3c1.1,0,2,0,3,0
		C93.8,437.7,93.8,442.6,93.8,447.5z M142.2,447.6c0-6.7,0-13.3,0-19.6c-3.2-1.8-4.7,1.8-7.2,1.8c0,1.1,0,2,0,3c1.1,0,2,0,3,0
		c0,5,0,9.9,0,14.8C139.5,447.6,140.9,447.6,142.2,447.6z M47.5,427.9c-3.1-1.8-4.8,1.8-7.3,1.8c0,1,0,2,0,3c1,0,1.9,0,3.1,0
		c0,5,0,9.9,0,14.8c1.5,0,2.9,0,4.2,0C47.5,440.9,47.5,434.4,47.5,427.9z M319.6,428.4c-0.3,1.3-0.5,2.3-0.7,3.3
		c-0.2,0.9-0.8,2.5-0.5,2.7c1.3,0.9,0.8,2.1,0.9,3.2c0.1,1.6,0,3.3,0,4.9c0,1.1,0.1,2.1,0.3,3.2c0.2,1.6,1.3,2.2,2.7,2.3
		c0.8,0,2.2-0.2,2.3-0.5c0.2-1.1,0.8-2.4-0.8-3.2c-0.2-0.1-0.3-0.7-0.3-1.1c0-2.4,0-4.7,0-7.1c0-0.4,0.3-0.9,0.7-1.2
		c0.8-0.7,0.8-2.5,0.1-3.2c-0.3-0.3-0.6-0.7-0.7-1.2c-0.1-0.7,0-1.4,0-2.2C322.1,428.4,320.9,428.4,319.6,428.4z M338.6,447.6
		c1.5,0,2.8,0,4.1,0c0-5.4,0-10.7,0-16c-1.4,0-2.8,0-4.1,0C338.6,436.9,338.6,442.2,338.6,447.6z M171.7,441.2c2.3,0,4.4,0,6.5,0
		c0-1.3,0-2.4,0-3.6c-2.2,0-4.3,0-6.5,0C171.7,438.8,171.7,439.9,171.7,441.2z M211.7,437.5c-2.2,0-4.3,0-6.4,0c0,1.3,0,2.4,0,3.6
		c2.2,0,4.3,0,6.4,0C211.7,439.9,211.7,438.7,211.7,437.5z M64.6,442.9c0,1.6,0,3.1,0,4.7c1.4,0,2.6,0,4,0c0-1.6,0-3.1,0-4.7
		C67.2,442.9,65.9,442.9,64.6,442.9z M119.1,447.6c0-1.6,0-3.1,0-4.7c-1.4,0-2.6,0-4,0c0,1.6,0,3.1,0,4.7
		C116.5,447.6,117.8,447.6,119.1,447.6z M83.5,447.5c1.4,0,2.6,0,3.8,0c0-1.6,0-3.1,0-4.7c-1.3,0-2.5,0-3.8,0
		C83.5,444.5,83.5,446,83.5,447.5z M338.6,430.4c4.2,0.6,4.9,0.1,4-2.8c-1.3,0-2.6,0-4,0C338.6,428.6,338.6,429.4,338.6,430.4z"/>
	<path d="M356.3,355.3c-106.2,0-212.2,0-318.3,0c0-103.2,0-206.3,0-309.5c75.1,0,150.3,0,225.4,0c0.7,4.6,1.2,9.2,2,13.8
		c3.6,18.9,11,36,24.6,50c10.8,11.2,24,18.6,38.7,23.1c8.6,2.7,17.4,4.2,26.3,5c0.3,0,0.7,0.1,1.1,0.2
		C356.3,210.3,356.3,282.7,356.3,355.3z M53.9,148.9c4-1,7.9-2.1,11.9-3c7.6-1.7,15-4.7,23-4c3.5,0.3,2.7-0.6,3.9,2.7
		c4.1,10.6,11.5,17.3,22.9,19.3c7.5,1.3,15,1.3,22.5,0.1c6.5-1,12.3-3.5,16.9-8.4c3.3-3.5,5.4-7.7,7.1-12.1c0.2-0.6,0.8-1.4,1.2-1.4
		c3.8,0,7.7-0.5,11.3,0.4c20.8,5.1,41.6,10.4,62.3,15.8c1.1,0.3,2.3,1,3,1.8c21.7,24,43.3,48.1,65,72.2c0.3,0.4,0.6,0.8,0.9,1.2
		c-0.2,0.2-0.2,0.3-0.3,0.4c-18.5,13.9-37.1,27.8-55.6,41.7c-0.9,0.7-1.4,0.5-2.1-0.2c-4.9-4.1-9.7-8.2-14.6-12.3
		c-2.8-2.4-5.6-4.7-8.7-7.3c0,28.1,0,55.9,0,83.6c38.7,0,77.3,0,116,0c0-62.5,0-124.8,0-187.2c-23.5-3.7-43.9-13.8-60.7-30.6
		c-16.8-16.9-27-37.2-30.7-60.7c-65.2,0-130.2,0-195.2,0C53.9,90.3,53.9,119.5,53.9,148.9z M282.6,231.2c-0.2-0.3-0.3-0.5-0.5-0.7
		c-16.9-18.9-33.9-37.7-50.9-56.6c-0.6-0.7-1.6-1.3-2.5-1.5c-18.3-4.7-36.6-9.3-54.9-14c-1.1-0.3-1.6-0.1-2.1,0.8
		c-5.1,8.6-12.7,14.3-22,17.7c-11.6,4.2-23.6,4.8-35.7,2.5c-9.6-1.8-18.3-5.5-25.2-12.6c-2.6-2.6-4.7-5.7-7.1-8.7
		c-9.1,2.3-18.4,4.7-27.7,7c0,58.2,0,116.2,0,174.2c51.5,0,103,0,154.6,0c0-39.2,0-78.2,0-117.7c13.8,11.6,27.4,22.9,40.9,34.3
		C260.6,247.7,271.5,239.5,282.6,231.2z"/>
	<path d="M306.9,61.3c3.5,0,6.8,0,10.2,0c0,0.6,0.1,1.2,0.1,1.8c0,11.1-0.1,22.3,0,33.4c0,3.7-1.6,6.1-4.9,7.3
		c-5.2,1.9-10.4,1.8-15.5-0.5c-2.3-1-3.7-2.9-3.7-5.4c-0.1-12.1,0-24.3,0-36.6c3.4,0,6.7,0,10.2,0c0,0.7,0.1,1.4,0.1,2.1
		c0,11.1,0,22.2,0,33.3c0,1.2,0,2.3,1.6,2.4c1.4,0,1.8-0.7,1.8-2c0-6.3,0-12.5,0-18.8C306.9,72.7,306.9,67.1,306.9,61.3z"/>
	<path d="M333,90.1c1.1-9.6,2.2-19.1,3.3-28.8c3.4,0,6.7,0,10.2,0c-2.1,14.5-4.2,28.8-6.4,43.4c-0.7,0-1.3,0-1.9,0
		c-3.8,0-7.5,0-11.3,0c-1,0-1.4-0.3-1.6-1.3c-2-13.5-4-27-5.9-40.5c-0.1-0.5,0-0.9,0-1.7c3,0,6.1-0.1,9.1,0.1c0.3,0,0.9,1,1,1.5
		c0.7,5.3,1.3,10.6,1.9,16c0.5,3.8,0.9,7.6,1.4,11.3C332.8,90.1,332.9,90.1,333,90.1z"/>
	<path d="M178.1,386.4c0-4.7,0-9.4,0-14.2c2.2,0,4.2,0,6.3,0c0,11.6,0,23.1,0,34.8c-2.4,0-4.7,0.1-7.1-0.1c-0.4,0-0.9-0.8-1.1-1.3
		c-1.5-5.1-2.9-10.2-4.3-15.3c-0.1-0.2-0.1-0.4-0.5-0.5c0,5.7,0,11.3,0,17.1c-2.2,0-4.2,0-6.4,0c0-0.6-0.1-1.3-0.1-1.9
		c0-10.4,0-20.8,0-31.1c0-1.5,0.5-1.9,1.9-1.9c1.8,0.1,3.7,0.1,5.5,0c1.1-0.1,1.5,0.4,1.8,1.4c1,3.8,2.1,7.6,3.1,11.4
		c0.1,0.5,0.3,1.1,0.5,1.6C178,386.4,178,386.4,178.1,386.4z"/>
	<path d="M191.7,372.3c4,0,7.9-0.3,11.7,0.1c3.8,0.4,5.7,3,5.8,6.9c0,6.7,0,13.3,0,20c0,4.6-2.4,7.2-7.1,7.6c-0.5,0-1.1,0-1.6,0
		c-2.9,0-5.8,0-8.8,0C191.7,395.4,191.7,383.8,191.7,372.3z M199.4,402.3c1.5,0.1,2.1-0.7,2.1-2c0-7.2,0-14.4,0-21.6
		c0-1.3-0.6-2-2-2C199.4,385.3,199.4,393.8,199.4,402.3z"/>
	<path d="M264.5,407c0-11.7,0-23.2,0-35.2c4.2,0.2,8.4,0.2,12.5,0.8c3.1,0.5,4.9,2.7,5,6c0.1,7.2,0.2,14.4,0,21.6
		c-0.1,4-2.7,6.4-6.8,6.7c-2.9,0.2-5.8,0.1-8.7,0.1C265.8,407,265.3,407,264.5,407z M272.3,376.6c0,8.6,0,17.1,0,25.6
		c0.2,0.1,0.3,0.2,0.5,0.3c0.5-0.6,1-1.1,1.4-1.8c0.2-0.4,0.1-1,0.1-1.6c0-6.6,0-13.2,0-19.8C274.2,378.1,274.3,376.8,272.3,376.6z"
		/>
	<path d="M253.3,388c3.7,1.1,4.6,3.7,4.5,7c-0.2,4-0.5,8,1,12c-2.3,0-4.4,0.1-6.5-0.1c-0.6,0-1.4-0.9-1.5-1.4
		c-0.3-2.6-0.5-5.3-0.6-7.9c-0.1-1.7,0.1-3.4,0.1-5.1c0-1.4-0.7-2.2-2.4-2.1c0,5.5,0,10.9,0,16.5c-2.6,0-5,0-7.6,0
		c0-11.5,0-23,0-34.8c4.6,0.3,9.2-0.7,13.7,1c0.5,0.2,1.1,0.5,1.5,0.9c3.6,2.7,2.9,11.3-1,13.4C254.2,387.4,253.9,387.6,253.3,388z
		 M247.9,376.7c0,3,0,6,0,9.1c1.6,0.3,2.3-0.5,2.3-1.9c0-1.6,0-3.3,0-5C250.3,377.3,249.5,376.6,247.9,376.7z"/>
	<path d="M56.7,372c0,4.7,0,9.1,0,13.6c0,4.8,0,9.5,0,14.3c0,3.9-1.5,5.9-5.2,6.9c-3.3,0.8-6.5,0.7-9.6-0.9
		c-1.8-0.9-2.9-2.2-2.9-4.3c0-9.7,0-19.3,0-29c0-0.1,0.1-0.2,0.2-0.5c2.3,0,4.7,0,7.3,0c0,0.6,0.1,1.2,0.1,1.8c0,8.5,0,17,0,25.5
		c0,0.6-0.1,1.4,0.1,1.9c0.2,0.4,0.8,0.9,1.2,0.9c0.4,0,0.9-0.6,1.1-1c0.2-0.6,0.1-1.3,0.1-1.9c0-8.5,0-17,0-25.5
		c0-1.5,0.4-2,1.9-1.9C52.7,372.1,54.6,372,56.7,372z"/>
	<path d="M340.9,389.5c0,3.6,0,7.2,0,10.8c0,3.3-1.3,5.2-4.4,6.2c-3.2,1.1-6.5,1-9.7-0.2c-2.4-1-3.7-2.8-3.7-5.4
		c0-7.4,0-14.9,0-22.3c0-3.6,1.6-5.6,5.1-6.4c2.8-0.7,5.6-0.7,8.4,0.2c2.8,0.9,4.2,2.8,4.3,5.8C341,381.9,340.9,385.7,340.9,389.5
		C340.9,389.5,340.9,389.5,340.9,389.5z M333.2,389.6C333.2,389.6,333.2,389.6,333.2,389.6c0-3.7,0-7.3,0-11c0-0.9,0.2-2.1-1.2-2.1
		c-1.4,0-1.3,1-1.3,2c0,7.2,0,14.5,0,21.7c0,1,0,2,1.4,2c1.3,0,1.2-1.1,1.2-1.9C333.2,396.8,333.2,393.2,333.2,389.6z"/>
	<path d="M312.9,388.1c3,1.1,3.8,3.2,3.8,5.8c0,2.2,0.1,4.4,0,6.5c-0.1,3.7-1.7,5.8-5.2,6.3c-2.4,0.4-4.9,0.4-7.4,0
		c-3.2-0.5-4.8-2.5-5-5.8c-0.1-2.6-0.1-5.3,0-8c0.1-2.4,1.2-4.2,3.8-4.9c-2.9-1.4-3.6-3.7-3.6-6.4c0-1.2,0-2.5,0-3.7
		c0.1-3.2,1.4-5,4.6-5.8c3.2-0.8,6.4-0.8,9.5,0.8c1.9,1,2.9,2.5,3,4.6c0,1.6,0,3.2,0,4.8C316.4,384.8,315.5,386.9,312.9,388.1z
		 M306.7,396.2C306.7,396.2,306.7,396.2,306.7,396.2c0,1.5-0.1,3.1,0,4.6c0.1,0.6,0.8,1,1.2,1.6c0.4-0.5,1.2-1,1.2-1.5
		c0.1-3,0.1-6,0-9c0-0.9-0.1-1.7-1.3-1.6c-1.2,0-1.2,0.9-1.2,1.7C306.7,393.4,306.7,394.8,306.7,396.2z M306.7,381.1
		c0,1.2-0.1,2.4,0.1,3.5c0.1,0.4,0.8,1.1,1.2,1.1c0.4,0,1.2-0.7,1.2-1.1c0.1-2.3,0.1-4.6,0-6.9c0-0.4-0.8-1.1-1.2-1.1
		c-0.4,0-1.1,0.7-1.2,1.1C306.6,378.9,306.7,380,306.7,381.1z"/>
	<path d="M144.5,372c3,0,5.9-0.1,8.7,0.1c0.4,0,1.1,0.8,1.2,1.3c1.7,9.9,3.3,19.8,5,29.8c0.2,1.2,0.4,2.4,0.6,3.8c-2.6,0-5,0-7.6,0
		c-0.3-2.2-0.6-4.5-0.9-6.6c-0.5-3-0.5-3-3.7-2.5c-0.4,3-0.9,6-1.3,9.1c-2.5,0-4.9,0-7.6,0C140.6,395.3,142.5,383.8,144.5,372z
		 M148.3,392.8c0.8,0,1.4-0.1,2.1-0.1c-0.3-2.9-0.6-5.7-0.9-8.5c-0.1,0-0.2,0-0.3,0C148.9,386.9,148.6,389.7,148.3,392.8z"/>
	<path d="M235.3,407c-2.2,0-4.5,0.1-6.7-0.1c-0.4,0-0.9-0.8-1-1.2c-0.4-2.6-0.8-5.2-1.2-8c-1.1,0-2.2,0-3.4,0
		c-0.4,3.1-0.9,6-1.3,9.1c-2.5,0-5,0-7.6,0c1.9-11.6,3.8-23.1,5.8-34.8c3,0,6-0.1,9,0.1c0.3,0,0.8,1,1,1.6c0.8,4.4,1.5,8.8,2.2,13.2
		c1.1,6.4,2.1,12.8,3.2,19.2C235.4,406.3,235.3,406.5,235.3,407z M225.9,392.7c-0.3-2.9-0.6-5.6-0.9-8.3c-0.1,0-0.3,0-0.4,0
		c-0.3,2.7-0.5,5.5-0.8,8.3C224.6,392.7,225.1,392.7,225.9,392.7z"/>
	<path d="M72.5,394.7c0.7-7,1.5-13.9,2.2-20.9c0.1-1.3,0.5-1.9,1.9-1.8c1.9,0.1,3.7,0,5.9,0c-1.6,11.7-3.1,23.2-4.7,34.8
		c-3.6,0-7.1,0-10.9,0c-1.6-11.5-3.1-23-4.7-34.8c2.4,0,4.5-0.1,6.7,0.1c0.3,0,0.9,0.8,0.9,1.3c0.8,6.6,1.5,13.2,2.2,19.8
		c0.1,0.5,0.2,0.9,0.3,1.4C72.3,394.6,72.4,394.6,72.5,394.7z"/>
	<path d="M99.3,393.1c2.3,0,4.5,0,6.9,0c0,2.4,0,4.8,0,7.1c0,1,0.1,1.9,1.4,1.9c1.3,0,1.2-0.9,1.4-1.8c0.5-3.6-0.7-6.4-3.4-8.8
		c-1.7-1.5-3.2-3.1-4.7-4.8c-2.1-2.5-2.6-9.1-0.7-11.7c0.8-1.1,2-2,3.3-2.5c2.6-1,5.4-1,8.2-0.2c2.6,0.7,4.1,2.4,4.3,5
		c0.1,2.2,0,4.3,0,6.6c-2.3,0-4.5,0-7,0c0-1.8,0-3.6,0-5.5c0-0.8,0-1.9-1.1-1.7c-0.5,0.1-1.2,1.1-1.2,1.7c-0.2,2.5,0.5,4.7,2.3,6.6
		c2,1.9,4,3.9,5.7,6c0.9,1.1,1.6,2.6,1.8,4.1c0.3,2,0.1,4.1,0,6.2c-0.1,2.9-1.8,4.6-4.5,5.4c-2.9,0.8-5.8,0.8-8.7,0
		c-2.4-0.7-3.9-2.3-4-4.8C99.2,398.9,99.3,396,99.3,393.1z"/>
	<path d="M124.8,376.6c-1.5,0-2.8,0-4.2,0c0-1.5,0-2.9,0-4.4c5.3,0,10.6,0,16,0c0,1.4,0,2.8,0,4.4c-1.3,0-2.6,0-4.1,0
		c0,10.2,0,20.2,0,30.3c-2.6,0-5.1,0-7.7,0C124.8,396.8,124.8,386.8,124.8,376.6z"/>
	<path d="M356.6,406.9c-2.4,0-4.8,0-7.3,0c0-8.4,0-16.8,0-25.3c-1.1-0.1-1.9-0.1-3-0.2c0-1.5,0-2.9,0-4.4c0-0.3,0.4-0.7,0.7-0.8
		c1.7-0.5,2.6-1.7,3.1-3.3c0.1-0.4,0.7-0.8,1.1-0.8c1.8-0.1,3.5,0,5.4,0C356.6,383.7,356.6,395.2,356.6,406.9z"/>
	<path d="M248.8,447.6c-1.6,0-3,0-4.5,0c0-6.6,0-13.3,0-20c1.4,0,2.8,0,4.4,0c0,2.4,0,4.8,0,7.2c0.9,0,1.6,0,2.5,0
		c0-2.3,0-4.7,0-7.2c1.7,0,3.1,0,4.6,0c0,6.7,0,13.3,0,20c-1.5,0-2.9,0-4.5,0c0-2.9,0-5.7,0-8.6c-1,0-1.7,0-2.6,0
		C248.8,441.8,248.8,444.6,248.8,447.6z"/>
	<path d="M132,437.7c0,1.8,0.1,3.5,0,5.3c-0.1,3.3-1.9,4.8-5.2,4.9c-3.5,0.1-5.4-1.5-5.5-4.8c-0.1-3.6-0.2-7.3,0-10.9
		c0.1-3.4,1.9-4.8,5.6-4.8c3.3,0.1,5,1.7,5.1,5C132,434.2,132,435.9,132,437.7z M127.5,437.8c0-1.8,0.1-3.7,0-5.5
		c0-0.4-0.5-0.9-0.8-1.3c-0.3,0.4-0.9,0.8-0.9,1.2c-0.1,3.6-0.1,7.2,0,10.8c0,0.4,0.6,0.8,0.9,1.2c0.3-0.4,0.8-0.9,0.8-1.3
		C127.5,441.2,127.5,439.5,127.5,437.8z"/>
	<path d="M203.3,437.6c0,2.2,0.2,4.4-0.1,6.5c-0.3,2.6-2.2,3.8-5.3,3.8c-3.1,0-5-1.3-5.1-4c-0.2-4.2-0.2-8.5,0-12.7
		c0.1-2.6,2-3.8,5-3.8c3.2,0,4.8,1.1,5.4,3.7c0.1,0.3,0.2,0.6,0.2,0.9c0,1.9,0,3.8,0,5.6C203.4,437.6,203.4,437.6,203.3,437.6z
		 M199,437.7c0-1.8,0.1-3.5,0-5.3c0-0.5-0.6-0.9-0.9-1.4c-0.3,0.4-0.8,0.9-0.8,1.3c-0.1,3.5-0.1,7.1,0,10.6c0,0.4,0.5,0.9,0.8,1.3
		c0.3-0.5,0.8-0.9,0.9-1.4C199,441.1,199,439.4,199,437.7z"/>
	<path d="M112.9,437.9c0,1.8,0.1,3.7,0,5.5c-0.1,3-2,4.5-5.4,4.5c-3.3,0-5.2-1.6-5.3-4.6c-0.1-3.7-0.1-7.4,0-11.1
		c0.1-3.3,1.9-4.8,5.5-4.7c3.4,0,5.1,1.6,5.2,4.8C113,434.1,113,436,112.9,437.9C113,437.9,113,437.9,112.9,437.9z M108.5,437.7
		C108.5,437.7,108.5,437.7,108.5,437.7c0-1.8,0.1-3.6,0-5.5c0-0.4-0.6-0.8-0.9-1.2c-0.3,0.4-0.8,0.8-0.8,1.2
		c-0.1,3.6-0.1,7.2,0,10.7c0,0.4,0.5,0.9,0.8,1.3c0.3-0.4,0.8-0.8,0.8-1.3C108.5,441.2,108.5,439.4,108.5,437.7z"/>
	<path d="M188.9,436.8c2.2,1.7,2.7,7.2,0.9,9.4c-1.6,2-6.2,2.2-8.3,0.5c-2.2-1.9-2.1-7.5,0.2-9.9c-2-2.4-2.1-6.6,0-8.3
		c1.9-1.7,6.4-1.5,8,0.4C191.4,430.9,191.1,435,188.9,436.8z M184.4,441.1c0,0.8-0.1,1.4,0,1.9c0.1,0.5,0.6,0.9,0.9,1.3
		c0.4-0.4,0.9-0.8,1.1-1.3c0.2-0.5,0.1-1.2,0-1.7c-0.1-1,0.5-2.6-1-2.6C183.7,438.6,184.7,440.3,184.4,441.1z M186.7,433.1
		c-0.3-0.7-0.5-1.4-0.9-2c-0.1-0.1-1.1,0.1-1.2,0.3c-0.1,1.1-0.1,2.3,0,3.4c0,0.1,1.1,0.4,1.2,0.2
		C186.2,434.5,186.4,433.8,186.7,433.1z"/>
	<path d="M275,447.6c-1.6,0-2.8,0-4.2,0c0-6.7,0-13.3,0-20.1c1.4,0,2.7,0,4.2,0c0,1.8,0,3.4,0,5.4c0.6-0.5,0.9-0.8,1.3-1.1
		c2.1-1.5,4.6-0.6,4.7,1.9c0.2,4.6,0.1,9.2,0.1,13.8c-1.4,0-2.6,0-4.2,0c0-2.3,0-4.5,0-6.8c0-1.4,0.1-2.8,0-4.2
		c0-0.4-0.5-0.9-0.8-1.3c-0.3,0.4-0.9,0.8-0.9,1.3c-0.1,3.1-0.1,6.1-0.1,9.2C275,446.3,275,446.8,275,447.6z"/>
	<path d="M52,438.5c0-3.8,0-7.2,0-10.8c3.3,0,6.6,0,9.9,0c0,1.2,0,2.3,0,3.6c-2.1,0-4.2,0-6.3,0c0,1,0,1.8,0,2.7
		c0.5-0.2,0.9-0.4,1.3-0.5c2.7-0.7,5,0.5,5.3,3.3c0.3,2.4,0.2,4.9-0.1,7.4c-0.3,2.4-2.3,3.6-5.3,3.6c-2.9,0-4.6-1.1-5.2-3.5
		c-0.2-1-0.3-2.1-0.4-3.2c1.6,0,2.9,0,4.4,0c0.1,0.7,0,1.4,0.3,2.1c0.1,0.4,0.6,0.9,1,1c0.2,0.1,0.9-0.5,0.9-0.8
		c0.1-1.8,0.1-3.6-0.1-5.4c0-0.2-1.3-0.6-1.4-0.5C55.3,439.4,53.6,438.2,52,438.5z"/>
	<path d="M155.3,436.8c2.2,1.7,2.8,5.8,1.4,8.4c-1.2,2.2-4.3,3.2-7.3,2.3c-2.5-0.7-3.5-3-3.1-6.6c1.3,0,2.6,0,4.1,0
		c0.1,0.7,0,1.4,0.2,2.1c0.2,0.5,0.7,0.8,1,1.2c0.4-0.4,1-0.7,1.1-1.1c0.7-2.5-0.1-3.8-2.6-4.7c0-0.9,0-1.8,0-2.7
		c2.4-0.9,2.8-1.3,2.5-3.4c-0.1-0.5-0.6-0.9-0.9-1.3c-0.3,0.4-0.8,0.7-1,1.2c-0.2,0.4-0.1,0.9-0.2,1.5c-1.3,0-2.6,0-3.9,0
		c-0.8-2.2,0.1-4.5,2-5.5c2.4-1.3,6.3-0.7,7.7,1.1C157.8,431.2,157.4,434.9,155.3,436.8z"/>
	<path d="M349.4,447.6c-1.5,0-2.8,0-4.1,0c0-5.4,0-10.7,0-16.3c1.4,0.6,3.2-1.1,4.1,1.3c0.3-0.3,0.7-0.6,1-0.8
		c2.2-1.6,4.9-0.5,5,2.2c0.2,4.5,0.1,8.9,0.1,13.5c-1.3,0-2.6,0-4.2,0c0-1.8,0-3.7,0-5.6c0-1.9,0-3.8-0.1-5.7c0-0.4-0.4-0.7-0.7-1
		c-0.4,0.3-0.9,0.6-1,1c-0.2,0.6-0.1,1.3-0.1,1.9C349.4,441.3,349.4,444.4,349.4,447.6z"/>
	<path d="M299.9,447.6c-1.5,0-2.8,0-4.2,0c0-5.4,0-10.6,0-15.9c2.6-0.7,3.7-0.5,4.3,1c0.3-0.3,0.5-0.5,0.8-0.7
		c1.1-0.9,2.5-1.4,3.6-0.5c0.9,0.7,1.6,1.9,1.7,3c0.3,2.1,0.1,4.3,0.1,6.5c0,2.2,0,4.3,0,6.6c-1.4,0-2.7,0-4.3,0c0-1.7,0-3.4,0-5.2
		c0-1.8,0.1-3.7,0-5.5c0-0.6-0.6-1.1-0.9-1.6c-0.3,0.5-1,1-1,1.6c-0.1,3-0.1,6-0.1,9C299.9,446.4,299.9,446.9,299.9,447.6z"/>
	<path d="M336.6,440.3c-1.2,0-2.2,0-3.2,0c-0.9,0-1.9,0-3,0c0,1.3-0.1,2.4,0,3.5c0,0.4,0.5,0.7,0.8,1c0.3-0.4,0.8-0.7,0.9-1.1
		c0.2-0.6,0.1-1.3,0.2-2c1.4,0,2.7,0,4.2,0c0.3,2,0.2,3.8-1.4,5.1c-2,1.6-4.3,1.5-6.5,0.6c-1.9-0.7-2.5-2.4-2.5-4.3
		c0-2.5-0.1-4.9,0-7.4c0.1-3.1,1.9-4.6,5.2-4.7c3.3,0,5.2,1.5,5.4,4.5C336.7,437.1,336.6,438.5,336.6,440.3z M332.5,437.3
		c-0.4-1.2-0.7-2.1-0.9-2.9c-0.3,0.1-0.9,0.2-1,0.4c-0.2,0.7-0.2,1.5-0.3,2.4C331,437.2,331.4,437.2,332.5,437.3z"/>
	<path d="M293.6,440.3c-1.1,0-2.1,0-3.1,0c-0.9,0-1.9,0-3.1,0c0,1.3-0.1,2.4,0,3.5c0,0.4,0.6,0.7,1,1c0.3-0.3,0.6-0.7,0.7-1
		c0.1-0.6,0.1-1.3,0.1-2c1.5,0,2.8,0,4.2,0c0.4,2.6-0.3,4.5-1.9,5.5c-1.9,1.1-5.4,1.1-6.9-0.3c-0.8-0.7-1.5-1.9-1.6-3
		c-0.2-2.8-0.2-5.7-0.1-8.5c0.1-2.8,1.7-4.2,4.8-4.4c3.2-0.2,5.2,1.1,5.6,3.8C293.8,436.6,293.6,438.3,293.6,440.3z M289.4,437.2
		c-0.2-1-0.4-1.9-0.6-2.7c0-0.1-0.9-0.1-0.9,0c-0.3,0.8-0.4,1.7-0.7,2.7C288.1,437.2,288.6,437.2,289.4,437.2z"/>
	<path d="M268.7,439.7c0,1.3,0.1,2.6,0,3.9c-0.1,2.8-1.9,4.4-5.1,4.4c-3.2,0.1-5.2-1.3-5.4-4.1c-0.2-2.9-0.2-5.9,0-8.8
		c0.1-2.2,1.5-3.4,3.9-3.9c4.2-0.8,6.6,1.2,6.6,5.4C268.7,437.7,268.7,438.7,268.7,439.7C268.7,439.7,268.7,439.7,268.7,439.7z
		 M262.4,439.4C262.4,439.4,262.4,439.4,262.4,439.4c0,1.4-0.1,2.7,0,4.1c0,0.5,0.6,0.9,0.9,1.3c0.3-0.4,1-0.8,1-1.2
		c0.1-2.7,0.1-5.4,0-8.1c0-0.4-0.6-0.8-0.9-1.1c-0.3,0.4-0.9,0.8-1,1.2C262.3,436.8,262.4,438.1,262.4,439.4z"/>
	<path d="M165.7,431.4c-2.5,0-4.7,0-7,0c0-1.3,0-2.4,0-3.8c1.9,0,3.8,0,5.6,0c1.9,0,3.8,0,5.7,0c0.2,1.8,0.3,3.3-0.6,4.8
		c-2.5,4.2-3.3,9-3.7,13.9c0,0.4-0.1,0.8-0.1,1.3c-1.6,0-3.1,0-4.7,0C161,441.8,163,436.7,165.7,431.4z"/>
	<path d="M317.4,436.2c-1.2,0-2.3,0-3.6,0c-0.1-0.3-0.1-0.7-0.2-1c-0.2-0.4-0.5-0.8-0.8-1c-0.1-0.1-0.7,0.2-0.7,0.3
		c0,0.5-0.1,1.1,0.1,1.4c0.8,0.9,1.9,1.6,2.7,2.5c1,1.1,2.1,2.2,2.6,3.5c0.7,1.8,0.2,3.6-1.4,4.9c-1.6,1.3-4.4,1.5-6.2,0.4
		c-1.8-1-2.2-2.7-2.1-4.8c1.3,0,2.5,0,3.8,0c0.1,0.4,0.1,0.9,0.3,1.3c0.2,0.4,0.6,0.7,1,1c0.2-0.5,0.8-1.2,0.6-1.6
		c-0.2-0.7-0.9-1.2-1.4-1.7c-1.1-1.2-2.4-2.3-3.4-3.6c-1.1-1.6-0.9-3.9,0.4-5.3c1.4-1.5,4.2-2.1,6.2-1.1
		C316.8,432.3,317.6,433.8,317.4,436.2z"/>
	<path d="M79.1,447.6c-1.4,0-2.7,0-4.3,0c0-4.9,0-9.8,0-14.9c-1.1,0-2,0-3.1,0c0-1,0-2,0-2.9c2.6-0.2,4.2-3.6,7.4-1.9
		C79.1,434.3,79.1,440.9,79.1,447.6z"/>
	<path d="M217.8,432.7c-3.4,0-3.4,0-3-3c2.5-0.1,4.1-3.6,7.3-1.8c0,6.3,0,12.9,0,19.6c-1.4,0-2.8,0-4.3,0
		C217.8,442.6,217.8,437.7,217.8,432.7z"/>
	<path d="M93.8,447.5c0-5,0-9.8,0-14.7c-1,0-1.9,0-3,0c0-1,0-1.9,0-3c2.4-0.1,4-3.5,7.2-1.9c0,6.4,0,13,0,19.7
		C96.6,447.5,95.2,447.5,93.8,447.5z"/>
	<path d="M142.2,447.6c-1.4,0-2.7,0-4.2,0c0-5,0-9.8,0-14.8c-1.1,0-2,0-3,0c0-1,0-1.9,0-3c2.5,0,4-3.6,7.2-1.8
		C142.2,434.3,142.2,440.9,142.2,447.6z"/>
	<path d="M47.5,427.9c0,6.5,0,13,0,19.7c-1.4,0-2.7,0-4.2,0c0-4.9,0-9.8,0-14.8c-1.1,0-2,0-3.1,0c0-1,0-2,0-3
		C42.7,429.7,44.3,426.1,47.5,427.9z"/>
	<path d="M319.6,428.4c1.3,0,2.5,0,4,0c0,0.8-0.1,1.5,0,2.2c0.1,0.4,0.3,0.9,0.7,1.2c0.8,0.7,0.7,2.5-0.1,3.2
		c-0.3,0.3-0.6,0.8-0.7,1.2c-0.1,2.4,0,4.7,0,7.1c0,0.4,0.1,1,0.3,1.1c1.6,0.7,1.1,2.1,0.8,3.2c-0.1,0.4-1.5,0.6-2.3,0.5
		c-1.4-0.1-2.5-0.7-2.7-2.3c-0.1-1-0.2-2.1-0.3-3.2c0-1.6,0-3.3,0-4.9c-0.1-1.1,0.5-2.3-0.9-3.2c-0.3-0.2,0.3-1.8,0.5-2.7
		C319.1,430.7,319.3,429.6,319.6,428.4z"/>
	<path d="M338.6,447.6c0-5.4,0-10.6,0-16c1.4,0,2.7,0,4.1,0c0,5.3,0,10.6,0,16C341.4,447.6,340.1,447.6,338.6,447.6z"/>
	<path d="M171.7,441.2c0-1.3,0-2.4,0-3.6c2.2,0,4.3,0,6.5,0c0,1.2,0,2.4,0,3.6C176.1,441.2,174,441.2,171.7,441.2z"/>
	<path d="M211.7,437.5c0,1.2,0,2.4,0,3.6c-2.1,0-4.2,0-6.4,0c0-1.2,0-2.4,0-3.6C207.5,437.5,209.5,437.5,211.7,437.5z"/>
	<path d="M64.6,442.9c1.4,0,2.6,0,4,0c0,1.6,0,3.1,0,4.7c-1.3,0-2.6,0-4,0C64.6,446,64.6,444.5,64.6,442.9z"/>
	<path d="M119.1,447.6c-1.3,0-2.6,0-4,0c0-1.6,0-3.1,0-4.7c1.3,0,2.6,0,4,0C119.1,444.5,119.1,446,119.1,447.6z"/>
	<path d="M83.5,447.5c0-1.6,0-3.1,0-4.7c1.3,0,2.5,0,3.8,0c0,1.5,0,3,0,4.7C86.1,447.5,84.9,447.5,83.5,447.5z"/>
	<path d="M338.6,430.4c0-0.9,0-1.8,0-2.8c1.4,0,2.7,0,4,0C343.5,430.5,342.8,431,338.6,430.4z"/>
	<path class="st47" d="M53.9,148.9c0-29.4,0-58.7,0-88c65.1,0,130,0,195.2,0c3.7,23.5,13.8,43.8,30.7,60.7
		c16.8,16.8,37.1,26.9,60.7,30.6c0,62.4,0,124.8,0,187.2c-38.7,0-77.3,0-116,0c0-27.8,0-55.5,0-83.6c3.1,2.6,5.9,4.9,8.7,7.3
		c4.9,4.1,9.8,8.2,14.6,12.3c0.7,0.6,1.2,0.8,2.1,0.2c18.5-13.9,37.1-27.8,55.6-41.7c0.1-0.1,0.2-0.2,0.3-0.4
		c-0.3-0.4-0.6-0.8-0.9-1.2c-21.6-24.1-43.3-48.2-65-72.2c-0.8-0.9-1.9-1.6-3-1.8c-20.8-5.3-41.5-10.7-62.3-15.8
		c-3.6-0.9-7.5-0.4-11.3-0.4c-0.4,0-1,0.9-1.2,1.4c-1.6,4.5-3.8,8.6-7.1,12.1c-4.6,4.9-10.4,7.4-16.9,8.4c-7.5,1.2-15,1.2-22.5-0.1
		c-11.4-2-18.8-8.6-22.9-19.3c-1.3-3.3-0.4-2.4-3.9-2.7c-8.1-0.7-15.4,2.2-23,4C61.8,146.8,57.9,147.9,53.9,148.9z M261.8,128.9
		c-7,6.8-13.9,13.6-20.6,20.1c3.7,3.8,7.3,7.4,10.6,10.9c6.9-6.8,13.9-13.6,20.6-20.2C268.7,136,265.1,132.3,261.8,128.9z
		 M224.8,127.6c8.7-4.7,17.2-9.2,25.9-13.9c-2.5-4.7-5-9.3-7.5-14c-8.7,4.7-17.2,9.3-25.9,13.9C219.9,118.3,222.3,122.9,224.8,127.6
		z M328.5,196c1.9-9.7,3.7-19.2,5.5-28.9c-5.3-1-10.3-2-15.5-3c-1.8,9.7-3.7,19.2-5.5,28.8C318.2,194,323.2,195,328.5,196z
		 M287.6,184c4.6-8.8,9.1-17.4,13.7-26c-4.8-2.5-9.3-4.9-14-7.4c-4.6,8.7-9.1,17.3-13.7,26C278.3,179,282.9,181.5,287.6,184z
		 M234,67.1c-9.7,1.9-19.2,3.8-28.8,5.7c1,5.3,2,10.3,3.1,15.5c9.7-1.9,19.2-3.8,28.8-5.7C236.1,77.4,235.1,72.3,234,67.1z"/>
	<path class="st47" d="M282.6,231.2c-11,8.3-22,16.5-33.1,24.9c-13.6-11.4-27.1-22.7-40.9-34.3c0,39.5,0,78.5,0,117.7
		c-51.6,0-103,0-154.6,0c0-58,0-116,0-174.2c9.2-2.3,18.6-4.7,27.7-7c2.4,3,4.6,6.1,7.1,8.7c6.9,7,15.6,10.8,25.2,12.6
		c12.1,2.2,24.1,1.7,35.7-2.5c9.3-3.4,16.9-9.1,22-17.7c0.5-0.9,1-1.1,2.1-0.8c18.3,4.7,36.6,9.3,54.9,14c0.9,0.2,1.8,0.8,2.5,1.5
		c17,18.8,33.9,37.7,50.9,56.6C282.2,230.7,282.4,230.9,282.6,231.2z M177.3,287.1c0-6.8,0-13.7,0-20.5c0-2.1-0.1-4.1-0.3-6.2
		c-0.9-8.7-6.1-14.6-14.6-16.5c-5.6-1.2-11.2-1.2-16.8,0.2c-6.9,1.8-11.5,6-13.2,13c-0.7,2.8-1,5.7-1,8.6c-0.1,13.9-0.1,27.7,0,41.6
		c0,2.1,0.1,4.2,0.4,6.3c0.9,8.5,5.8,14.1,14,16.2c5.9,1.5,11.9,1.4,17.8-0.1c7-1.9,11.4-6.5,12.9-13.5c0.5-2.5,0.8-5,0.8-7.5
		C177.4,301.5,177.3,294.3,177.3,287.1z M114.3,283.1c4.9-1.5,8-5.2,8.4-10.5c0.3-5,0.2-10.1-0.7-14.9c-1.2-7-5.9-11.5-12.8-13.4
		c-5.7-1.5-11.4-1.5-17.2-0.2c-7.8,1.8-12.5,6.7-13.8,14.5c-0.6,3.9-0.7,8-0.7,12c0,5.5,2.3,9.9,7.4,12.5c0.2,0.1,0.3,0.2,0.5,0.4
		c-5,3-7,5.5-7.9,10.6c-1.1,6.6-1.1,13.2-0.3,19.7c1.1,8.7,6,14.3,14.7,16.2c5.4,1.2,10.9,1.2,16.3,0c8-1.8,13.3-6.7,14.3-14.9
		c0.8-6.4,0.4-13,0.3-19.6c-0.1-2.8-0.9-5.7-2.8-7.8C118.4,286,116.2,284.6,114.3,283.1z M108.4,235.5c-0.1-2.7-0.4-5.3-0.3-8
		c0.1-2.4-0.2-4.5-3.2-5.5c2.2-0.9,3.3-2.2,3.2-4.2c0-0.7,0-1.4,0-2.1c-0.1-2.7-1-4.1-3.7-4.5c-2.8-0.4-5.6-0.3-8.4-0.4
		c0,8.4,0,16.5,0,24.6c1.9,0,3.5,0,5.4,0c0-3.9,0-7.7,0-11.5c1.5,0,1.5,0.9,1.5,1.8c0,1.9-0.1,3.8,0,5.7c0.2,4.2,0.3,4.2,4.5,4.2
		C107.7,235.6,108.2,235.6,108.4,235.5z M122.8,223.3c0-2.3,0-4.6,0-6.9c0-3.8-1.5-5.4-5.3-5.6c-0.9-0.1-1.9,0-2.8,0.1
		c-2.9,0.4-4.2,2-4.2,4.9c0,5.1,0,10.1,0,15.2c0,2.6,1,4,3.4,4.4c1.8,0.3,3.8,0.2,5.6-0.1c2.3-0.5,3.3-2,3.3-4.4
		C122.8,228.4,122.8,225.8,122.8,223.3z M159.7,219.5c0-1.4,0-2.7,0-4c0-3-1.4-4.4-4.4-4.6c-1-0.1-2-0.1-3,0c-3,0.3-4.4,1.9-4.4,4.9
		c0,5,0,10,0,15c0,2.9,1.2,4.3,4.1,4.7c1.1,0.1,2.3,0.2,3.3,0c1.9-0.3,3.8-1,4.1-3c0.3-2.2,0.1-4.5,0.1-6.8c-1.7,0-3.2,0-4.9,0
		c0,1.8,0,3.5,0,5.2c0,0.4-0.4,0.8-0.6,1.2c-0.3-0.4-0.8-0.8-0.8-1.3c-0.1-5.2,0-10.4,0-15.6c0-0.4,0.4-0.8,0.7-1.2
		c0.3,0.4,0.7,0.7,0.7,1.1c0.1,1.3,0,2.7,0,4.1C156.5,219.5,158,219.5,159.7,219.5z M86.7,226.6c1.5-0.2,2.7-0.3,3.9-0.4
		c1.9-0.2,2.9-1.4,3-3.2c0.1-2.9,0.1-5.8,0-8.6c0-1.7-1.2-2.8-2.8-3c-3.1-0.3-6.2-0.4-9.3-0.6c0,8.5,0,16.6,0,24.7
		c1.8,0,3.4,0,5.1,0C86.7,232.4,86.7,229.6,86.7,226.6z M146.1,220.7c-1.6,0-3,0-4.4,0c0-2.3,0-4.3,0-6.6c1.7,0,3.2,0,4.8,0
		c0-1.2,0-2.1,0-3.1c-3.5,0-6.8,0-10.2,0c0,8.2,0,16.3,0,24.4c3.5,0,6.9,0,10.3,0c0-1.1,0-2,0-3.1c-1.7,0-3.2,0-4.9,0
		c0-2.9,0-5.7,0-8.5c1.5-0.1,3-0.1,4.4-0.2C146.1,222.6,146.1,221.8,146.1,220.7z M164,214.2c0,0.9,0,1.6,0,2.3c0,5.8,0,11.7,0,17.5
		c0,0.5,0.4,1.4,0.7,1.5c1.5,0.1,3.1,0.1,4.9,0.1c0-7.3,0-14.3,0-21.3c1.1-0.1,1.9-0.1,2.8-0.2c0-1.1,0-2,0-3c-3.8,0-7.5,0-11.2,0
		c0,1.1,0,2,0,3.1C162.1,214.1,162.9,214.2,164,214.2z M126.4,235.5c1.8,0,3.5,0,5.4,0c0-7.1,0-14.1,0-21.2c1.1-0.1,2-0.2,2.9-0.3
		c0-1,0-2,0-3c-3.9,0-7.6,0-11.3,0c0,1.1,0,2,0,3c1,0.1,1.9,0.2,3,0.2C126.4,221.4,126.4,228.4,126.4,235.5z"/>
	<path class="st47" d="M199.4,402.3c0-8.5,0-17,0-25.6c1.4-0.1,2,0.6,2,2c0,7.2,0,14.4,0,21.6C201.4,401.6,200.9,402.4,199.4,402.3z
		"/>
	<path class="st47" d="M272.3,376.6c2,0.1,2,1.5,2,2.8c0,6.6,0,13.2,0,19.8c0,0.5,0.1,1.1-0.1,1.6c-0.3,0.7-0.9,1.2-1.4,1.8
		c-0.2-0.1-0.3-0.2-0.5-0.3C272.3,393.8,272.3,385.3,272.3,376.6z"/>
	<path class="st47" d="M247.9,376.7c1.6-0.1,2.3,0.7,2.3,2.2c0,1.7,0,3.3,0,5c0,1.5-0.7,2.2-2.3,1.9
		C247.9,382.7,247.9,379.7,247.9,376.7z"/>
	<path class="st47" d="M333.2,389.6c0,3.6,0,7.2,0,10.8c0,0.9,0.2,1.9-1.2,1.9c-1.4,0-1.4-1-1.4-2c0-7.2,0-14.5,0-21.7
		c0-1,0-2,1.3-2c1.4,0,1.2,1.2,1.2,2.1C333.2,382.3,333.2,386,333.2,389.6C333.2,389.6,333.2,389.6,333.2,389.6z"/>
	<path class="st47" d="M306.7,396.2c0-1.4,0-2.8,0-4.2c0-0.8-0.1-1.7,1.2-1.7c1.2,0,1.3,0.8,1.3,1.6c0,3,0.1,6,0,9
		c0,0.5-0.8,1-1.2,1.5c-0.4-0.5-1.1-1-1.2-1.6C306.6,399.3,306.7,397.7,306.7,396.2C306.7,396.2,306.7,396.2,306.7,396.2z"/>
	<path class="st47" d="M306.7,381.1c0-1.1-0.1-2.3,0.1-3.3c0.1-0.5,0.8-1.1,1.2-1.1c0.4,0,1.1,0.7,1.2,1.1c0.1,2.3,0.1,4.6,0,6.9
		c0,0.4-0.8,1.1-1.2,1.1c-0.4,0-1.1-0.7-1.2-1.1C306.6,383.5,306.7,382.3,306.7,381.1z"/>
	<path class="st47" d="M148.3,392.8c0.3-3,0.6-5.8,0.8-8.6c0.1,0,0.2,0,0.3,0c0.3,2.8,0.6,5.6,0.9,8.5
		C149.7,392.7,149.1,392.7,148.3,392.8z"/>
	<path class="st47" d="M225.9,392.7c-0.8,0-1.3,0-2.1,0c0.3-2.8,0.5-5.6,0.8-8.3c0.1,0,0.3,0,0.4,0
		C225.3,387.1,225.6,389.8,225.9,392.7z"/>
	<path class="st47" d="M127.5,437.8c0,1.7,0.1,3.4,0,5.1c0,0.5-0.5,0.9-0.8,1.3c-0.3-0.4-0.9-0.8-0.9-1.2c-0.1-3.6-0.1-7.2,0-10.8
		c0-0.4,0.6-0.8,0.9-1.2c0.3,0.4,0.8,0.8,0.8,1.3C127.5,434.1,127.5,435.9,127.5,437.8z"/>
	<path class="st47" d="M199,437.7c0,1.7,0.1,3.4,0,5.1c0,0.5-0.6,1-0.9,1.4c-0.3-0.4-0.8-0.9-0.8-1.3c-0.1-3.5-0.1-7.1,0-10.6
		c0-0.4,0.5-0.9,0.8-1.3c0.3,0.5,0.9,0.9,0.9,1.4C199,434.2,199,435.9,199,437.7z"/>
	<path class="st47" d="M108.5,437.7c0,1.8,0.1,3.5,0,5.3c0,0.4-0.5,0.9-0.8,1.3c-0.3-0.4-0.8-0.9-0.8-1.3c-0.1-3.6-0.1-7.2,0-10.7
		c0-0.4,0.5-0.8,0.8-1.2c0.3,0.4,0.9,0.8,0.9,1.2C108.5,434,108.5,435.9,108.5,437.7C108.5,437.7,108.5,437.7,108.5,437.7z"/>
	<path class="st47" d="M184.4,441.1c0.3-0.8-0.7-2.5,1.1-2.5c1.5,0,0.9,1.6,1,2.6c0.1,0.6,0.1,1.2,0,1.7c-0.2,0.5-0.7,0.9-1.1,1.3
		c-0.3-0.4-0.8-0.8-0.9-1.3C184.3,442.5,184.4,441.9,184.4,441.1z"/>
	<path class="st47" d="M186.7,433.1c-0.3,0.7-0.5,1.4-0.8,1.9c-0.1,0.1-1.1-0.1-1.2-0.2c-0.1-1.1-0.1-2.3,0-3.4
		c0-0.1,1.1-0.4,1.2-0.3C186.2,431.7,186.4,432.4,186.7,433.1z"/>
	<path class="st47" d="M332.5,437.3c-1-0.1-1.5-0.1-2.2-0.1c0.1-0.9,0.1-1.7,0.3-2.4c0.1-0.2,0.7-0.3,1-0.4
		C331.8,435.2,332.1,436.1,332.5,437.3z"/>
	<path class="st47" d="M289.4,437.2c-0.8,0-1.3,0-2.2,0c0.2-1,0.4-1.9,0.7-2.7c0-0.1,0.9-0.1,0.9,0
		C289.1,435.3,289.2,436.2,289.4,437.2z"/>
	<path class="st47" d="M262.4,439.4c0-1.3-0.1-2.6,0-3.9c0-0.4,0.6-0.8,1-1.2c0.3,0.4,0.8,0.8,0.9,1.1c0.1,2.7,0.1,5.4,0,8.1
		c0,0.4-0.6,0.8-1,1.2c-0.3-0.4-0.8-0.9-0.9-1.3C262.3,442.1,262.4,440.8,262.4,439.4C262.4,439.4,262.4,439.4,262.4,439.4z"/>
	<path d="M261.8,128.9c3.3,3.4,6.9,7.1,10.6,10.8c-6.7,6.6-13.7,13.4-20.6,20.2c-3.4-3.4-7-7.1-10.6-10.9
		C247.9,142.5,254.8,135.7,261.8,128.9z"/>
	<path d="M224.8,127.6c-2.5-4.7-5-9.2-7.5-13.9c8.6-4.6,17.2-9.2,25.9-13.9c2.5,4.7,5,9.3,7.5,14C242,118.3,233.5,122.9,224.8,127.6
		z"/>
	<path d="M328.5,196c-5.3-1-10.3-2-15.5-3c1.8-9.7,3.7-19.2,5.5-28.8c5.2,1,10.3,2,15.5,3C332.2,176.8,330.4,186.3,328.5,196z"/>
	<path d="M287.6,184c-4.7-2.5-9.3-4.9-14-7.4c4.6-8.7,9.1-17.3,13.7-26c4.7,2.5,9.2,4.9,14,7.4C296.8,166.6,292.3,175.2,287.6,184z"
		/>
	<path d="M234,67.1c1,5.2,2,10.3,3.1,15.5c-9.6,1.9-19.1,3.8-28.8,5.7c-1-5.2-2-10.3-3.1-15.5C214.9,70.9,224.4,69,234,67.1z"/>
	<path d="M177.3,287.1c0,7.2,0.1,14.4,0,21.6c0,2.5-0.3,5.1-0.8,7.5c-1.6,7.1-5.9,11.7-12.9,13.5c-5.9,1.6-11.9,1.6-17.8,0.1
		c-8.2-2.1-13.1-7.7-14-16.2c-0.2-2.1-0.3-4.2-0.4-6.3c0-13.9-0.1-27.7,0-41.6c0-2.9,0.3-5.8,1-8.6c1.6-7,6.2-11.3,13.2-13
		c5.6-1.4,11.2-1.4,16.8-0.2c8.5,1.9,13.7,7.8,14.6,16.5c0.2,2,0.3,4.1,0.3,6.2C177.4,273.4,177.3,280.2,177.3,287.1z M158.2,287
		c0-7.7,0-15.5,0-23.2c0-1-0.1-2.1-0.4-3.1c-0.5-1.7-1.7-2.4-3.4-2.5c-1.7,0-3,0.7-3.5,2.4c-0.3,0.9-0.4,2-0.4,3
		c0,15.7,0,31.4,0,47.1c0,0.9,0.1,1.8,0.4,2.6c0.5,1.8,1.7,2.5,3.6,2.5c1.8,0,3-0.8,3.5-2.6c0.2-0.9,0.3-1.9,0.3-2.8
		C158.3,302.6,158.2,294.8,158.2,287z"/>
	<path d="M114.3,283.1c1.9,1.5,4.1,2.9,5.8,4.7c2,2.1,2.8,5,2.8,7.8c0.1,6.5,0.5,13.1-0.3,19.6c-1,8.2-6.3,13.1-14.3,14.9
		c-5.4,1.2-10.9,1.2-16.3,0c-8.7-1.9-13.6-7.5-14.7-16.2c-0.8-6.6-0.9-13.2,0.3-19.7c0.9-5.1,2.9-7.6,7.9-10.6
		c-0.2-0.2-0.3-0.3-0.5-0.4c-5.2-2.6-7.4-7-7.4-12.5c0-4,0-8,0.7-12c1.3-7.8,6-12.7,13.8-14.5c5.7-1.3,11.5-1.3,17.2,0.2
		c6.9,1.9,11.6,6.3,12.8,13.4c0.9,4.9,1,10,0.7,14.9C122.3,277.9,119.2,281.6,114.3,283.1z M104.5,303.4
		C104.5,303.4,104.5,303.4,104.5,303.4c0-2.9,0.1-5.9-0.1-8.8c-0.1-2.5-1.7-3.7-4.3-3.7c-2.7,0-4.1,1.1-4.2,3.7
		c-0.2,4.4-0.2,8.8-0.2,13.2c0,1.6,0,3.2,0.2,4.8c0.2,1.6,1,2.7,2.6,3.2c3.3,0.9,5.7-0.6,5.9-4C104.6,308.9,104.5,306.1,104.5,303.4
		z M104.5,267.5C104.5,267.5,104.5,267.5,104.5,267.5c-0.1-2,0.1-4-0.1-6c-0.2-2.3-1.9-3.5-4.4-3.5c-2.4,0.1-4,1.2-4.1,3.5
		c-0.2,3.8-0.2,7.5,0,11.3c0.1,2.6,1.8,3.9,4.4,3.8c2.6-0.1,4-1.4,4.2-4C104.6,270.9,104.5,269.2,104.5,267.5z"/>
	<path d="M108.4,235.5c-0.3,0-0.7,0.1-1.2,0.1c-4.2,0-4.2,0-4.5-4.2c-0.1-1.9,0-3.8,0-5.7c0-0.9,0-1.8-1.5-1.8c0,3.8,0,7.6,0,11.5
		c-1.9,0-3.5,0-5.4,0c0-8.1,0-16.2,0-24.6c2.8,0.1,5.6,0.1,8.4,0.4c2.7,0.4,3.7,1.8,3.7,4.5c0,0.7,0,1.4,0,2.1
		c0.1,2.1-1,3.4-3.2,4.2c3,0.9,3.2,3,3.2,5.5C108,230.2,108.3,232.8,108.4,235.5z M101.3,220.6c1.6-0.4,1.6-0.4,1.5-4.1
		c0-1,0.1-2.2-1.5-2.2C101.3,216.4,101.3,218.5,101.3,220.6z"/>
	<path d="M122.8,223.3c0,2.5,0,5.1,0,7.6c0,2.4-1,3.9-3.3,4.4c-1.8,0.4-3.8,0.4-5.6,0.1c-2.5-0.4-3.4-1.8-3.4-4.4
		c0-5.1,0-10.1,0-15.2c0-2.9,1.4-4.5,4.2-4.9c0.9-0.1,1.9-0.1,2.8-0.1c3.8,0.2,5.3,1.8,5.3,5.6C122.8,218.7,122.8,221,122.8,223.3z
		 M115.7,223.2c0,2.6,0,5.2,0,7.8c0,0.4,0.5,0.8,0.8,1.3c0.3-0.4,0.8-0.8,0.9-1.3c0.1-5.2,0.1-10.3,0-15.5c0-0.4-0.6-0.9-0.9-1.3
		c-0.3,0.4-0.8,0.9-0.8,1.3C115.7,218.1,115.7,220.6,115.7,223.2z"/>
	<path d="M159.7,219.5c-1.7,0-3.2,0-5,0c0-1.4,0.1-2.8,0-4.1c0-0.4-0.5-0.8-0.7-1.1c-0.2,0.4-0.7,0.8-0.7,1.2c0,5.2,0,10.4,0,15.6
		c0,0.4,0.5,0.8,0.8,1.3c0.2-0.4,0.6-0.8,0.6-1.2c0.1-1.7,0-3.4,0-5.2c1.7,0,3.2,0,4.9,0c0,2.2,0.3,4.6-0.1,6.8
		c-0.3,2.1-2.3,2.7-4.1,3c-1.1,0.2-2.2,0.1-3.3,0c-2.9-0.4-4.1-1.8-4.1-4.7c0-5,0-10,0-15c0-3,1.4-4.6,4.4-4.9c1-0.1,2-0.1,3,0
		c3,0.2,4.3,1.7,4.4,4.6C159.7,216.8,159.7,218.1,159.7,219.5z"/>
	<path d="M86.7,226.6c0,3,0,5.8,0,8.8c-1.8,0-3.4,0-5.1,0c0-8.1,0-16.2,0-24.7c3.1,0.2,6.2,0.3,9.3,0.6c1.6,0.2,2.7,1.3,2.8,3
		c0.1,2.9,0.1,5.8,0,8.6c-0.1,1.8-1.1,2.9-3,3.2C89.4,226.3,88.2,226.5,86.7,226.6z M86.8,214.7c0,2.7,0,5.4,0,8.1
		c0.2,0,0.4,0.1,0.6,0.1c1.9-1.8,0.7-4.4,1-6.5C88.6,215.4,88.2,214.5,86.8,214.7z"/>
	<path d="M146.1,220.7c0,1.1,0,1.9,0,2.9c-1.5,0.1-2.9,0.1-4.4,0.2c0,2.8,0,5.6,0,8.5c1.6,0,3.2,0,4.9,0c0,1.1,0,2,0,3.1
		c-3.4,0-6.8,0-10.3,0c0-8.1,0-16.2,0-24.4c3.4,0,6.7,0,10.2,0c0,0.9,0,1.9,0,3.1c-1.5,0-3.1,0-4.8,0c0,2.3,0,4.4,0,6.6
		C143.1,220.7,144.5,220.7,146.1,220.7z"/>
	<path d="M164,214.2c-1.1-0.1-1.9-0.1-2.8-0.2c0-1,0-2,0-3.1c3.7,0,7.4,0,11.2,0c0,1,0,1.9,0,3c-0.8,0.1-1.7,0.1-2.8,0.2
		c0,7,0,14,0,21.3c-1.8,0-3.3,0.1-4.9-0.1c-0.3,0-0.7-1-0.7-1.5c0-5.8,0-11.7,0-17.5C164,215.8,164,215.1,164,214.2z"/>
	<path d="M126.4,235.5c0-7.1,0-14,0-21.2c-1.1-0.1-2-0.2-3-0.2c0-1,0-1.9,0-3c3.7,0,7.4,0,11.3,0c0,1,0,1.9,0,3
		c-1,0.1-1.9,0.2-2.9,0.3c0,7.1,0,14.1,0,21.2C129.9,235.5,128.2,235.5,126.4,235.5z"/>
	<path class="st47" d="M158.2,287c0,7.8,0,15.6,0,23.4c0,0.9-0.1,1.9-0.3,2.8c-0.4,1.8-1.7,2.6-3.5,2.6c-1.9,0-3-0.8-3.6-2.5
		c-0.2-0.8-0.4-1.7-0.4-2.6c0-15.7,0-31.4,0-47.1c0-1,0.1-2,0.4-3c0.5-1.7,1.8-2.4,3.5-2.4c1.8,0,3,0.8,3.4,2.5
		c0.3,1,0.4,2.1,0.4,3.1C158.3,271.5,158.2,279.3,158.2,287z"/>
	<path class="st47" d="M104.5,303.4c0,2.8,0.1,5.5,0,8.3c-0.2,3.4-2.6,5-5.9,4c-1.6-0.5-2.5-1.6-2.6-3.2c-0.2-1.6-0.2-3.2-0.2-4.8
		c0-4.4,0-8.8,0.2-13.2c0.1-2.6,1.6-3.7,4.2-3.7c2.6,0,4.1,1.2,4.3,3.7C104.6,297.5,104.5,300.4,104.5,303.4
		C104.5,303.4,104.5,303.4,104.5,303.4z"/>
	<path class="st47" d="M104.5,267.5c0,1.7,0.1,3.4,0,5.1c-0.2,2.7-1.6,4-4.2,4c-2.6,0.1-4.2-1.2-4.4-3.8c-0.2-3.8-0.1-7.5,0-11.3
		c0.1-2.3,1.7-3.4,4.1-3.5c2.4-0.1,4.1,1.2,4.4,3.5C104.6,263.5,104.4,265.5,104.5,267.5C104.5,267.5,104.5,267.5,104.5,267.5z"/>
	<path class="st47" d="M101.3,220.6c0-2.1,0-4.2,0-6.4c1.7,0,1.5,1.2,1.5,2.2C102.9,220.2,102.9,220.2,101.3,220.6z"/>
	<path class="st47" d="M115.7,223.2c0-2.6,0-5.2,0-7.8c0-0.4,0.5-0.9,0.8-1.3c0.3,0.4,0.9,0.8,0.9,1.3c0.1,5.2,0.1,10.3,0,15.5
		c0,0.4-0.6,0.8-0.9,1.3c-0.3-0.4-0.8-0.8-0.8-1.3C115.7,228.4,115.7,225.8,115.7,223.2z"/>
	<path class="st47" d="M86.8,214.7c1.4-0.2,1.7,0.7,1.6,1.7c-0.3,2.2,1,4.7-1,6.5c-0.2,0-0.4-0.1-0.6-0.1
		C86.8,220.1,86.8,217.4,86.8,214.7z"/>
</g>
</svg>
